{
.appVersion = "1346";
copyright = "Copyright 2020 The XanhMono Project Authors (https://github.com/yellow-type-foundry)";
customParameters = (
{
name = license;
value = "This Font Software is licensed under the SIL Open Font License, Version 1.1. This license is available with a FAQ at: https://scripts.sil.org/OFL";
},
{
name = licenseURL;
value = "https://scripts.sil.org/OFL";
},
{
name = fsType;
value = (
);
},
{
name = isFixedPitch;
value = 1;
},
{
name = "Use Typo Metrics";
value = 1;
},
{
name = "Disable Last Change";
value = 1;
},
{
name = "Use Line Breaks";
value = 1;
}
);
date = "2020-09-28 16:38:48 +0000";
designer = "Lam Bao, Duy Dao";
designerURL = "https://yellow-type.com/";
familyName = "Xanh Mono";
featurePrefixes = (
{
automatic = 1;
code = "languagesystem DFLT dflt;

languagesystem latn dflt;
languagesystem latn AZE;
languagesystem latn CRT;
languagesystem latn KAZ;
languagesystem latn TAT;
languagesystem latn TRK;
languagesystem latn ROM;
languagesystem latn MOL;
";
name = Languagesystems;
}
);
features = (
{
automatic = 1;
code = "feature locl;
feature subs;
feature sinf;
feature sups;
feature numr;
feature dnom;
feature frac;
feature ordn;
";
name = aalt;
},
{
automatic = 1;
code = "lookup ccmp_Other_1 {
	@CombiningTopAccents = [acutecomb brevecomb caroncomb circumflexcomb commaturnedabovecomb dieresiscomb dotaccentcomb gravecomb hookabovecomb hungarumlautcomb macroncomb ringcomb tildecomb];
	@CombiningNonTopAccents = [cedillacomb dotbelowcomb ogonekcomb horncomb];
	sub [i]' @CombiningTopAccents by [idotless];
	sub [i]' @CombiningNonTopAccents @CombiningTopAccents by [idotless];
} ccmp_Other_1;

lookup ccmp_latn_1 {
	lookupflag 0;
	sub brevecomb acutecomb by brevecomb_acutecomb;
	sub brevecomb gravecomb by brevecomb_gravecomb;
	sub brevecomb hookabovecomb by brevecomb_hookabovecomb;
	sub brevecomb tildecomb by brevecomb_tildecomb;
	sub circumflexcomb acutecomb by circumflexcomb_acutecomb;

glyphs = (
{
color = 3;
glyphname = A;
layers = (
{
anchors = (
{
name = bottom;
position = "{250, 0}";
},
{
name = ogonek;
position = "{406, 0}";
},
{
name = top;
position = "{250, 740}";
}
);
components = (
{
name = crossbar;
transform = "{0.80615, 0, 0, 1, 48, -2}";
}
);
guideLines = (
{
angle = 103.844;
position = "{367, 38}";
},
{
angle = 256.156;
position = "{87, 45}";
}
);
layerId = "94EC0173-ED25-4379-B549-8ECC2838F2C2";
paths = (
{
closed = 1;
nodes = (
"157 0 LINE",
"157 34 LINE",
"87 34 LINE",
"226 612 LINE",
"367 34 LINE",
"266 34 LINE",
"266 0 LINE",
"502 0 LINE",
"502 34 LINE",
"438 34 LINE",
"265 740 LINE",
"225 740 LINE",
"52 34 LINE",
"-1 34 LINE",
"-1 0 LINE"
);
}
);
width = 500;
}
);
unicode = 0041;
},
{
color = 6;
glyphname = AE;
layers = (
{
guideLines = (
{
angle = 256.156;
position = "{87, 38}";
}
);
layerId = "94EC0173-ED25-4379-B549-8ECC2838F2C2";
paths = (
{
closed = 1;
nodes = (
"155 0 LINE",
"155 34 LINE",
"95 34 LINE",
"263 634 LINE",
"263 34 LINE",
"209 34 LINE",
"209 0 LINE",
"493 0 LINE",
"493 234 LINE",
"465 234 LINE",
"453 108 LINE SMOOTH",
"448 59 OFFCURVE",
"426 36 OFFCURVE",
"368 35 CURVE SMOOTH",
"326 34 LINE",
"326 387 LINE",
"387 387 LINE",
"387 260 LINE",
"417 260 LINE",
"417 548 LINE",
"387 548 LINE",
"387 421 LINE",
"326 421 LINE",
"326 705 LINE",
"365 705 LINE SMOOTH",
"423 705 OFFCURVE",
"446 681 OFFCURVE",
"451 633 CURVE SMOOTH",
"462 526 LINE",
"490 526 LINE",
"490 740 LINE",
"161 740 LINE",
"162 706 LINE",
"253 706 LINE",
"60 34 LINE",
"7 34 LINE",
"7 0 LINE"
);
},
{
closed = 1;
nodes = (
"272 273 LINE",
"272 303 LINE",
"161 303 LINE",
"151 273 LINE"
);
}
);
width = 500;
}
);
unicode = 00C6;
},
{
color = 6;
glyphname = B;
layers = (
{
layerId = "94EC0173-ED25-4379-B549-8ECC2838F2C2";
paths = (
{
closed = 1;
nodes = (
"271 0 LINE SMOOTH",
"407 0 OFFCURVE",
"481 74 OFFCURVE",
"481 209 CURVE SMOOTH",
"481 329 OFFCURVE",
"407 387 OFFCURVE",
"352 398 CURVE",
"352 405 LINE",
"395 414 OFFCURVE",
"452 461 OFFCURVE",
"452 560 CURVE SMOOTH",
"452 677 OFFCURVE",
"386 740 OFFCURVE",
"265 740 CURVE SMOOTH",
"28 740 LINE",
"28 706 LINE",
"112 706 LINE",
"112 34 LINE",
"28 34 LINE",
"28 0 LINE"
);
},
{
closed = 1;
nodes = (
"182 383 LINE",
"273 383 LINE SMOOTH",
"355 383 OFFCURVE",
"399 339 OFFCURVE",
"399 257 CURVE SMOOTH",
"399 158 LINE SMOOTH",
"399 76 OFFCURVE",
"355 32 OFFCURVE",
"273 32 CURVE SMOOTH",
"182 32 LINE"
);
},
{
closed = 1;
nodes = (
"182 708 LINE",
"273 708 LINE SMOOTH",
"338 708 OFFCURVE",
"373 673 OFFCURVE",
"373 608 CURVE SMOOTH",
"373 514 LINE SMOOTH",
"373 449 OFFCURVE",
"338 414 OFFCURVE",
"273 414 CURVE SMOOTH",
"182 414 LINE"
);
}
);
width = 500;
}
);
unicode = 0042;
},
{
color = 6;
glyphname = C;
layers = (
{
anchors = (
{
name = bottom;
position = "{260, 0}";
},
{
name = top;
position = "{250, 740}";
}
);
layerId = "94EC0173-ED25-4379-B549-8ECC2838F2C2";
paths = (
{
closed = 1;
nodes = (
"333 -10 OFFCURVE",
"376 48 OFFCURVE",
"386 91 CURVE",
"394 91 LINE",
"394 0 LINE",
"426 0 LINE",
"426 252 LINE",
"374 252 LINE",
"374 229 LINE SMOOTH",
"374 75 OFFCURVE",
"314 27 OFFCURVE",
"254 27 CURVE SMOOTH",
"175 27 OFFCURVE",
"133 90 OFFCURVE",
"133 205 CURVE SMOOTH",
"133 535 LINE SMOOTH",
"133 650 OFFCURVE",
"176 713 OFFCURVE",
"254 713 CURVE SMOOTH",
"314 713 OFFCURVE",
"374 665 OFFCURVE",
"374 511 CURVE SMOOTH",
"374 488 LINE",
"426 488 LINE",
"426 740 LINE",
"394 740 LINE",
"394 649 LINE",
"386 649 LINE",
"376 692 OFFCURVE",
"333 750 OFFCURVE",
"254 750 CURVE SMOOTH",
"118 750 OFFCURVE",
"49 560 OFFCURVE",
"49 370 CURVE SMOOTH",
"49 180 OFFCURVE",
"118 -10 OFFCURVE",
"254 -10 CURVE SMOOTH"
);
}
);
width = 500;
}
);
unicode = 0043;
},
{
color = 6;
glyphname = D;
layers = (
{
anchors = (
{
name = bottom;
position = "{250, 0}";
},
{
name = center;
position = "{250, 370}";
},
{
name = top;
position = "{250, 740}";
}
);
layerId = "94EC0173-ED25-4379-B549-8ECC2838F2C2";
paths = (
{
closed = 1;
nodes = (
"227 0 LINE SMOOTH",
"394 0 OFFCURVE",
"472 185 OFFCURVE",
"472 370 CURVE SMOOTH",
"472 555 OFFCURVE",
"394 740 OFFCURVE",
"227 740 CURVE SMOOTH",
"190 740 LINE",
"190 708 LINE",
"227 708 LINE SMOOTH",
"315 708 OFFCURVE",
"388 644 OFFCURVE",
"388 527 CURVE SMOOTH",
"388 213 LINE SMOOTH",
"388 96 OFFCURVE",
"315 32 OFFCURVE",
"227 32 CURVE SMOOTH",
"190 32 LINE",
"190 0 LINE"
);
},
{
closed = 1;
nodes = (
"192 0 LINE",
"192 740 LINE",
"38 740 LINE",
"38 706 LINE",
"122 706 LINE",
"122 34 LINE",
"38 34 LINE",
"38 0 LINE"
);
}
);
width = 500;
}
);
unicode = 0044;
},
{
color = 3;
glyphname = E;
layers = (
{
anchors = (
{
name = bottom;
position = "{250, 0}";
},
{
name = ogonek;
position = "{355, 0}";
},
{
name = top;
position = "{250, 740}";
},
{
name = topleft;
position = "{20, 740}";
}
);
components = (
{
name = "stem-upper-2";
transform = "{1, 0, 0, 1, 40, 0}";
}
);
layerId = "94EC0173-ED25-4379-B549-8ECC2838F2C2";
paths = (
{
closed = 1;
nodes = (
"317 705 LINE SMOOTH",
"365 705 OFFCURVE",
"394 681 OFFCURVE",
"400 633 CURVE SMOOTH",
"414 526 LINE",
"442 526 LINE",
"442 740 LINE",
"169 740 LINE",
"169 705 LINE"
);
},
{
closed = 1;
nodes = (
"314 387 LINE",
"314 260 LINE",
"346 260 LINE",
"346 548 LINE",
"314 548 LINE",
"314 421 LINE",
"123 421 LINE",
"123 387 LINE"
);
},
{
closed = 1;
nodes = (
"169 0 LINE",
"452 0 LINE",
"452 234 LINE",
"424 234 LINE",
"409 108 LINE SMOOTH",
"403 59 OFFCURVE",
"375 35 OFFCURVE",
"327 35 CURVE SMOOTH",
"169 35 LINE"
);
}
);
width = 500;
}
);
unicode = 0045;
},
{
color = 6;
glyphname = F;
layers = (
{
layerId = "94EC0173-ED25-4379-B549-8ECC2838F2C2";
paths = (
{
closed = 1;
nodes = (
"347 0 LINE",
"347 34 LINE",
"185 34 LINE",
"185 387 LINE",
"326 387 LINE",
"326 260 LINE",
"356 260 LINE",
"356 548 LINE",
"326 548 LINE",
"326 421 LINE",
"185 421 LINE",
"185 705 LINE",
"327 705 LINE SMOOTH",
"375 705 OFFCURVE",
"404 681 OFFCURVE",
"410 633 CURVE SMOOTH",
"424 526 LINE",
"452 526 LINE",
"452 740 LINE",
"31 740 LINE",
"31 706 LINE",
"115 706 LINE",
"115 34 LINE",
"31 34 LINE",
"31 0 LINE"
);
}
);
width = 500;
}
);
unicode = 0046;
},
{
color = 6;
glyphname = G;
layers = (
{
anchors = (
{
name = bottom;
position = "{250, 0}";
},
{
name = top;
position = "{250, 740}";
}
);
layerId = "94EC0173-ED25-4379-B549-8ECC2838F2C2";
paths = (
{
closed = 1;
nodes = (
"331 -10 OFFCURVE",
"374 64 OFFCURVE",
"384 120 CURVE",
"393 120 LINE",
"393 0 LINE",
"428 0 LINE",
"428 404 LINE",
"206 404 LINE",
"206 370 LINE",
"372 370 LINE",
"372 307 LINE SMOOTH",
"372 193 OFFCURVE",
"360 27 OFFCURVE",
"247 27 CURVE SMOOTH",
"178 27 OFFCURVE",
"133 90 OFFCURVE",
"133 205 CURVE SMOOTH",
"133 535 LINE SMOOTH",
"133 650 OFFCURVE",
"177 713 OFFCURVE",
"251 713 CURVE SMOOTH",
"315 713 OFFCURVE",
"374 665 OFFCURVE",
"374 511 CURVE SMOOTH",
"374 488 LINE",
"426 488 LINE",
"426 740 LINE",
"394 740 LINE",
"394 649 LINE",
"386 649 LINE",
"375 692 OFFCURVE",
"332 750 OFFCURVE",
"258 750 CURVE SMOOTH",
"117 750 OFFCURVE",
"49 560 OFFCURVE",
"49 368 CURVE SMOOTH",
"49 158 OFFCURVE",
"130 -10 OFFCURVE",
"249 -10 CURVE SMOOTH"
);
}
);
width = 500;
}
);
unicode = 0047;
},
{
color = 6;
glyphname = I;
layers = (
{
anchors = (
{
name = bottom;
position = "{250, 0}";
},
{
name = ogonek;
position = "{241, 0}";
},
{
name = top;
position = "{250, 740}";
},
{
name = topleft;
position = "{20, 740}";
}
);
layerId = "94EC0173-ED25-4379-B549-8ECC2838F2C2";
paths = (
{
closed = 1;
nodes = (
"450 0 LINE",
"450 34 LINE",
"286 34 LINE",
"286 706 LINE",
"450 706 LINE",
"450 740 LINE",
"52 740 LINE",
"52 706 LINE",
"216 706 LINE",
"216 34 LINE",
"52 34 LINE",
"52 0 LINE"
);
}
);
width = 500;
}
);
unicode = 0049;
},
{
color = 3;
glyphname = J;
layers = (
{
components = (
{
alignment = -1;
name = "stem-upper";
transform = "{1, 0, 0, 0.75676, 57, 180}";
}
);
layerId = "94EC0173-ED25-4379-B549-8ECC2838F2C2";
paths = (
{
closed = 1;
nodes = (
"315 178 LINE SMOOTH",
"315 63 OFFCURVE",
"255 12 OFFCURVE",
"171 19 CURVE",
"145 76 LINE SMOOTH",
"139 90 OFFCURVE",
"124 124 OFFCURVE",
"85 124 CURVE SMOOTH",
"56 124 OFFCURVE",
"40 104 OFFCURVE",
"40 78 CURVE SMOOTH",
"40 31 OFFCURVE",
"92 -10 OFFCURVE",
"181 -10 CURVE SMOOTH",
"299 -10 OFFCURVE",
"385 61 OFFCURVE",
"385 189 CURVE SMOOTH",
"385 223 LINE",
"315 223 LINE"
);
},
{
closed = 1;
nodes = (
"489 706 LINE",
"489 740 LINE",
"143 740 LINE",
"143 706 LINE",
"315 706 LINE",
"385 706 LINE"
);
}
);
width = 500;
}
);
unicode = 004A;
},
{
color = 6;
glyphname = K;
layers = (
{
anchors = (
{
name = bottom;
position = "{250, 0}";
},
{
name = top;
position = "{250, 740}";
}
);
layerId = "94EC0173-ED25-4379-B549-8ECC2838F2C2";
paths = (
{
closed = 1;
nodes = (
"231 0 LINE",
"231 34 LINE",
"135 34 LINE",
"135 706 LINE",
"201 706 LINE",
"201 740 LINE",
"1 740 LINE",
"1 706 LINE",
"67 706 LINE",
"67 34 LINE",
"1 34 LINE",
"1 0 LINE"
);
},
{
closed = 1;
nodes = (
"511 0 LINE",
"511 34 LINE",
"442 34 LINE",
"365 34 LINE",
"287 34 LINE",
"287 0 LINE"
);
},
{
closed = 1;
nodes = (
"456 0 LINE",
"235 466 LINE",
"194 396 LINE",
"382 0 LINE"
);
},
{
closed = 1;
nodes = (
"421 737 LINE",
"382 740 LINE",
"70 260 LINE",
"109 257 LINE"
);
},
{
closed = 1;
nodes = (
"354 706 LINE",
"392 706 LINE",
"485 706 LINE",
"485 740 LINE",
"300 740 LINE",
"300 706 LINE"
);
}
);
width = 500;
}
);
unicode = 004B;
},
{
color = 6;
glyphname = L;
layers = (
{
anchors = (
{
name = bottom;
position = "{250, 0}";
},
{
name = center;
position = "{250, 370}";
},
{
name = top;
position = "{160, 740}";
},
{
name = topright;
position = "{480, 740}";
}
);
layerId = "94EC0173-ED25-4379-B549-8ECC2838F2C2";
paths = (
{
closed = 1;
nodes = (
"185 0 LINE",
"185 740 LINE",
"31 740 LINE",
"31 706 LINE",
"115 706 LINE",
"115 34 LINE",
"31 34 LINE",
"31 0 LINE"
);
},
{
closed = 1;
nodes = (
"452 0 LINE",
"452 234 LINE",
"424 234 LINE",
"409 108 LINE SMOOTH",
"403 59 OFFCURVE",
"375 35 OFFCURVE",
"327 35 CURVE SMOOTH",
"169 35 LINE",
"169 0 LINE"
);
},
{
closed = 1;
nodes = (
"115 706 LINE",
"185 706 LINE",
"269 706 LINE",
"269 740 LINE",
"31 740 LINE",
"31 706 LINE"
);
}
);
width = 500;
}
);
unicode = 004C;
},
{
color = 3;
glyphname = Lslash;
layers = (
{
components = (
{
name = L;
}
);
layerId = "94EC0173-ED25-4379-B549-8ECC2838F2C2";
paths = (
{
closed = 1;
nodes = (
"41 325 LINE",
"41 291 LINE",
"328 461 LINE",
"328 495 LINE"
);
}
);
width = 500;
}
);
unicode = 0141;
},
{
color = 6;
glyphname = M;
layers = (
{
guideLines = (
{
angle = -76.9418;
position = "{99, 740}";
},
{
angle = 76.9418;
position = "{-913, 0}";
}
);
layerId = "94EC0173-ED25-4379-B549-8ECC2838F2C2";
paths = (
{
closed = 1;
nodes = (
"248 0 LINE",
"370 526 LINE",
"370 34 LINE",
"316 34 LINE",
"316 0 LINE",
"502 0 LINE",
"502 34 LINE",
"438 34 LINE",
"438 706 LINE",
"502 706 LINE",
"502 740 LINE",
"389 740 LINE",
"217 0 LINE"
);
},
{
closed = 1;
nodes = (
"159 0 LINE",
"159 34 LINE",
"95 34 LINE",
"95 526 LINE",
"217 0 LINE",
"259 51 LINE",
"99 740 LINE",
"1 740 LINE",
"1 706 LINE",
"61 706 LINE",
"61 34 LINE",
"1 34 LINE",
"1 0 LINE"
);
}
);
width = 500;
}
);
unicode = 004D;
},
{
color = 6;
glyphname = N;
layers = (
{
anchors = (
{
name = bottom;
position = "{250, 0}";
},
{
name = top;
position = "{250, 740}";
}
);
guideLines = (
{
angle = -64.6708;
position = "{139, 740}";
}
);
layerId = "94EC0173-ED25-4379-B549-8ECC2838F2C2";
paths = (
{
closed = 1;
nodes = (
"414 -10 LINE",
"414 706 LINE",
"478 706 LINE",
"478 740 LINE",
"296 740 LINE",
"296 706 LINE",
"380 706 LINE",
"380 176 LINE",
"139 740 LINE",
"37 740 LINE",
"37 706 LINE",
"101 706 LINE",
"101 34 LINE",
"37 34 LINE",
"37 0 LINE",
"219 0 LINE",
"219 34 LINE",
"135 34 LINE",
"135 586 LINE",
"390 -10 LINE"
);
}
);
width = 500;
}
);
unicode = 004E;
},
{
color = 6;
glyphname = Eng;
layers = (
{
anchors = (
{
name = bottom;
position = "{250, 0}";
},
{
name = top;
position = "{250, 740}";
}
);
guideLines = (
{
angle = 270;
position = "{380, 441}";
}
);
layerId = "94EC0173-ED25-4379-B549-8ECC2838F2C2";
paths = (
{
closed = 1;
nodes = (
"389 -180 OFFCURVE",
"414 -72 OFFCURVE",
"414 8 CURVE SMOOTH",
"414 706 LINE",
"478 706 LINE",
"478 740 LINE",
"296 740 LINE",
"296 706 LINE",
"380 706 LINE",
"380 176 LINE",
"139 740 LINE",
"37 740 LINE",
"37 706 LINE",
"101 706 LINE",
"101 32 LINE",
"37 32 LINE",
"37 0 LINE",
"219 0 LINE",
"219 32 LINE",
"135 32 LINE",
"135 586 LINE",
"380 13 LINE",
"380 -12 LINE SMOOTH",
"380 -87 OFFCURVE",
"346 -161 OFFCURVE",
"262 -154 CURVE",
"244 -104 LINE SMOOTH",
"239 -89 OFFCURVE",
"223 -58 OFFCURVE",
"187 -58 CURVE SMOOTH",
"160 -58 OFFCURVE",
"141 -74 OFFCURVE",
"141 -104 CURVE SMOOTH",
"141 -147 OFFCURVE",
"187 -180 OFFCURVE",
"259 -180 CURVE SMOOTH"
);
}
);
width = 500;
}
);
unicode = 014A;
},
{
color = 6;
glyphname = O;
layers = (
{
anchors = (
{
name = bottom;
position = "{250, 0}";
},
{
name = center;
position = "{250, 370}";
},
{
name = ogonek;
position = "{450, 10}";
},
{
name = top;
position = "{250, 740}";
},
{
name = topleft;
position = "{20, 740}";
},
{
name = topright;
position = "{367, 687}";
}
);
guideLines = (
{
position = "{437, 687}";
}
);
layerId = "94EC0173-ED25-4379-B549-8ECC2838F2C2";
paths = (
{
closed = 1;
nodes = (
"387 -10 OFFCURVE",
"455 180 OFFCURVE",
"455 370 CURVE SMOOTH",
"455 560 OFFCURVE",
"387 750 OFFCURVE",
"250 750 CURVE SMOOTH",
"114 750 OFFCURVE",
"45 560 OFFCURVE",
"45 370 CURVE SMOOTH",
"45 180 OFFCURVE",
"114 -10 OFFCURVE",
"250 -10 CURVE SMOOTH"
);
},
{
closed = 1;
nodes = (
"171 27 OFFCURVE",
"129 90 OFFCURVE",
"129 205 CURVE SMOOTH",
"129 535 LINE SMOOTH",
"129 650 OFFCURVE",
"172 713 OFFCURVE",
"250 713 CURVE SMOOTH",
"328 713 OFFCURVE",
"371 650 OFFCURVE",
"371 535 CURVE SMOOTH",
"371 205 LINE SMOOTH",
"371 90 OFFCURVE",
"328 27 OFFCURVE",
"250 27 CURVE SMOOTH"
);
}
);
width = 500;
}
);
unicode = 004F;
},
{
color = 3;
glyphname = Oslash;
layers = (
{
components = (
{
alignment = -1;
name = O;
transform = "{1, 0, 0, 1, 0, -10}";
}
);
layerId = "94EC0173-ED25-4379-B549-8ECC2838F2C2";
paths = (
{
closed = 1;
nodes = (
"396.762 759.172 LINE",
"366.328 769.06 LINE",
"103.849 -38.767 LINE",
"134.283 -48.656 LINE"
);
}
);
width = 500;
}
);
unicode = 00D8;
},
{
color = 6;
glyphname = OE;
layers = (
{
layerId = "94EC0173-ED25-4379-B549-8ECC2838F2C2";
paths = (
{
closed = 1;
nodes = (
"462 0 LINE",
"462 234 LINE",
"434 234 LINE",
"419 108 LINE SMOOTH",
"413 59 OFFCURVE",
"383 35 OFFCURVE",
"336 35 CURVE SMOOTH",
"294 35 LINE",
"294 387 LINE",
"338 387 LINE",
"360 260 LINE",
"385 260 LINE",
"385 548 LINE",
"360 548 LINE",
"338 421 LINE",
"294 421 LINE",
"295 705 LINE",
"334 705 LINE SMOOTH",
"380 705 OFFCURVE",
"411 681 OFFCURVE",
"417 633 CURVE SMOOTH",
"431 526 LINE",
"459 526 LINE",
"458 740 LINE",
"217 740 LINE SMOOTH",
"88 740 OFFCURVE",
"26 557 OFFCURVE",
"26 374 CURVE SMOOTH",
"26 187 OFFCURVE",
"90 0 OFFCURVE",
"218 0 CURVE SMOOTH"
);
},
{
closed = 1;
nodes = (
"171 32 OFFCURVE",
"106 46 OFFCURVE",
"106 193 CURVE SMOOTH",
"106 547 LINE SMOOTH",
"106 694 OFFCURVE",
"181 708 OFFCURVE",
"217 708 CURVE SMOOTH",
"233 708 LINE",
"233 32 LINE",
"218 32 LINE SMOOTH"
);
}
);
width = 500;
}
);
unicode = 0152;
},
{
color = 6;
glyphname = P;
layers = (
{
layerId = "94EC0173-ED25-4379-B549-8ECC2838F2C2";
paths = (
{
closed = 1;
nodes = (
"334 0 LINE",
"334 34 LINE",
"172 34 LINE",
"172 290 LINE",
"207 290 LINE SMOOTH",
"371 290 OFFCURVE",
"453 403 OFFCURVE",
"453 515 CURVE SMOOTH",
"453 628 OFFCURVE",
"371 740 OFFCURVE",
"207 740 CURVE SMOOTH",
"18 740 LINE",
"18 706 LINE",
"102 706 LINE",
"102 34 LINE",
"18 34 LINE",
"18 0 LINE"
);
},
{
closed = 1;
nodes = (
"172 703 LINE",
"230 703 LINE SMOOTH",
"319 703 OFFCURVE",
"368 654 OFFCURVE",
"368 565 CURVE SMOOTH",
"368 465 LINE SMOOTH",
"368 376 OFFCURVE",
"319 327 OFFCURVE",
"230 327 CURVE SMOOTH",
"172 327 LINE"
);
}
);
width = 500;
}
);
unicode = 0050;
},
{
color = 6;
glyphname = Thorn;
layers = (
{
layerId = "94EC0173-ED25-4379-B549-8ECC2838F2C2";
paths = (
{
closed = 1;
nodes = (
"304 0 LINE",
"304 34 LINE",
"172 34 LINE",
"172 145 LINE",
"207 145 LINE SMOOTH",
"371 145 OFFCURVE",
"453 258 OFFCURVE",
"453 370 CURVE SMOOTH",
"453 483 OFFCURVE",
"371 595 OFFCURVE",
"207 595 CURVE SMOOTH",
"172 595 LINE",
"172 706 LINE",
"304 706 LINE",
"304 740 LINE",
"18 740 LINE",
"18 706 LINE",
"102 706 LINE",
"102 34 LINE",
"18 34 LINE",
"18 0 LINE"
);
},
{
closed = 1;
nodes = (
"172 558 LINE",
"230 558 LINE SMOOTH",
"319 558 OFFCURVE",
"368 509 OFFCURVE",
"368 420 CURVE SMOOTH",
"368 320 LINE SMOOTH",
"368 231 OFFCURVE",
"319 182 OFFCURVE",
"230 182 CURVE SMOOTH",
"172 182 LINE"
);
}
);
width = 500;
}
);
unicode = 00DE;
},
{
color = 3;
glyphname = Q;
layers = (
{
components = (
{
locked = 1;
name = O;
}
);
guideLines = (
{
angle = 90;
position = "{250, -21}";
}
);
layerId = "94EC0173-ED25-4379-B549-8ECC2838F2C2";
paths = (
{
closed = 1;
nodes = (
"420 -180 OFFCURVE",
"439 -123 OFFCURVE",
"439 -78 CURVE SMOOTH",
"439 0 LINE",
"409 0 LINE",
"409 -78 LINE SMOOTH",
"409 -93 OFFCURVE",
"409 -136 OFFCURVE",
"370 -136 CURVE SMOOTH",
"329 -136 OFFCURVE",
"329 -90 OFFCURVE",
"329 -72 CURVE SMOOTH",
"329 84 LINE SMOOTH",
"329 150 OFFCURVE",
"303 187 OFFCURVE",
"255 187 CURVE SMOOTH",
"209 187 OFFCURVE",
"182 153 OFFCURVE",
"182 99 CURVE SMOOTH",
"182 40 OFFCURVE",
"215 18 OFFCURVE",
"250 18 CURVE",
"250 27 LINE",
"230 27 OFFCURVE",
"204 40 OFFCURVE",
"204 94 CURVE SMOOTH",
"204 127 OFFCURVE",
"214 147 OFFCURVE",
"238 147 CURVE SMOOTH",
"272 147 OFFCURVE",
"272 104 OFFCURVE",
"272 95 CURVE SMOOTH",
"272 -72 LINE SMOOTH",
"272 -142 OFFCURVE",
"302 -180 OFFCURVE",
"355 -180 CURVE SMOOTH"
);
}
);
width = 500;
}
);
unicode = 0051;
},
{
color = 6;
glyphname = R;
layers = (
{
anchors = (
{
name = bottom;
position = "{250, 0}";
},
{
name = top;
position = "{250, 740}";
}
);
layerId = "94EC0173-ED25-4379-B549-8ECC2838F2C2";
paths = (
{
closed = 1;
nodes = (
"477 -10 OFFCURVE",
"495 47 OFFCURVE",
"495 92 CURVE SMOOTH",
"495 268 LINE",
"465 268 LINE",
"465 95 LINE SMOOTH",
"465 67 OFFCURVE",
"458 37 OFFCURVE",
"428 37 CURVE SMOOTH",
"391 37 OFFCURVE",
"391 80 OFFCURVE",
"391 101 CURVE SMOOTH",
"391 277 LINE SMOOTH",
"391 346 OFFCURVE",
"359 372 OFFCURVE",
"301 384 CURVE SMOOTH",
"296 385 LINE",
"296 391 LINE",
"301 392 LINE SMOOTH",
"391 410 OFFCURVE",
"451 469 OFFCURVE",
"451 559 CURVE SMOOTH",
"451 641 OFFCURVE",
"397 740 OFFCURVE",
"248 740 CURVE SMOOTH",
"18 740 LINE",
"18 706 LINE",
"102 706 LINE",
"102 34 LINE",
"18 34 LINE",
"18 0 LINE",
"255 0 LINE",
"255 34 LINE",
"172 34 LINE",
"172 375 LINE",
"220 375 LINE SMOOTH",
"301 375 OFFCURVE",
"322 350 OFFCURVE",
"322 277 CURVE SMOOTH",
"322 93 LINE SMOOTH",
"322 32 OFFCURVE",
"353 -10 OFFCURVE",
"409 -10 CURVE SMOOTH"
);
},
{
closed = 1;
nodes = (
"172 708 LINE",
"231 708 LINE SMOOTH",
"320 708 OFFCURVE",
"369 669 OFFCURVE",
"369 580 CURVE SMOOTH",
"369 525 LINE SMOOTH",
"369 436 OFFCURVE",
"320 407 OFFCURVE",
"231 407 CURVE SMOOTH",
"172 407 LINE"
);
}
);
width = 500;
}
);
unicode = 0052;
},
{
color = 6;
glyphname = S;
layers = (
{
anchors = (
{
name = bottom;
position = "{250, 0}";
},
{
name = top;
position = "{250, 740}";
}
);
layerId = "94EC0173-ED25-4379-B549-8ECC2838F2C2";
paths = (
{
closed = 1;
nodes = (
"363 -10 OFFCURVE",
"441 56 OFFCURVE",
"441 160 CURVE SMOOTH",
"441 359 OFFCURVE",
"154 461 OFFCURVE",
"154 622 CURVE SMOOTH",
"154 677 OFFCURVE",
"187 717 OFFCURVE",
"242 717 CURVE SMOOTH",
"323 717 OFFCURVE",
"371 632 OFFCURVE",
"371 524 CURVE SMOOTH",
"371 492 LINE",
"423 492 LINE",
"423 740 LINE",
"391 740 LINE",
"391 639 LINE",
"383 639 LINE",
"371 677 OFFCURVE",
"333 750 OFFCURVE",
"240 750 CURVE SMOOTH",
"156 750 OFFCURVE",
"87 692 OFFCURVE",
"87 599 CURVE SMOOTH",
"87 410 OFFCURVE",
"374 319 OFFCURVE",
"374 136 CURVE SMOOTH",
"374 65 OFFCURVE",
"330 24 OFFCURVE",
"266 24 CURVE SMOOTH",
"134 24 OFFCURVE",
"124 198 OFFCURVE",
"124 256 CURVE SMOOTH",
"124 295 LINE",
"72 295 LINE",
"72 0 LINE",
"104 0 LINE",
"104 133 LINE",
"112 133 LINE",
"118 93 OFFCURVE",
"153 -10 OFFCURVE",
"269 -10 CURVE SMOOTH"
);
}
);
width = 500;
}
);
unicode = 0053;
},
{
color = 6;
glyphname = Germandbls;
layers = (
{
layerId = "94EC0173-ED25-4379-B549-8ECC2838F2C2";
paths = (
{
closed = 1;
nodes = (
"467 -10 OFFCURVE",
"533 48 OFFCURVE",
"533 134 CURVE SMOOTH",
"533 297 OFFCURVE",
"293 386 OFFCURVE",
"293 534 CURVE SMOOTH",
"293 620 OFFCURVE",
"380 645 OFFCURVE",
"445 640 CURVE",
"445 692 OFFCURVE",
"416 773 OFFCURVE",
"281 773 CURVE SMOOTH",
"152 773 OFFCURVE",
"82 699 OFFCURVE",
"82 565 CURVE SMOOTH",
"82 540 LINE",
"-12 530 LINE",
"-12 508 LINE",
"82 508 LINE",
"82 38 LINE",
"-35 28 LINE",
"-35 0 LINE",
"150 0 LINE",
"150 585 LINE SMOOTH",
"150 700 OFFCURVE",
"202 747 OFFCURVE",
"273 747 CURVE SMOOTH",
"340 747 OFFCURVE",
"374 706 OFFCURVE",
"374 652 CURVE",
"310 651 OFFCURVE",
"226 612 OFFCURVE",
"226 511 CURVE SMOOTH",
"226 334 OFFCURVE",
"466 259 OFFCURVE",
"466 110 CURVE SMOOTH",
"466 51 OFFCURVE",
"429 24 OFFCURVE",
"381 24 CURVE SMOOTH",
"268 24 OFFCURVE",
"256 179 OFFCURVE",
"256 206 CURVE SMOOTH",
"256 215 LINE",
"208 215 LINE",
"208 0 LINE",
"236 0 LINE",
"236 133 LINE",
"244 133 LINE",
"250 93 OFFCURVE",
"285 -10 OFFCURVE",
"388 -10 CURVE SMOOTH"
);
}
);
width = 500;
}
);
unicode = 1E9E;
},
{
color = 6;
glyphname = T;
layers = (
{
anchors = (
{
name = bottom;
position = "{250, 0}";
},
{
name = center;
position = "{250, 370}";
},
{
name = top;
position = "{250, 740}";
}
);
layerId = "94EC0173-ED25-4379-B549-8ECC2838F2C2";
paths = (
{
closed = 1;
nodes = (
"57 526 LINE",
"71 633 LINE SMOOTH",
"77 681 OFFCURVE",
"106 705 OFFCURVE",
"154 705 CURVE SMOOTH",
"342 705 LINE SMOOTH",
"390 705 OFFCURVE",
"419 681 OFFCURVE",
"425 633 CURVE SMOOTH",
"439 526 LINE",
"467 526 LINE",
"467 750 LINE",
"449 750 LINE",
"419 740 LINE",
"77 740 LINE",
"47 750 LINE",
"29 750 LINE",
"29 526 LINE"
);
},
{
closed = 1;
nodes = (
"422 0 LINE",
"422 32 LINE",
"283 32 LINE",
"283 146 LINE",
"213 146 LINE",
"213 32 LINE",
"74 32 LINE",
"74 0 LINE"
);
},
{
closed = 1;
nodes = (
"283 0 LINE",
"283 710 LINE",
"213 710 LINE",
"213 0 LINE"
);
}
);
width = 500;
}
);
unicode = 0054;
},
{
color = 6;
glyphname = U;
layers = (
{
anchors = (
{
name = bottom;
position = "{250, 0}";
},
{
name = ogonek;
position = "{293, 0}";
},
{
name = top;
position = "{250, 740}";
},
{
name = topright;
position = "{415, 740}";
}
);
layerId = "94EC0173-ED25-4379-B549-8ECC2838F2C2";
paths = (
{
closed = 1;
nodes = (
"358 -10 OFFCURVE",
"415 52 OFFCURVE",
"415 165 CURVE SMOOTH",
"415 740 LINE",
"381 740 LINE",
"381 164 LINE SMOOTH",
"381 78 OFFCURVE",
"342 31 OFFCURVE",
"270 31 CURVE SMOOTH",
"198 31 OFFCURVE",
"159 78 OFFCURVE",
"159 164 CURVE SMOOTH",
"159 740 LINE",
"89 740 LINE",
"89 165 LINE SMOOTH",
"89 52 OFFCURVE",
"146 -10 OFFCURVE",
"252 -10 CURVE SMOOTH"
);
},
{
closed = 1;
nodes = (
"89 706 LINE",
"159 706 LINE",
"233 706 LINE",
"233 740 LINE",
"25 740 LINE",
"25 706 LINE"
);
},
{
closed = 1;
nodes = (
"381 706 LINE",
"415 706 LINE",
"474 706 LINE",
"474 740 LINE",
"322 740 LINE",
"322 706 LINE"
);
}
);
width = 500;
}
);
unicode = 0055;
},
{
color = 3;
glyphname = Uhorn;
layers = (
{
anchors = (
{
name = bottom;
position = "{250, 0}";
},
{
name = ogonek;
position = "{450, 10}";
},
{
name = top;
position = "{250, 740}";
},
{
name = topright;
position = "{415, 740}";
}
);
components = (
{
name = horncomb;
transform = "{1, 0, 0, 1, 40, 232}";
}
);
layerId = "94EC0173-ED25-4379-B549-8ECC2838F2C2";
paths = (
{
closed = 1;
nodes = (
"358 -10 OFFCURVE",
"415 52 OFFCURVE",
"415 165 CURVE SMOOTH",
"415 740 LINE",
"381 740 LINE",
"381 164 LINE SMOOTH",
"381 78 OFFCURVE",
"342 31 OFFCURVE",
"270 31 CURVE SMOOTH",
"198 31 OFFCURVE",
"159 78 OFFCURVE",
"159 164 CURVE SMOOTH",
"159 740 LINE",
"89 740 LINE",
"89 165 LINE SMOOTH",
"89 52 OFFCURVE",
"146 -10 OFFCURVE",
"252 -10 CURVE SMOOTH"
);
},
{
closed = 1;
nodes = (
"159 706 LINE",
"233 706 LINE",
"233 740 LINE",
"25 740 LINE",
"25 706 LINE",
"89 706 LINE"
);
},
{
closed = 1;
nodes = (
"415 706 LINE",
"415 740 LINE",
"322 740 LINE",
"322 706 LINE",
"381 706 LINE"
);
}
);
width = 500;
}
);
unicode = 01AF;
},
{
color = 6;
glyphname = V;
layers = (
{
guideLines = (
{
angle = -76.1826;
position = "{112, 740}";
},
{
angle = 76.156;
position = "{404, 702}";
}
);
layerId = "94EC0173-ED25-4379-B549-8ECC2838F2C2";
paths = (
{
closed = 1;
nodes = (
"266 0 LINE",
"439 706 LINE",
"492 706 LINE",
"492 740 LINE",
"334 740 LINE",
"334 706 LINE",
"404 706 LINE",
"263 128 LINE",
"124 706 LINE",
"225 706 LINE",
"225 740 LINE",
"-11 740 LINE",
"-11 706 LINE",
"53 706 LINE",
"226 0 LINE"
);
}
);
width = 500;
}
);
unicode = 0056;
},
{
color = 6;
glyphname = W;
layers = (
{
anchors = (
{
name = bottom;
position = "{250, 0}";
},
{
name = top;
position = "{250, 740}";
}
);
layerId = "94EC0173-ED25-4379-B549-8ECC2838F2C2";
paths = (
{
closed = 1;
nodes = (
"358 0 LINE",
"480 740 LINE",
"447 740 LINE",
"325 0 LINE"
);
},
{
closed = 1;
nodes = (
"169 0 LINE",
"185 114 LINE",
"99 740 LINE",
"34 740 LINE",
"136 0 LINE"
);
},
{
closed = 1;
nodes = (
"174 0 LINE",
"286 677 LINE",
"263 740 LINE",
"141 0 LINE"
);
},
{
closed = 1;
nodes = (
"353 0 LINE",
"369 114 LINE",
"283 740 LINE",
"218 740 LINE",
"320 0 LINE"
);
},
{
closed = 1;
nodes = (
"39 706 LINE",
"102 706 LINE",
"153 706 LINE",
"153 740 LINE",
"-21 740 LINE",
"-21 706 LINE"
);
},
{
closed = 1;
nodes = (
"441 706 LINE",
"476 706 LINE",
"524 706 LINE",
"524 740 LINE",
"398 740 LINE",
"398 706 LINE"
);
}
);
width = 500;
}
);
unicode = 0057;
},
{
color = 6;
glyphname = X;
layers = (
{
layerId = "94EC0173-ED25-4379-B549-8ECC2838F2C2";
paths = (
{
closed = 1;
nodes = (
"483 0 LINE",
"483 34 LINE",
"412 34 LINE",
"153 706 LINE",
"223 706 LINE",
"223 740 LINE",
"10 740 LINE",
"10 706 LINE",
"81 706 LINE",
"340 34 LINE",
"263 34 LINE",
"263 0 LINE"
);
},
{
closed = 1;
nodes = (
"179 0 LINE",
"179 34 LINE",
"119 34 LINE",
"257 393 LINE",
"225 393 LINE",
"87 34 LINE",
"16 34 LINE",
"16 0 LINE"
);
},
{
closed = 1;
nodes = (
"267 393 LINE",
"387 706 LINE",
"458 706 LINE",
"458 740 LINE",
"300 740 LINE",
"300 706 LINE",
"355 706 LINE",
"235 393 LINE"
);
}
);
width = 500;
}
);
unicode = 0058;
},
{
color = 3;
glyphname = Y;
layers = (
{
anchors = (
{
name = bottom;
position = "{250, 0}";
},
{
name = top;
position = "{250, 740}";
},
{
name = topleft;
position = "{20, 740}";
}
);
components = (
{
alignment = -1;
name = "stem-upper";
transform = "{1, 0, 0, 0.4802, -45, 0}";
}
);
layerId = "94EC0173-ED25-4379-B549-8ECC2838F2C2";
paths = (
{
closed = 1;
nodes = (
"226 280 LINE",
"259 280 LINE",
"278 321 LINE",
"107 740 LINE",
"39 740 LINE"
);
},
{
closed = 1;
nodes = (
"-26 706 LINE",
"51 706 LINE",
"119 706 LINE",
"220 706 LINE",
"220 740 LINE",
"-26 740 LINE"
);
},
{
closed = 1;
nodes = (
"408 740 LINE",
"235 280 LINE",
"270 280 LINE",
"443 740 LINE"
);
},
{
closed = 1;
nodes = (
"329 740 LINE",
"329 706 LINE",
"399 706 LINE",
"434 706 LINE",
"497 706 LINE",
"497 740 LINE"
);
},
{
closed = 1;
nodes = (
"427 0 LINE",
"427 34 LINE",
"283 34 LINE",
"283 146 LINE",
"213 146 LINE",
"213 34 LINE",
"69 34 LINE",
"69 0 LINE"
);
}
);
width = 500;
}
);
unicode = 0059;
},
{
color = 6;
glyphname = Z;
layers = (
{
anchors = (
{
name = bottom;
position = "{250, 0}";
},
{
name = center;
position = "{250, 370}";
},
{
name = top;
position = "{280, 740}";
}
);
layerId = "94EC0173-ED25-4379-B549-8ECC2838F2C2";
paths = (
{
closed = 1;
nodes = (
"124 0 LINE",
"460 720 LINE",
"460 740 LINE",
"397 740 LINE",
"61 20 LINE",
"61 0 LINE"
);
},
{
closed = 1;
nodes = (
"452 0 LINE",
"452 224 LINE",
"424 224 LINE",
"410 107 LINE SMOOTH",
"404 59 OFFCURVE",
"375 35 OFFCURVE",
"327 35 CURVE SMOOTH",
"79 35 LINE",
"79 0 LINE"
);
},
{
closed = 1;
nodes = (
"113 516 LINE",
"127 633 LINE SMOOTH",
"133 681 OFFCURVE",
"162 705 OFFCURVE",
"210 705 CURVE SMOOTH",
"398 705 LINE",
"398 740 LINE",
"85 740 LINE",
"85 516 LINE"
);
}
);
width = 500;
}
);
unicode = 005A;
},
{
color = 6;
glyphname = a;
layers = (
{
anchors = (
{
name = bottom;
position = "{245, 0}";
},
{
name = ogonek;
position = "{363, 0}";
},
{
name = top;
position = "{235, 540}";
}
);
layerId = "94EC0173-ED25-4379-B549-8ECC2838F2C2";
paths = (
{
closed = 1;
nodes = (
"438 -10 OFFCURVE",
"467 42 OFFCURVE",
"474 82 CURVE",
"456 88 LINE",
"451 68 OFFCURVE",
"436 42 OFFCURVE",
"411 42 CURVE SMOOTH",
"392 42 OFFCURVE",
"382 57 OFFCURVE",
"382 84 CURVE SMOOTH",
"382 408 LINE SMOOTH",
"382 477 OFFCURVE",
"345 550 OFFCURVE",
"239 550 CURVE SMOOTH",
"109 550 OFFCURVE",
"48 447 OFFCURVE",
"48 387 CURVE SMOOTH",
"48 356 OFFCURVE",
"65 333 OFFCURVE",
"95 333 CURVE SMOOTH",
"125 333 OFFCURVE",
"141 357 OFFCURVE",
"141 380 CURVE SMOOTH",
"141 405 OFFCURVE",
"125 419 OFFCURVE",
"95 451 CURVE",
"109 478 OFFCURVE",
"148 513 OFFCURVE",
"205 513 CURVE SMOOTH",
"268 513 OFFCURVE",
"314 473 OFFCURVE",
"314 408 CURVE SMOOTH",
"314 77 LINE SMOOTH",
"314 16 OFFCURVE",
"345 -10 OFFCURVE",
"385 -10 CURVE SMOOTH"
);
},
{
closed = 1;
nodes = (
"253 -10 OFFCURVE",
"299 38 OFFCURVE",
"315 74 CURVE",
"315 106 LINE",
"303 75 OFFCURVE",
"267 34 OFFCURVE",
"215 34 CURVE SMOOTH",
"161 34 OFFCURVE",
"127 76 OFFCURVE",
"127 128 CURVE SMOOTH",
"127 195 OFFCURVE",
"173 217 OFFCURVE",
"219 240 CURVE SMOOTH",
"319 289 LINE",
"319 313 LINE",
"212 264 LINE SMOOTH",
"145 233 OFFCURVE",
"66 194 OFFCURVE",
"66 105 CURVE SMOOTH",
"66 41 OFFCURVE",
"111 -10 OFFCURVE",
"184 -10 CURVE SMOOTH"
);
}
);
width = 500;
}
);
unicode = 0061;
},
{
color = 6;
glyphname = ae;
layers = (
{
layerId = "94EC0173-ED25-4379-B549-8ECC2838F2C2";
paths = (
{
closed = 1;
nodes = (
"190 -10 OFFCURVE",
"225 39 OFFCURVE",
"234 76 CURVE",
"247 76 LINE",
"259 39 OFFCURVE",
"299 -10 OFFCURVE",
"365 -10 CURVE SMOOTH",
"445 -10 OFFCURVE",
"480 55 OFFCURVE",
"480 168 CURVE SMOOTH",
"480 193 LINE",
"448 193 LINE",
"448 168 LINE SMOOTH",
"448 46 OFFCURVE",
"404 25 OFFCURVE",
"369 25 CURVE SMOOTH",
"284 25 OFFCURVE",
"284 144 OFFCURVE",
"284 200 CURVE SMOOTH",
"284 324 LINE",
"482 324 LINE",
"483 331 OFFCURVE",
"484 348 OFFCURVE",
"484 367 CURVE SMOOTH",
"484 484 OFFCURVE",
"440 550 OFFCURVE",
"370 550 CURVE SMOOTH",
"330 550 OFFCURVE",
"298 528 OFFCURVE",
"274 494 CURVE",
"261 523 OFFCURVE",
"235 550 OFFCURVE",
"178 550 CURVE SMOOTH",
"77 550 OFFCURVE",
"18 468 OFFCURVE",
"18 408 CURVE SMOOTH",
"18 376 OFFCURVE",
"35 353 OFFCURVE",
"65 353 CURVE SMOOTH",
"95 353 OFFCURVE",
"111 377 OFFCURVE",
"111 400 CURVE SMOOTH",
"111 425 OFFCURVE",
"95 439 OFFCURVE",
"65 471 CURVE",
"77 489 OFFCURVE",
"106 513 OFFCURVE",
"145 513 CURVE SMOOTH",
"216 513 OFFCURVE",
"216 439 OFFCURVE",
"216 425 CURVE SMOOTH",
"216 287 LINE",
"216 276 LINE",
"141 247 LINE SMOOTH",
"90 227 OFFCURVE",
"16 191 OFFCURVE",
"16 103 CURVE SMOOTH",
"16 36 OFFCURVE",
"58 -10 OFFCURVE",
"124 -10 CURVE SMOOTH"
);
},
{
closed = 1;
nodes = (
"109 34 OFFCURVE",
"77 59 OFFCURVE",
"77 117 CURVE SMOOTH",
"77 189 OFFCURVE",
"127 216 OFFCURVE",
"151 226 CURVE SMOOTH",
"216 254 LINE",
"216 246 LINE",
"216 97 LINE",
"212 70 OFFCURVE",
"190 34 OFFCURVE",
"146 34 CURVE SMOOTH"
);
},
{
closed = 1;
nodes = (
"286 473 OFFCURVE",
"319 518 OFFCURVE",
"363 518 CURVE SMOOTH",
"404 518 OFFCURVE",
"424 477 OFFCURVE",
"424 419 CURVE SMOOTH",
"424 350 OFFCURVE",
"396 350 OFFCURVE",
"365 350 CURVE SMOOTH",
"284 350 LINE"
);
}
);
width = 500;
}
);
unicode = 00E6;
},
{
color = 3;
glyphname = b;
layers = (
{
components = (
{
name = "serif-top2";
transform = "{1, 0, 0, 1, -235, 50}";
}
);
layerId = "94EC0173-ED25-4379-B549-8ECC2838F2C2";
paths = (
{
closed = 1;
nodes = (
"132 0 LINE",
"132 85 LINE",
"142 85 LINE",
"154 44 OFFCURVE",
"195 -10 OFFCURVE",
"267 -10 CURVE SMOOTH",
"382 -10 OFFCURVE",
"447 120 OFFCURVE",
"447 288 CURVE SMOOTH",
"447 441 OFFCURVE",
"393 550 OFFCURVE",
"294 550 CURVE SMOOTH",
"230 550 OFFCURVE",
"185 502 OFFCURVE",
"170 465 CURVE",
"167 465 LINE",
"167 652 LINE",
"99 652 LINE",
"99 0 LINE"
);
},
{
closed = 1;
nodes = (
"211 22 OFFCURVE",
"167 59 OFFCURVE",
"167 159 CURVE SMOOTH",
"167 401 LINE",
"172 447 OFFCURVE",
"204 509 OFFCURVE",
"272 509 CURVE SMOOTH",
"323 509 OFFCURVE",
"370 477 OFFCURVE",
"370 396 CURVE SMOOTH",
"370 159 LINE SMOOTH",
"370 68 OFFCURVE",
"330 22 OFFCURVE",
"267 22 CURVE SMOOTH"
);
}
);
width = 500;
}
);
unicode = 0062;
},
{
color = 6;
glyphname = c;
layers = (
{
anchors = (
{
name = bottom;
position = "{283, 0}";
},
{
name = top;
position = "{283, 540}";
}
);
layerId = "94EC0173-ED25-4379-B549-8ECC2838F2C2";
paths = (
{
closed = 1;
nodes = (
"367 -10 OFFCURVE",
"421 67 OFFCURVE",
"434 125 CURVE",
"413 132 LINE",
"401 89 OFFCURVE",
"359 32 OFFCURVE",
"287 32 CURVE SMOOTH",
"211 32 OFFCURVE",
"142 94 OFFCURVE",
"142 220 CURVE SMOOTH",
"142 320 LINE SMOOTH",
"142 443 OFFCURVE",
"196 518 OFFCURVE",
"290 518 CURVE SMOOTH",
"340 518 OFFCURVE",
"377 495 OFFCURVE",
"391 478 CURVE",
"367 437 OFFCURVE",
"343 419 OFFCURVE",
"343 392 CURVE SMOOTH",
"343 367 OFFCURVE",
"364 352 OFFCURVE",
"386 352 CURVE SMOOTH",
"412 352 OFFCURVE",
"441 372 OFFCURVE",
"441 419 CURVE SMOOTH",
"441 493 OFFCURVE",
"371 550 OFFCURVE",
"283 550 CURVE SMOOTH",
"155 550 OFFCURVE",
"68 428 OFFCURVE",
"68 262 CURVE SMOOTH",
"68 101 OFFCURVE",
"151 -10 OFFCURVE",
"269 -10 CURVE SMOOTH"
);
}
);
width = 500;
}
);
unicode = 0063;
},
{
color = 3;
glyphname = d;
layers = (
{
components = (
{
name = "serif-top2";
transform = "{1, 0, 0, 1, -11, 50}";
},
{
alignment = -1;
name = "serif-top-5";
transform = "{-1, 0, 0, -1, 725, 690}";
}
);
guideLines = (
{
angle = 270;
position = "{323, 225}";
}
);
layerId = "94EC0173-ED25-4379-B549-8ECC2838F2C2";
paths = (
{
closed = 1;
nodes = (
"261 -10 OFFCURVE",
"305 38 OFFCURVE",
"320 75 CURVE",
"323 75 LINE",
"323 0 LINE",
"391 63 LINE",
"391 696 LINE",
"323 696 LINE",
"323 504 LINE",
"305 527 OFFCURVE",
"275 550 OFFCURVE",
"228 550 CURVE SMOOTH",
"106 550 OFFCURVE",
"43 412 OFFCURVE",
"43 241 CURVE SMOOTH",
"43 98 OFFCURVE",
"92 -10 OFFCURVE",
"197 -10 CURVE SMOOTH"
);
},
{
closed = 1;
nodes = (
"167 31 OFFCURVE",
"120 63 OFFCURVE",
"120 144 CURVE SMOOTH",
"120 381 LINE SMOOTH",
"120 472 OFFCURVE",
"160 518 OFFCURVE",
"223 518 CURVE SMOOTH",
"279 518 OFFCURVE",
"323 481 OFFCURVE",
"323 381 CURVE SMOOTH",
"323 139 LINE",
"318 93 OFFCURVE",
"286 31 OFFCURVE",
"218 31 CURVE SMOOTH"
);
}
);
width = 500;
}
);
unicode = 0064;
},
{
color = 6;
glyphname = eth;
layers = (
{
layerId = "94EC0173-ED25-4379-B549-8ECC2838F2C2";
paths = (
{
closed = 1;
nodes = (
"340 -10 OFFCURVE",
"459 76 OFFCURVE",
"459 311 CURVE SMOOTH",
"459 590 OFFCURVE",
"272 725 OFFCURVE",
"131 750 CURVE",
"125 728 LINE",
"257 693 OFFCURVE",
"391 562 OFFCURVE",
"391 367 CURVE SMOOTH",
"391 358 LINE",
"383 358 LINE",
"375 421 OFFCURVE",
"328 505 OFFCURVE",
"229 505 CURVE SMOOTH",
"109 505 OFFCURVE",
"41 390 OFFCURVE",
"41 245 CURVE SMOOTH",
"41 79 OFFCURVE",
"128 -10 OFFCURVE",
"235 -10 CURVE SMOOTH"
);
},
{
closed = 1;
nodes = (
"158 25 OFFCURVE",
"109 76 OFFCURVE",
"109 170 CURVE SMOOTH",
"109 325 LINE SMOOTH",
"109 419 OFFCURVE",
"158 473 OFFCURVE",
"230 473 CURVE SMOOTH",
"307 473 OFFCURVE",
"361 419 OFFCURVE",
"361 325 CURVE SMOOTH",
"361 170 LINE SMOOTH",
"361 76 OFFCURVE",
"310 25 OFFCURVE",
"234 25 CURVE SMOOTH"
);
},
{
closed = 1;
nodes = (
"435 670 LINE",
"435 703 LINE",
"145 611 LINE",
"145 578 LINE"
);
}
);
width = 500;
}
);
unicode = 00F0;
},
{
color = 3;
glyphname = dcroat;
layers = (
{
components = (
{
name = "serif-top-5";
transform = "{-1, 0, 0, -1, 725, 690}";
},
{
alignment = -1;
name = crossbar;
transform = "{1.06511, 0, 0, 0.9, 75, 352}";
}
);
layerId = "94EC0173-ED25-4379-B549-8ECC2838F2C2";
paths = (
{
closed = 1;
nodes = (
"261 -10 OFFCURVE",
"305 38 OFFCURVE",
"320 75 CURVE",
"323 75 LINE",
"323 0 LINE",
"391 63 LINE",
"391 589 LINE",
"323 589 LINE",
"323 504 LINE",
"305 527 OFFCURVE",
"275 550 OFFCURVE",
"228 550 CURVE SMOOTH",
"106 550 OFFCURVE",
"43 412 OFFCURVE",
"43 241 CURVE SMOOTH",
"43 98 OFFCURVE",
"92 -10 OFFCURVE",
"197 -10 CURVE SMOOTH"
);
},
{
closed = 1;
nodes = (
"167 31 OFFCURVE",
"120 63 OFFCURVE",
"120 144 CURVE SMOOTH",
"120 381 LINE SMOOTH",
"120 472 OFFCURVE",
"160 518 OFFCURVE",
"223 518 CURVE SMOOTH",
"279 518 OFFCURVE",
"323 481 OFFCURVE",
"323 381 CURVE SMOOTH",
"323 139 LINE",
"318 93 OFFCURVE",
"286 31 OFFCURVE",
"218 31 CURVE SMOOTH"
);
},
{
closed = 1;
nodes = (
"323 678 LINE",
"323 584 LINE",
"391 584 LINE",
"391 740 LINE",
"367 740 LINE",
"323 715 LINE",
"323 702 LINE",
"323 678 LINE"
);
},
{
closed = 1;
nodes = (
"323 678 LINE",
"323 584 LINE",
"391 584 LINE",
"391 740 LINE",
"367 740 LINE",
"323 715 LINE",
"261 702 LINE",
"261 678 LINE"
);
}
);
width = 500;
}
);
unicode = 0111;
},
{
color = 6;
glyphname = e;
layers = (
{
anchors = (
{
name = bottom;
position = "{250, 0}";
},
{
name = ogonek;
position = "{308, 0}";
},
{
name = top;
position = "{269, 540}";
}
);
guideLines = (
{
angle = 90;
position = "{260, 233}";
}
);
layerId = "94EC0173-ED25-4379-B549-8ECC2838F2C2";
paths = (
{
closed = 1;
nodes = (
"374 -10 OFFCURVE",
"429 67 OFFCURVE",
"442 125 CURVE",
"421 132 LINE",
"409 89 OFFCURVE",
"366 32 OFFCURVE",
"291 32 CURVE SMOOTH",
"210 32 OFFCURVE",
"135 94 OFFCURVE",
"135 220 CURVE SMOOTH",
"135 320 LINE SMOOTH",
"135 432 OFFCURVE",
"183 518 OFFCURVE",
"270 518 CURVE SMOOTH",
"334 518 OFFCURVE",
"382 472 OFFCURVE",
"382 390 CURVE SMOOTH",
"382 330 OFFCURVE",
"356 330 OFFCURVE",
"335 330 CURVE SMOOTH",
"107 330 LINE",
"107 304 LINE",
"446 304 LINE",
"447 312 OFFCURVE",
"448 328 OFFCURVE",
"448 345 CURVE SMOOTH",
"448 474 OFFCURVE",
"377 550 OFFCURVE",
"272 550 CURVE SMOOTH",
"128 550 OFFCURVE",
"61 408 OFFCURVE",
"61 265 CURVE SMOOTH",
"61 100 OFFCURVE",
"151 -10 OFFCURVE",
"274 -10 CURVE SMOOTH"
);
}
);
width = 500;
}
);
unicode = 0065;
},
{
color = 3;
glyphname = f;
layers = (
{
components = (
{
alignment = -1;
name = "stem-lower";
transform = "{1, 0, 0, 0.76415, -77, 0}";
}
);
layerId = "94EC0173-ED25-4379-B549-8ECC2838F2C2";
paths = (
{
closed = 1;
nodes = (
"65 34 LINE",
"65 0 LINE",
"439 0 LINE",
"439 34 LINE",
"250 34 LINE",
"182 34 LINE"
);
},
{
closed = 1;
nodes = (
"422 697 LINE SMOOTH",
"430 683 OFFCURVE",
"448 651 OFFCURVE",
"485 651 CURVE SMOOTH",
"512 651 OFFCURVE",
"525 669 OFFCURVE",
"525 694 CURVE SMOOTH",
"525 743 OFFCURVE",
"468 773 OFFCURVE",
"392 773 CURVE SMOOTH",
"249 773 OFFCURVE",
"182 684 OFFCURVE",
"182 565 CURVE SMOOTH",
"182 540 LINE",
"68 530 LINE",
"68 508 LINE",
"484 508 LINE",
"484 540 LINE",
"250 540 LINE",
"250 585 LINE SMOOTH",
"250 700 OFFCURVE",
"310 754 OFFCURVE",
"394 747 CURVE"
);
}
);
width = 500;
}
);
unicode = 0066;
},
{
color = 6;
glyphname = g;
layers = (
{
guideLines = (
{
position = "{159, -159}";
},
{
angle = 175.3894;
position = "{181, 50}";
},
{
angle = 175.3893;
position = "{234, 115}";
}
);
layerId = "94EC0173-ED25-4379-B549-8ECC2838F2C2";
paths = (
{
closed = 1;
nodes = (
"364 -190 OFFCURVE",
"455 -126 OFFCURVE",
"455 -25 CURVE SMOOTH",
"455 62 OFFCURVE",
"386 113 OFFCURVE",
"300 120 CURVE SMOOTH",
"172 130 LINE SMOOTH",
"146 132 OFFCURVE",
"86 138 OFFCURVE",
"86 180 CURVE SMOOTH",
"86 208 OFFCURVE",
"113 225 OFFCURVE",
"134 238 CURVE SMOOTH",
"154 250 LINE",
"143 267 LINE",
"125 256 LINE SMOOTH",
"99 240 OFFCURVE",
"41 212 OFFCURVE",
"41 150 CURVE SMOOTH",
"41 104 OFFCURVE",
"74 71 OFFCURVE",
"141 65 CURVE",
"141 61 LINE",
"96 51 OFFCURVE",
"37 13 OFFCURVE",
"37 -56 CURVE SMOOTH",
"37 -133 OFFCURVE",
"110 -190 OFFCURVE",
"233 -190 CURVE SMOOTH"
);
},
{
closed = 1;
nodes = (
"153 -154 OFFCURVE",
"92 -111 OFFCURVE",
"92 -42 CURVE SMOOTH",
"92 32 OFFCURVE",
"159 55 OFFCURVE",
"181 62 CURVE",
"277 55 LINE SMOOTH",
"324 52 OFFCURVE",
"401 34 OFFCURVE",
"401 -40 CURVE SMOOTH",
"401 -111 OFFCURVE",
"333 -154 OFFCURVE",
"243 -154 CURVE SMOOTH"
);
},
{
closed = 1;
nodes = (
"368 216 OFFCURVE",
"418 302 OFFCURVE",
"418 383 CURVE SMOOTH",
"418 464 OFFCURVE",
"368 550 OFFCURVE",
"251 550 CURVE SMOOTH",
"134 550 OFFCURVE",
"84 464 OFFCURVE",
"84 383 CURVE SMOOTH",
"84 302 OFFCURVE",
"134 216 OFFCURVE",
"251 216 CURVE SMOOTH"
);
},
{
closed = 1;
nodes = (
"180 244 OFFCURVE",
"152 295 OFFCURVE",
"152 362 CURVE SMOOTH",
"152 404 LINE SMOOTH",
"152 471 OFFCURVE",
"180 522 OFFCURVE",
"251 522 CURVE SMOOTH",
"322 522 OFFCURVE",
"350 471 OFFCURVE",
"350 404 CURVE SMOOTH",
"350 362 LINE SMOOTH",
"350 295 OFFCURVE",
"322 244 OFFCURVE",
"251 244 CURVE SMOOTH"
);
},
{
closed = 1;
nodes = (
"465 509 LINE",
"465 540 LINE",
"294 540 LINE",
"328 509 LINE"
);
}
);
width = 500;
}
);
unicode = 0067;
},
{
color = 3;
glyphname = h;
layers = (
{
components = (
{
alignment = -1;
name = "serif-lower2";
transform = "{1, 0, 0, 1, -236, 0}";
},
{
alignment = -1;
name = "stem-lower";
transform = "{1, 0, 0, 0.91646, -161, 0}";
},
{
alignment = -1;
name = "serif-top2";
transform = "{1, 0, 0, 1, -236, 50}";
},
{
alignment = -1;
name = ncurve;
transform = "{1, 0, 0, 1, 11, 0}";
}
);
layerId = "94EC0173-ED25-4379-B549-8ECC2838F2C2";
paths = (
{
closed = 1;
nodes = (
"265 0 LINE",
"265 33 LINE",
"166 33 LINE",
"166 146 LINE",
"98 146 LINE",
"98 33 LINE",
"14 33 LINE",
"14 0 LINE"
);
}
);
width = 500;
}
);
unicode = 0068;
},
{
color = 3;
glyphname = j;
layers = (
{
components = (
{
alignment = -1;
name = "stem-lower";
transform = "{1, 0, 0, 0.61481, 56, 0}";
},
{
name = "serif-top1";
transform = "{1, 0, 0, 1, -19, -150}";
},
{
alignment = -1;
name = dotaccentcomb;
transform = "{1, 0, 0, 1, 106, 0}";
}
);
layerId = "94EC0173-ED25-4379-B549-8ECC2838F2C2";
paths = (
{
closed = 1;
nodes = (
"315 -2 LINE SMOOTH",
"315 -117 OFFCURVE",
"255 -171 OFFCURVE",
"171 -164 CURVE",
"153 -114 LINE SMOOTH",
"144 -90 OFFCURVE",
"128 -68 OFFCURVE",
"96 -68 CURVE SMOOTH",
"68 -68 OFFCURVE",
"50 -85 OFFCURVE",
"50 -114 CURVE SMOOTH",
"50 -160 OFFCURVE",
"97 -190 OFFCURVE",
"177 -190 CURVE SMOOTH",
"314 -190 OFFCURVE",
"383 -102 OFFCURVE",
"383 18 CURVE SMOOTH",
"383 43 LINE",
"315 43 LINE"
);
}
);
width = 500;
}
);
unicode = 006A;
},
{
color = 3;
glyphname = k;
layers = (
{
anchors = (
{
name = bottom;
position = "{250, 0}";
},
{
name = top;
position = "{250, 900}";
}
);
components = (
{
locked = 1;
name = "stem-lower";
transform = "{1, 0, 0, 0.91646, -167, 0}";
},
{
name = "serif-top2";
transform = "{1, 0, 0, 1, -242, 50}";
}
);
guideLines = (
{
angle = -56.2169;
position = "{251, 335}";
}
);
layerId = "94EC0173-ED25-4379-B549-8ECC2838F2C2";
paths = (
{
closed = 1;
nodes = (
"382 540 LINE",
"100 210 LINE",
"136 207 LINE",
"418 537 LINE"
);
},
{
closed = 1;
nodes = (
"300 540 LINE",
"300 506 LINE",
"354 506 LINE",
"392 506 LINE",
"482 506 LINE",
"482 540 LINE"
);
},
{
closed = 1;
nodes = (
"239 0 LINE",
"239 34 LINE",
"160 34 LINE",
"160 146 LINE",
"92 146 LINE",
"92 34 LINE",
"-7 34 LINE",
"-7 0 LINE"
);
},
{
closed = 1;
nodes = (
"241 335 LINE",
"202 284 LINE",
"392 0 LINE",
"466 0 LINE"
);
},
{
closed = 1;
nodes = (
"514 34 LINE",
"442 34 LINE",
"369 34 LINE",
"307 34 LINE",
"307 0 LINE",
"514 0 LINE"
);
}
);
width = 500;
}
);
unicode = 006B;
},
{
color = 3;
glyphname = lslash;
layers = (
{
components = (
{
name = l;
}
);
layerId = "94EC0173-ED25-4379-B549-8ECC2838F2C2";
paths = (
{
closed = 1;
nodes = (
"107 325 LINE",
"107 291 LINE",
"394 461 LINE",
"394 495 LINE"
);
}
);
width = 500;
}
);
unicode = 0142;
},
{
color = 3;
glyphname = m;
layers = (
{
components = (
{
alignment = -1;
name = "serif-top-3";
transform = "{1, 0, 0, 1, -281, -150}";
}
);
layerId = "94EC0173-ED25-4379-B549-8ECC2838F2C2";
paths = (
{
closed = 1;
nodes = (
"180 0 LINE",
"180 34 LINE",
"131 34 LINE",
"131 426 LINE",
"135 460 OFFCURVE",
"153 505 OFFCURVE",
"187 505 CURVE SMOOTH",
"209 505 OFFCURVE",
"223 491 OFFCURVE",
"223 467 CURVE SMOOTH",
"223 0 LINE",
"336 0 LINE",
"336 34 LINE",
"287 34 LINE",
"287 426 LINE",
"291 460 OFFCURVE",
"310 505 OFFCURVE",
"346 505 CURVE SMOOTH",
"367 505 OFFCURVE",
"379 491 OFFCURVE",
"379 467 CURVE SMOOTH",
"379 0 LINE",
"493 0 LINE",
"493 34 LINE",
"444 34 LINE",
"444 470 LINE SMOOTH",
"444 522 OFFCURVE",
"420 550 OFFCURVE",
"379 550 CURVE SMOOTH",
"334 550 OFFCURVE",
"302 510 OFFCURVE",
"290 479 CURVE",
"280 479 LINE",
"287 470 LINE",
"287 522 OFFCURVE",
"262 550 OFFCURVE",
"223 550 CURVE SMOOTH",
"177 550 OFFCURVE",
"145 510 OFFCURVE",
"134 479 CURVE",
"131 479 LINE",
"131 505 LINE",
"66 505 LINE",
"66 34 LINE",
"22 34 LINE",
"22 0 LINE"
);
}
);
width = 500;
}
);
unicode = 006D;
},
{
color = 3;
glyphname = n;
layers = (
{
anchors = (
{
name = bottom;
position = "{250, 0}";
},
{
name = top;
position = "{250, 540}";
}
);
components = (
{
alignment = -1;
name = ncurve;
transform = "{1, 0, 0, 1, 11, 0}";
},
{
alignment = -1;
name = "serif-top2";
transform = "{1, 0, 0, 1, -236, -150}";
}
);
layerId = "94EC0173-ED25-4379-B549-8ECC2838F2C2";
paths = (
{
closed = 1;
nodes = (
"265 0 LINE",
"265 28 LINE",
"166 36 LINE",
"166 146 LINE",
"98 146 LINE",
"98 36 LINE",
"14 28 LINE",
"14 0 LINE"
);
}
);
width = 500;
}
);
unicode = 006E;
},
{
color = 6;
glyphname = eng;
layers = (
{
layerId = "94EC0173-ED25-4379-B549-8ECC2838F2C2";
paths = (
{
closed = 1;
nodes = (
"366 -190 OFFCURVE",
"433 -101 OFFCURVE",
"433 18 CURVE SMOOTH",
"433 430 LINE SMOOTH",
"433 503 OFFCURVE",
"396 550 OFFCURVE",
"326 550 CURVE SMOOTH",
"259 550 OFFCURVE",
"214 504 OFFCURVE",
"199 469 CURVE",
"196 469 LINE",
"196 550 LINE",
"172 550 LINE",
"128 525 LINE",
"26 512 LINE",
"26 488 LINE",
"128 488 LINE",
"128 36 LINE",
"44 28 LINE",
"44 0 LINE",
"295 0 LINE",
"295 28 LINE",
"196 36 LINE",
"196 421 LINE",
"205 457 OFFCURVE",
"238 504 OFFCURVE",
"295 504 CURVE SMOOTH",
"341 504 OFFCURVE",
"365 476 OFFCURVE",
"365 424 CURVE SMOOTH",
"365 -2 LINE SMOOTH",
"365 -117 OFFCURVE",
"305 -171 OFFCURVE",
"231 -164 CURVE",
"203 -114 LINE SMOOTH",
"195 -100 OFFCURVE",
"177 -68 OFFCURVE",
"140 -68 CURVE SMOOTH",
"113 -68 OFFCURVE",
"100 -86 OFFCURVE",
"100 -111 CURVE SMOOTH",
"100 -160 OFFCURVE",
"157 -190 OFFCURVE",
"233 -190 CURVE SMOOTH"
);
}
);
width = 500;
}
);
unicode = 014B;
},
{
color = 6;
glyphname = o;
layers = (
{
anchors = (
{
name = bottom;
position = "{250, 0}";
},
{
name = center;
position = "{250, 270}";
},
{
name = ogonek;
position = "{450, 10}";
},
{
name = top;
position = "{250, 540}";
},
{
name = topright;
position = "{358, 490}";
}
);
layerId = "94EC0173-ED25-4379-B549-8ECC2838F2C2";
paths = (
{
closed = 1;
nodes = (
"384 -10 OFFCURVE",
"447 130 OFFCURVE",
"447 270 CURVE SMOOTH",
"447 410 OFFCURVE",
"384 550 OFFCURVE",
"250 550 CURVE SMOOTH",
"116 550 OFFCURVE",
"53 410 OFFCURVE",
"53 270 CURVE SMOOTH",
"53 130 OFFCURVE",
"116 -10 OFFCURVE",
"250 -10 CURVE SMOOTH"
);
},
{
closed = 1;
nodes = (
"166 22 OFFCURVE",
"123 96 OFFCURVE",
"123 220 CURVE SMOOTH",
"123 320 LINE SMOOTH",
"123 444 OFFCURVE",
"166 518 OFFCURVE",
"250 518 CURVE SMOOTH",
"334 518 OFFCURVE",
"377 444 OFFCURVE",
"377 320 CURVE SMOOTH",
"377 220 LINE SMOOTH",
"377 96 OFFCURVE",
"334 22 OFFCURVE",
"250 22 CURVE SMOOTH"
);
}
);
width = 500;
}
);
unicode = 006F;
},
{
color = 3;
glyphname = oslash;
layers = (
{
components = (
{
alignment = -1;
name = o;
transform = "{1, 0, 0, 1, 0, 1}";
}
);
layerId = "94EC0173-ED25-4379-B549-8ECC2838F2C2";
paths = (
{
closed = 1;
nodes = (
"421.225 535.479 LINE",
"393.512 551.479 LINE",
"78.412 5.71 LINE",
"106.125 -10.29 LINE"
);
}
);
width = 500;
}
);
unicode = 00F8;
},
{
color = 6;
glyphname = oe;
layers = (
{
layerId = "94EC0173-ED25-4379-B549-8ECC2838F2C2";
paths = (
{
closed = 1;
nodes = (
"340 -10 OFFCURVE",
"341 550 OFFCURVE",
"150 550 CURVE SMOOTH",
"-40 550 OFFCURVE",
"-41 -10 OFFCURVE",
"150 -10 CURVE SMOOTH"
);
},
{
closed = 1;
nodes = (
"108 22 OFFCURVE",
"74 69 OFFCURVE",
"74 200 CURVE SMOOTH",
"74 340 LINE SMOOTH",
"74 471 OFFCURVE",
"108 518 OFFCURVE",
"150 518 CURVE SMOOTH",
"192 518 OFFCURVE",
"226 471 OFFCURVE",
"226 340 CURVE SMOOTH",
"226 200 LINE SMOOTH",
"226 69 OFFCURVE",
"192 22 OFFCURVE",
"150 22 CURVE SMOOTH"
);
},
{
closed = 1;
nodes = (
"452 -10 OFFCURVE",
"490 54 OFFCURVE",
"490 168 CURVE SMOOTH",
"490 193 LINE",
"458 193 LINE",
"458 168 LINE SMOOTH",
"458 46 OFFCURVE",
"414 25 OFFCURVE",
"379 25 CURVE SMOOTH",
"294 25 OFFCURVE",
"294 144 OFFCURVE",
"294 200 CURVE SMOOTH",
"294 340 LINE SMOOTH",
"294 471 OFFCURVE",
"328 518 OFFCURVE",
"373 518 CURVE SMOOTH",
"414 518 OFFCURVE",
"434 477 OFFCURVE",
"434 419 CURVE SMOOTH",
"434 350 OFFCURVE",
"406 350 OFFCURVE",
"375 350 CURVE SMOOTH",
"266 350 LINE",
"266 324 LINE",
"492 324 LINE",
"493 331 OFFCURVE",
"494 348 OFFCURVE",
"494 367 CURVE SMOOTH",
"494 484 OFFCURVE",
"450 550 OFFCURVE",
"380 550 CURVE SMOOTH",
"278 550 OFFCURVE",
"226 408 OFFCURVE",
"226 266 CURVE SMOOTH",
"226 128 OFFCURVE",
"276 -10 OFFCURVE",
"381 -10 CURVE SMOOTH"
);
}
);
width = 500;
}
);
unicode = 0153;
},
{
color = 3;
glyphname = p;
layers = (
{
components = (
{
name = "serif-top2";
transform = "{1, 0, 0, 1, -207, -150}";
}
);
guideLines = (
{
angle = 90;
position = "{195, 138}";
}
);
layerId = "94EC0173-ED25-4379-B549-8ECC2838F2C2";
paths = (
{
closed = 1;
nodes = (
"359 -190 LINE",
"359 -156 LINE",
"195 -156 LINE",
"195 36 LINE",
"213 13 OFFCURVE",
"246 -10 OFFCURVE",
"295 -10 CURVE SMOOTH",
"412 -10 OFFCURVE",
"475 123 OFFCURVE",
"475 288 CURVE SMOOTH",
"475 440 OFFCURVE",
"422 550 OFFCURVE",
"322 550 CURVE SMOOTH",
"258 550 OFFCURVE",
"213 502 OFFCURVE",
"198 465 CURVE",
"195 465 LINE",
"127 515 LINE",
"127 -156 LINE",
"8 -156 LINE",
"8 -190 LINE"
);
},
{
closed = 1;
nodes = (
"195 401 LINE SMOOTH",
"200 447 OFFCURVE",
"232 509 OFFCURVE",
"300 509 CURVE SMOOTH",
"351 509 OFFCURVE",
"398 477 OFFCURVE",
"398 396 CURVE SMOOTH",
"398 159 LINE SMOOTH",
"398 68 OFFCURVE",
"358 22 OFFCURVE",
"295 22 CURVE SMOOTH",
"239 22 OFFCURVE",
"195 59 OFFCURVE",
"195 159 CURVE SMOOTH"
);
}
);
width = 500;
}
);
unicode = 0070;
},
{
color = 3;
glyphname = thorn;
layers = (
{
components = (
{
name = "serif-top2";
transform = "{1, 0, 0, 1, -207, 50}";
}
);
layerId = "94EC0173-ED25-4379-B549-8ECC2838F2C2";
paths = (
{
closed = 1;
nodes = (
"359 -190 LINE",
"359 -162 LINE",
"195 -152 LINE",
"195 36 LINE",
"213 13 OFFCURVE",
"246 -10 OFFCURVE",
"295 -10 CURVE SMOOTH",
"412 -10 OFFCURVE",
"475 123 OFFCURVE",
"475 288 CURVE SMOOTH",
"475 440 OFFCURVE",
"422 550 OFFCURVE",
"322 550 CURVE SMOOTH",
"258 550 OFFCURVE",
"213 502 OFFCURVE",
"198 465 CURVE",
"195 465 LINE",
"195 601 LINE",
"127 601 LINE",
"127 -152 LINE",
"8 -162 LINE",
"8 -190 LINE"
);
},
{
closed = 1;
nodes = (
"195 401 LINE SMOOTH",
"200 447 OFFCURVE",
"232 509 OFFCURVE",
"300 509 CURVE SMOOTH",
"351 509 OFFCURVE",
"398 477 OFFCURVE",
"398 396 CURVE SMOOTH",
"398 159 LINE SMOOTH",
"398 68 OFFCURVE",
"358 22 OFFCURVE",
"295 22 CURVE SMOOTH",
"239 22 OFFCURVE",
"195 59 OFFCURVE",
"195 159 CURVE SMOOTH"
);
}
);
width = 500;
}
);
unicode = 00FE;
},
{
color = 6;
glyphname = q;
layers = (
{
layerId = "94EC0173-ED25-4379-B549-8ECC2838F2C2";
paths = (
{
closed = 1;
nodes = (
"532 -190 LINE",
"532 -156 LINE",
"433 -156 LINE",
"433 540 LINE",
"400 540 LINE",
"400 455 LINE",
"390 455 LINE",
"378 496 OFFCURVE",
"337 550 OFFCURVE",
"267 550 CURVE SMOOTH",
"145 550 OFFCURVE",
"85 412 OFFCURVE",
"85 251 CURVE SMOOTH",
"85 98 OFFCURVE",
"134 -10 OFFCURVE",
"239 -10 CURVE SMOOTH",
"303 -10 OFFCURVE",
"347 38 OFFCURVE",
"362 75 CURVE",
"365 75 LINE",
"365 -156 LINE",
"201 -156 LINE",
"201 -190 LINE"
);
},
{
closed = 1;
nodes = (
"209 31 OFFCURVE",
"162 63 OFFCURVE",
"162 144 CURVE SMOOTH",
"162 381 LINE SMOOTH",
"162 472 OFFCURVE",
"202 518 OFFCURVE",
"265 518 CURVE SMOOTH",
"321 518 OFFCURVE",
"365 481 OFFCURVE",
"365 381 CURVE SMOOTH",
"365 139 LINE",
"360 93 OFFCURVE",
"328 31 OFFCURVE",
"260 31 CURVE SMOOTH"
);
}
);
width = 500;
}
);
unicode = 0071;
},
{
color = 3;
glyphname = r;
layers = (
{
anchors = (
{
name = bottom;
position = "{161, 0}";
},
{
name = top;
position = "{250, 540}";
}
);
components = (
{
name = "stem-lower";
transform = "{1, 0, 0, 0.61481, -134, 0}";
},
{
name = "serif-top2";
transform = "{1, 0, 0, 1, -209, -150}";
}
);
guideLines = (
{
angle = 72.7185;
position = "{197, 377}";
}
);
layerId = "94EC0173-ED25-4379-B549-8ECC2838F2C2";
paths = (
{
closed = 1;
nodes = (
"5 34 LINE",
"5 0 LINE",
"356 0 LINE",
"356 34 LINE"
);
},
{
closed = 1;
nodes = (
"377 468 OFFCURVE",
"390 441 OFFCURVE",
"424 441 CURVE SMOOTH",
"452 441 OFFCURVE",
"465 459 OFFCURVE",
"465 484 CURVE SMOOTH",
"465 527 OFFCURVE",
"424 550 OFFCURVE",
"373 550 CURVE SMOOTH",
"292 550 OFFCURVE",
"232 481 OFFCURVE",
"201 389 CURVE SMOOTH",
"196 374 LINE",
"173 374 LINE",
"173 217 LINE",
"193 217 LINE",
"193 289 LINE",
"207 334 LINE SMOOTH",
"237 430 OFFCURVE",
"279 516 OFFCURVE",
"352 516 CURVE",
"367 487 LINE SMOOTH"
);
}
);
width = 500;
}
);
unicode = 0072;
},
{
color = 6;
glyphname = s;
layers = (
{
anchors = (
{
name = bottom;
position = "{295, 0}";
},
{
name = top;
position = "{267, 540}";
}
);
layerId = "94EC0173-ED25-4379-B549-8ECC2838F2C2";
paths = (
{
closed = 1;
nodes = (
"380 -10 OFFCURVE",
"444 50 OFFCURVE",
"444 131 CURVE SMOOTH",
"444 297 OFFCURVE",
"181 314 OFFCURVE",
"181 443 CURVE SMOOTH",
"181 478 OFFCURVE",
"200 517 OFFCURVE",
"261 517 CURVE SMOOTH",
"359 517 OFFCURVE",
"388 418 OFFCURVE",
"388 349 CURVE SMOOTH",
"388 346 LINE",
"430 346 LINE",
"430 540 LINE",
"398 540 LINE",
"398 449 LINE",
"390 449 LINE",
"379 486 OFFCURVE",
"350 550 OFFCURVE",
"258 550 CURVE SMOOTH",
"174 550 OFFCURVE",
"121 496 OFFCURVE",
"121 422 CURVE SMOOTH",
"121 257 OFFCURVE",
"384 252 OFFCURVE",
"384 107 CURVE SMOOTH",
"384 57 OFFCURVE",
"352 24 OFFCURVE",
"292 24 CURVE SMOOTH",
"158 24 OFFCURVE",
"154 189 OFFCURVE",
"154 222 CURVE SMOOTH",
"154 234 LINE",
"102 234 LINE",
"102 0 LINE",
"134 0 LINE",
"134 133 LINE",
"142 133 LINE",
"149 72 OFFCURVE",
"195 -10 OFFCURVE",
"295 -10 CURVE SMOOTH"
);
}
);
width = 500;
}
);
unicode = 0073;
},
{
color = 6;
glyphname = germandbls;
layers = (
{
layerId = "94EC0173-ED25-4379-B549-8ECC2838F2C2";
paths = (
{
closed = 1;
nodes = (
"487 -10 OFFCURVE",
"549 43 OFFCURVE",
"549 128 CURVE SMOOTH",
"549 290 OFFCURVE",
"320 301 OFFCURVE",
"320 437 CURVE SMOOTH",
"320 552 OFFCURVE",
"485 542 OFFCURVE",
"485 654 CURVE SMOOTH",
"485 705 OFFCURVE",
"451 773 OFFCURVE",
"329 773 CURVE SMOOTH",
"190 773 OFFCURVE",
"132 685 OFFCURVE",
"132 565 CURVE SMOOTH",
"132 540 LINE",
"38 530 LINE",
"38 508 LINE",
"132 508 LINE",
"132 38 LINE",
"15 28 LINE",
"15 0 LINE",
"200 0 LINE",
"200 585 LINE SMOOTH",
"200 700 OFFCURVE",
"253 747 OFFCURVE",
"319 747 CURVE SMOOTH",
"381 747 OFFCURVE",
"414 706 OFFCURVE",
"414 652 CURVE SMOOTH",
"414 533 OFFCURVE",
"260 529 OFFCURVE",
"260 411 CURVE SMOOTH",
"260 267 OFFCURVE",
"489 251 OFFCURVE",
"489 108 CURVE SMOOTH",
"489 56 OFFCURVE",
"459 24 OFFCURVE",
"403 24 CURVE SMOOTH",
"348 24 OFFCURVE",
"313 55 OFFCURVE",
"313 122 CURVE SMOOTH",
"313 144 LINE",
"265 144 LINE",
"265 0 LINE",
"293 0 LINE",
"293 58 LINE",
"301 58 LINE",
"310 29 OFFCURVE",
"345 -10 OFFCURVE",
"409 -10 CURVE SMOOTH"
);
}
);
width = 500;
}
);
unicode = 00DF;
},
{
color = 6;
glyphname = t;
layers = (
{
anchors = (
{
name = bottom;
position = "{305, 0}";
},
{
name = center;
position = "{250, 270}";
},
{
name = top;
position = "{260, 540}";
},
{
name = topright;
position = "{480, 540}";
}
);
layerId = "94EC0173-ED25-4379-B549-8ECC2838F2C2";
paths = (
{
closed = 1;
nodes = (
"433 -10 OFFCURVE",
"462 106 OFFCURVE",
"462 182 CURVE SMOOTH",
"462 208 LINE",
"432 208 LINE",
"432 182 LINE SMOOTH",
"432 102 OFFCURVE",
"400 31 OFFCURVE",
"312 31 CURVE SMOOTH",
"238 31 OFFCURVE",
"201 83 OFFCURVE",
"201 175 CURVE SMOOTH",
"201 508 LINE",
"462 508 LINE",
"462 540 LINE",
"201 540 LINE",
"201 647 LINE",
"178 647 LINE",
"133 540 LINE",
"19 540 LINE",
"19 508 LINE",
"133 508 LINE",
"133 170 LINE SMOOTH",
"133 51 OFFCURVE",
"200 -10 OFFCURVE",
"297 -10 CURVE SMOOTH"
);
}
);
width = 500;
}
);
unicode = 0074;
},
{
color = 3;
glyphname = u;
layers = (
{
anchors = (
{
name = bottom;
position = "{250, 0}";
},
{
name = ogonek;
position = "{347, -3}";
},
{
name = top;
position = "{250, 540}";
},
{
name = topright;
position = "{401, 493}";
}
);
components = (
{
alignment = -1;
name = "serif-top2";
transform = "{1, 0, 0, 1, 1, -150}";
},
{
alignment = -1;
name = "serif-top-5";
transform = "{-1, 0, 0, -1, 737, 690}";
},
{
alignment = -1;
name = "serif-top2";
transform = "{1, 0, 0, 1, -236, -150}";
}
);
layerId = "94EC0173-ED25-4379-B549-8ECC2838F2C2";
paths = (
{
closed = 1;
nodes = (
"335 405 LINE",
"335 129 LINE SMOOTH",
"326 89 OFFCURVE",
"293 36 OFFCURVE",
"235 36 CURVE SMOOTH",
"189 36 OFFCURVE",
"166 64 OFFCURVE",
"166 121 CURVE SMOOTH",
"166 405 LINE",
"98 405 LINE",
"98 119 LINE SMOOTH",
"98 30 OFFCURVE",
"145 -10 OFFCURVE",
"209 -10 CURVE SMOOTH",
"275 -10 OFFCURVE",
"318 44 OFFCURVE",
"332 85 CURVE",
"335 85 LINE",
"335 34 LINE",
"403 34 LINE",
"403 405 LINE"
);
}
);
width = 500;
}
);
unicode = 0075;
},
{
color = 6;
glyphname = v;
layers = (
{
layerId = "94EC0173-ED25-4379-B549-8ECC2838F2C2";
paths = (
{
closed = 1;
nodes = (
"266 0 LINE",
"435 506 LINE",
"502 506 LINE",
"502 540 LINE",
"334 540 LINE",
"334 506 LINE",
"403 506 LINE",
"264 89 LINE",
"125 506 LINE",
"225 506 LINE",
"225 540 LINE",
"-21 540 LINE",
"-21 506 LINE",
"56 506 LINE",
"226 0 LINE"
);
}
);
width = 500;
}
);
unicode = 0076;
},
{
color = 6;
glyphname = w;
layers = (
{
anchors = (
{
name = bottom;
position = "{253, 0}";
},
{
name = top;
position = "{283, 540}";
}
);
guideLines = (
{
angle = -80.2788;
position = "{142, 502}";
},
{
angle = 80.3192;
position = "{260, 502}";
}
);
layerId = "94EC0173-ED25-4379-B549-8ECC2838F2C2";
paths = (
{
closed = 1;
nodes = (
"205 0 LINE",
"263 340 LINE",
"326 0 LINE",
"357 0 LINE",
"443 506 LINE",
"479 506 LINE",
"479 540 LINE",
"366 540 LINE",
"366 506 LINE",
"416 506 LINE",
"357 156 LINE",
"298 506 LINE",
"334 506 LINE",
"334 540 LINE",
"224 540 LINE",
"224 506 LINE",
"264 506 LINE",
"205 156 LINE",
"146 506 LINE",
"197 506 LINE",
"197 540 LINE",
"27 540 LINE",
"27 506 LINE",
"84 506 LINE",
"170 0 LINE"
);
}
);
width = 500;
}
);
unicode = 0077;
},
{
color = 6;
glyphname = x;
layers = (
{
layerId = "94EC0173-ED25-4379-B549-8ECC2838F2C2";
paths = (
{
closed = 1;
nodes = (
"476 0 LINE",
"476 34 LINE",
"405 34 LINE",
"166 506 LINE",
"236 506 LINE",
"236 540 LINE",
"26 540 LINE",
"26 506 LINE",
"97 506 LINE",
"336 34 LINE",
"259 34 LINE",
"259 0 LINE"
);
},
{
closed = 1;
nodes = (
"193 0 LINE",
"193 34 LINE",
"133 34 LINE",
"259 284 LINE",
"227 284 LINE",
"101 34 LINE",
"30 34 LINE",
"30 0 LINE"
);
},
{
closed = 1;
nodes = (
"269 284 LINE",
"381 506 LINE",
"452 506 LINE",
"452 540 LINE",
"294 540 LINE",
"294 506 LINE",
"349 506 LINE",
"237 284 LINE"
);
}
);
width = 500;
}
);
unicode = 0078;
},
{
color = 6;
glyphname = y;
layers = (
{
anchors = (
{
name = bottom;
position = "{375, 0}";
},
{
name = top;
position = "{277, 540}";
}
);
guideLines = (
{
angle = 251.565;
position = "{396, 502}";
},
{
angle = 108.9746;
position = "{71, 502}";
},
{
angle = 251.565;
position = "{428, 502}";
}
);
layerId = "94EC0173-ED25-4379-B549-8ECC2838F2C2";
paths = (
{
closed = 1;
nodes = (
"201 -190 OFFCURVE",
"253 -85 OFFCURVE",
"287 18 CURVE SMOOTH",
"448 506 LINE",
"515 506 LINE",
"515 540 LINE",
"347 540 LINE",
"347 506 LINE",
"416 506 LINE",
"289 121 LINE",
"158 506 LINE",
"258 506 LINE",
"258 540 LINE",
"12 540 LINE",
"12 506 LINE",
"91 506 LINE",
"256 22 LINE",
"211 -112 OFFCURVE",
"152 -165 OFFCURVE",
"81 -159 CURVE",
"75 -137 LINE SMOOTH",
"68 -110 OFFCURVE",
"58 -68 OFFCURVE",
"15 -68 CURVE SMOOTH",
"-19 -68 OFFCURVE",
"-37 -92 OFFCURVE",
"-37 -119 CURVE SMOOTH",
"-37 -162 OFFCURVE",
"7 -190 OFFCURVE",
"73 -190 CURVE SMOOTH"
);
}
);
width = 500;
}
);
unicode = 0079;
},
{
color = 6;
glyphname = z;
layers = (
{
anchors = (
{
name = bottom;
position = "{250, 0}";
},
{
name = center;
position = "{250, 270}";
},
{
name = top;
position = "{280, 540}";
}
);
layerId = "94EC0173-ED25-4379-B549-8ECC2838F2C2";
paths = (
{
closed = 1;
nodes = (
"119 0 LINE",
"457 520 LINE",
"457 540 LINE",
"399 540 LINE",
"61 20 LINE",
"61 0 LINE"
);
},
{
closed = 1;
nodes = (
"452 0 LINE",
"452 224 LINE",
"424 224 LINE",
"410 104 LINE SMOOTH",
"404 56 OFFCURVE",
"375 32 OFFCURVE",
"327 32 CURVE SMOOTH",
"79 32 LINE",
"79 0 LINE"
);
},
{
closed = 1;
nodes = (
"113 316 LINE",
"127 436 LINE SMOOTH",
"133 484 OFFCURVE",
"162 508 OFFCURVE",
"210 508 CURVE SMOOTH",
"395 508 LINE",
"433 540 LINE",
"85 540 LINE",
"85 316 LINE"
);
}
);
width = 500;
}
);
unicode = 007A;
},
{
color = 6;
glyphname = c.001;
layers = (
{
anchors = (
{
name = bottom;
position = "{283, 0}";
},
{
name = top;
position = "{250, 540}";
}
);
layerId = "94EC0173-ED25-4379-B549-8ECC2838F2C2";
paths = (
{
closed = 1;
nodes = (
"370 -10 OFFCURVE",
"440 60 OFFCURVE",
"440 168 CURVE SMOOTH",
"440 193 LINE",
"408 193 LINE",
"408 168 LINE SMOOTH",
"408 47 OFFCURVE",
"330 25 OFFCURVE",
"279 25 CURVE SMOOTH",
"190 25 OFFCURVE",
"142 95 OFFCURVE",
"142 220 CURVE SMOOTH",
"142 320 LINE SMOOTH",
"142 443 OFFCURVE",
"196 518 OFFCURVE",
"290 518 CURVE SMOOTH",
"340 518 OFFCURVE",
"377 495 OFFCURVE",
"391 478 CURVE",
"367 437 OFFCURVE",
"343 419 OFFCURVE",
"343 392 CURVE SMOOTH",
"343 367 OFFCURVE",
"364 352 OFFCURVE",
"386 352 CURVE SMOOTH",
"412 352 OFFCURVE",
"441 372 OFFCURVE",
"441 419 CURVE SMOOTH",
"441 493 OFFCURVE",
"371 550 OFFCURVE",
"283 550 CURVE SMOOTH",
"155 550 OFFCURVE",
"68 428 OFFCURVE",
"68 263 CURVE SMOOTH",
"68 114 OFFCURVE",
"139 -10 OFFCURVE",
"271 -10 CURVE SMOOTH"
);
}
);
width = 500;
}
);
},
{
color = 6;
glyphname = e.001;
layers = (
{
anchors = (
{
name = bottom;
position = "{250, 0}";
},
{
name = ogonek;
position = "{308, 0}";
},
{
name = top;
position = "{269, 540}";
}
);
guideLines = (
{
angle = 90;
position = "{260, 233}";
}
);
layerId = "94EC0173-ED25-4379-B549-8ECC2838F2C2";
paths = (
{
closed = 1;
nodes = (
"371 -10 OFFCURVE",
"441 60 OFFCURVE",
"441 168 CURVE SMOOTH",
"441 193 LINE",
"409 193 LINE",
"409 168 LINE SMOOTH",
"409 47 OFFCURVE",
"331 25 OFFCURVE",
"280 25 CURVE SMOOTH",
"190 25 OFFCURVE",
"135 95 OFFCURVE",
"135 220 CURVE SMOOTH",
"135 320 LINE SMOOTH",
"135 432 OFFCURVE",
"183 518 OFFCURVE",
"270 518 CURVE SMOOTH",
"334 518 OFFCURVE",
"382 472 OFFCURVE",
"382 390 CURVE SMOOTH",
"382 330 OFFCURVE",
"356 330 OFFCURVE",
"335 330 CURVE SMOOTH",
"107 330 LINE",
"107 304 LINE",
"446 304 LINE",
"447 312 OFFCURVE",
"448 328 OFFCURVE",
"448 345 CURVE SMOOTH",
"448 474 OFFCURVE",
"377 550 OFFCURVE",
"272 550 CURVE SMOOTH",
"128 550 OFFCURVE",
"61 408 OFFCURVE",
"61 268 CURVE SMOOTH",
"61 119 OFFCURVE",
"137 -10 OFFCURVE",
"272 -10 CURVE SMOOTH"
);
}
);
width = 500;
}
);
},
{
color = 6;
glyphname = ordfeminine;
layers = (
{
layerId = "94EC0173-ED25-4379-B549-8ECC2838F2C2";
paths = (
{
closed = 1;
nodes = (
"381 216 OFFCURVE",
"400 251 OFFCURVE",
"405 278 CURVE",
"391 282 LINE",
"388 269 OFFCURVE",
"378 251 OFFCURVE",
"363 251 CURVE SMOOTH",
"351 251 OFFCURVE",
"346 262 OFFCURVE",
"346 279 CURVE SMOOTH",
"346 455 LINE SMOOTH",
"346 501 OFFCURVE",
"321 550 OFFCURVE",
"246 550 CURVE SMOOTH",
"159 550 OFFCURVE",
"118 481 OFFCURVE",
"118 441 CURVE SMOOTH",
"118 420 OFFCURVE",
"129 404 OFFCURVE",
"150 404 CURVE SMOOTH",
"169 404 OFFCURVE",
"182 419 OFFCURVE",
"182 438 CURVE SMOOTH",
"182 453 OFFCURVE",
"174 462 OFFCURVE",
"154 484 CURVE",
"163 502 OFFCURVE",
"189 525 OFFCURVE",
"224 525 CURVE SMOOTH",
"266 525 OFFCURVE",
"296 498 OFFCURVE",
"296 455 CURVE SMOOTH",
"296 274 LINE SMOOTH",
"296 231 OFFCURVE",
"317 216 OFFCURVE",
"344 216 CURVE SMOOTH"
);
},
{
closed = 1;
nodes = (
"252 216 OFFCURVE",
"285 248 OFFCURVE",
"297 272 CURVE",
"297 297 LINE",
"289 276 OFFCURVE",
"265 249 OFFCURVE",
"230 249 CURVE SMOOTH",
"199 249 OFFCURVE",
"175 269 OFFCURVE",
"175 302 CURVE SMOOTH",
"175 344 OFFCURVE",
"203 360 OFFCURVE",
"245 378 CURVE SMOOTH",
"300 401 LINE",
"300 419 LINE",
"238 395 LINE SMOOTH",
"176 371 OFFCURVE",
"126 349 OFFCURVE",
"126 290 CURVE SMOOTH",
"126 249 OFFCURVE",
"157 216 OFFCURVE",
"206 216 CURVE SMOOTH"
);
}
);
width = 500;
}
);
unicode = 00AA;
},
{
color = 6;
glyphname = ordmasculine;
layers = (
{
layerId = "94EC0173-ED25-4379-B549-8ECC2838F2C2";
paths = (
{
closed = 1;
nodes = (
"422 216 OFFCURVE",
"422 550 OFFCURVE",
"250 550 CURVE SMOOTH",
"78 550 OFFCURVE",
"78 216 OFFCURVE",
"250 216 CURVE SMOOTH"
);
},
{
closed = 1;
nodes = (
"200 242 OFFCURVE",
"174 286 OFFCURVE",
"174 360 CURVE SMOOTH",
"174 406 LINE SMOOTH",
"174 480 OFFCURVE",
"200 524 OFFCURVE",
"250 524 CURVE SMOOTH",
"300 524 OFFCURVE",
"326 480 OFFCURVE",
"326 406 CURVE SMOOTH",
"326 360 LINE SMOOTH",
"326 286 OFFCURVE",
"300 242 OFFCURVE",
"250 242 CURVE SMOOTH"
);
}
);
width = 500;
}
);
unicode = 00BA;
},
{
color = 6;
glyphname = zero;
layers = (
{
layerId = "94EC0173-ED25-4379-B549-8ECC2838F2C2";
paths = (
{
closed = 1;
nodes = (
"523 -10 OFFCURVE",
"524 750 OFFCURVE",
"250 750 CURVE SMOOTH",
"-24 750 OFFCURVE",
"-23 -10 OFFCURVE",
"250 -10 CURVE SMOOTH"
);
},
{
closed = 1;
nodes = (
"156 27 OFFCURVE",
"119 100 OFFCURVE",
"119 215 CURVE SMOOTH",
"119 525 LINE SMOOTH",
"119 640 OFFCURVE",
"157 713 OFFCURVE",
"250 713 CURVE SMOOTH",
"343 713 OFFCURVE",
"381 640 OFFCURVE",
"381 525 CURVE SMOOTH",
"381 215 LINE SMOOTH",
"381 100 OFFCURVE",
"344 27 OFFCURVE",
"250 27 CURVE SMOOTH"
);
}
);
width = 500;
}
);
unicode = 0030;
},
{
color = 6;
glyphname = one;
layers = (
{
layerId = "94EC0173-ED25-4379-B549-8ECC2838F2C2";
paths = (
{
closed = 1;
nodes = (
"473 0 LINE",
"473 34 LINE",
"284 34 LINE",
"284 750 LINE",
"260 750 LINE",
"229 699 OFFCURVE",
"188 676 OFFCURVE",
"123 670 CURVE SMOOTH",
"34 662 LINE",
"34 635 LINE",
"216 635 LINE",
"216 34 LINE",
"-3 34 LINE",
"-3 0 LINE"
);
}
);
width = 500;
}
);
unicode = 0031;
},
{
color = 6;
glyphname = two;
layers = (
{
layerId = "94EC0173-ED25-4379-B549-8ECC2838F2C2";
paths = (
{
closed = 1;
nodes = (
"142 -10 OFFCURVE",
"157 7 OFFCURVE",
"157 27 CURVE SMOOTH",
"157 52 OFFCURVE",
"134 65 OFFCURVE",
"125 70 CURVE SMOOTH",
"99 85 LINE",
"110 108 OFFCURVE",
"137 138 OFFCURVE",
"170 138 CURVE SMOOTH",
"245 138 OFFCURVE",
"247 -10 OFFCURVE",
"357 -10 CURVE SMOOTH",
"449 -10 OFFCURVE",
"451 94 OFFCURVE",
"451 153 CURVE SMOOTH",
"451 249 LINE",
"421 249 LINE",
"421 154 LINE SMOOTH",
"421 109 OFFCURVE",
"421 51 OFFCURVE",
"372 51 CURVE SMOOTH",
"303 51 OFFCURVE",
"275 166 OFFCURVE",
"183 166 CURVE SMOOTH",
"136 166 OFFCURVE",
"100 132 OFFCURVE",
"87 106 CURVE",
"87 196 OFFCURVE",
"147 251 OFFCURVE",
"202 292 CURVE SMOOTH",
"292 359 LINE SMOOTH",
"347 400 OFFCURVE",
"435 464 OFFCURVE",
"435 573 CURVE SMOOTH",
"435 672 OFFCURVE",
"364 750 OFFCURVE",
"257 750 CURVE SMOOTH",
"137 750 OFFCURVE",
"68 649 OFFCURVE",
"68 559 CURVE SMOOTH",
"68 495 OFFCURVE",
"103 467 OFFCURVE",
"133 467 CURVE SMOOTH",
"157 467 OFFCURVE",
"179 485 OFFCURVE",
"179 515 CURVE SMOOTH",
"179 546 OFFCURVE",
"155 566 OFFCURVE",
"146 574 CURVE SMOOTH",
"105 612 LINE",
"115 656 OFFCURVE",
"157 715 OFFCURVE",
"235 715 CURVE SMOOTH",
"314 715 OFFCURVE",
"366 660 OFFCURVE",
"366 571 CURVE SMOOTH",
"366 474 OFFCURVE",
"305 421 OFFCURVE",
"271 392 CURVE SMOOTH",
"183 317 LINE SMOOTH",
"144 284 OFFCURVE",
"58 215 OFFCURVE",
"58 88 CURVE SMOOTH",
"58 17 OFFCURVE",
"85 -10 OFFCURVE",
"117 -10 CURVE SMOOTH"
);
}
);
width = 500;
}
);
unicode = 0032;
},
{
color = 6;
glyphname = three;
layers = (
{
guideLines = (
{
angle = 48.0484;
position = "{276, 540}";
}
);
layerId = "94EC0173-ED25-4379-B549-8ECC2838F2C2";
paths = (
{
closed = 1;
nodes = (
"356 -10 OFFCURVE",
"449 74 OFFCURVE",
"449 236 CURVE SMOOTH",
"449 394 OFFCURVE",
"364 455 OFFCURVE",
"280 455 CURVE SMOOTH",
"244 455 OFFCURVE",
"218 444 OFFCURVE",
"203 436 CURVE",
"201 439 LINE",
"416 673 LINE",
"416 740 LINE",
"83 740 LINE",
"83 526 LINE",
"111 526 LINE",
"118 601 LINE SMOOTH",
"123 659 OFFCURVE",
"180 673 OFFCURVE",
"208 673 CURVE SMOOTH",
"381 673 LINE",
"121 386 LINE",
"142 366 LINE",
"182 399 OFFCURVE",
"222 423 OFFCURVE",
"274 423 CURVE SMOOTH",
"351 423 OFFCURVE",
"381 369 OFFCURVE",
"381 302 CURVE SMOOTH",
"381 167 LINE SMOOTH",
"381 75 OFFCURVE",
"327 25 OFFCURVE",
"240 25 CURVE SMOOTH",
"146 25 OFFCURVE",
"100 83 OFFCURVE",
"95 156 CURVE",
"125 177 LINE SMOOTH",
"146 192 OFFCURVE",
"171 208 OFFCURVE",
"171 241 CURVE SMOOTH",
"171 269 OFFCURVE",
"153 288 OFFCURVE",
"126 288 CURVE SMOOTH",
"89 288 OFFCURVE",
"61 251 OFFCURVE",
"61 182 CURVE SMOOTH",
"61 75 OFFCURVE",
"127 -10 OFFCURVE",
"242 -10 CURVE SMOOTH"
);
}
);
width = 500;
}
);
unicode = 0033;
},
{
color = 6;
glyphname = four;
layers = (
{
guideLines = (
{
angle = 238.9338;
position = "{314, 740}";
}
);
layerId = "94EC0173-ED25-4379-B549-8ECC2838F2C2";
paths = (
{
closed = 1;
nodes = (
"477 0 LINE",
"477 34 LINE",
"348 34 LINE",
"348 213 LINE",
"472 213 LINE",
"472 247 LINE",
"348 247 LINE",
"348 740 LINE",
"310 740 LINE",
"13 247 LINE",
"13 213 LINE",
"280 213 LINE",
"280 34 LINE",
"151 34 LINE",
"151 0 LINE"
);
},
{
closed = 1;
nodes = (
"280 636 LINE",
"280 247 LINE",
"46 247 LINE"
);
}
);
width = 500;
}
);
unicode = 0034;
},
{
color = 6;
glyphname = five;
layers = (
{
guideLines = (
{
angle = 83.3865;
position = "{132, 568}";
}
);
layerId = "94EC0173-ED25-4379-B549-8ECC2838F2C2";
paths = (
{
closed = 1;
nodes = (
"362 -10 OFFCURVE",
"449 78 OFFCURVE",
"449 237 CURVE SMOOTH",
"449 384 OFFCURVE",
"373 465 OFFCURVE",
"264 465 CURVE SMOOTH",
"187 465 OFFCURVE",
"132 422 OFFCURVE",
"111 389 CURVE",
"144 673 LINE",
"432 673 LINE",
"432 750 LINE",
"414 750 LINE",
"384 740 LINE",
"126 740 LINE",
"81 348 LINE",
"110 344 LINE",
"127 382 OFFCURVE",
"179 433 OFFCURVE",
"260 433 CURVE SMOOTH",
"346 433 OFFCURVE",
"381 380 OFFCURVE",
"381 312 CURVE SMOOTH",
"381 167 LINE SMOOTH",
"381 75 OFFCURVE",
"331 25 OFFCURVE",
"240 25 CURVE SMOOTH",
"148 25 OFFCURVE",
"96 83 OFFCURVE",
"91 156 CURVE",
"121 177 LINE SMOOTH",
"142 192 OFFCURVE",
"167 208 OFFCURVE",
"167 241 CURVE SMOOTH",
"167 269 OFFCURVE",
"149 288 OFFCURVE",
"122 288 CURVE SMOOTH",
"85 288 OFFCURVE",
"57 251 OFFCURVE",
"57 182 CURVE SMOOTH",
"57 74 OFFCURVE",
"126 -10 OFFCURVE",
"243 -10 CURVE SMOOTH"
);
}
);
width = 500;
}
);
unicode = 0035;
},
{
color = 6;
glyphname = six;
layers = (
{
guideLines = (
{
angle = 90;
position = "{119, 285}";
}
);
layerId = "94EC0173-ED25-4379-B549-8ECC2838F2C2";
paths = (
{
closed = 1;
nodes = (
"375 -10 OFFCURVE",
"449 102 OFFCURVE",
"449 231 CURVE SMOOTH",
"449 355 OFFCURVE",
"381 465 OFFCURVE",
"262 465 CURVE SMOOTH",
"162 465 OFFCURVE",
"115 381 OFFCURVE",
"107 318 CURVE",
"99 318 LINE",
"99 363 LINE SMOOTH",
"99 580 OFFCURVE",
"166 720 OFFCURVE",
"284 720 CURVE SMOOTH",
"346 720 OFFCURVE",
"395 683 OFFCURVE",
"395 634 CURVE",
"371 616 LINE SMOOTH",
"351 601 OFFCURVE",
"331 588 OFFCURVE",
"331 559 CURVE SMOOTH",
"331 532 OFFCURVE",
"348 516 OFFCURVE",
"372 516 CURVE SMOOTH",
"410 516 OFFCURVE",
"430 555 OFFCURVE",
"430 606 CURVE SMOOTH",
"430 697 OFFCURVE",
"369 750 OFFCURVE",
"283 750 CURVE SMOOTH",
"120 750 OFFCURVE",
"41 560 OFFCURVE",
"41 332 CURVE SMOOTH",
"41 67 OFFCURVE",
"148 -10 OFFCURVE",
"251 -10 CURVE SMOOTH"
);
},
{
closed = 1;
nodes = (
"180 25 OFFCURVE",
"129 76 OFFCURVE",
"129 170 CURVE SMOOTH",
"129 285 LINE SMOOTH",
"129 379 OFFCURVE",
"183 433 OFFCURVE",
"260 433 CURVE SMOOTH",
"332 433 OFFCURVE",
"381 379 OFFCURVE",
"381 285 CURVE SMOOTH",
"381 170 LINE SMOOTH",
"381 76 OFFCURVE",
"332 25 OFFCURVE",
"256 25 CURVE SMOOTH"
);
}
);
width = 500;
}
);
unicode = 0036;
},
{
color = 6;
glyphname = seven;
layers = (
{
layerId = "94EC0173-ED25-4379-B549-8ECC2838F2C2";
paths = (
{
closed = 1;
nodes = (
"241 0 LINE",
"241 47 LINE SMOOTH",
"241 459 OFFCURVE",
"451 455 OFFCURVE",
"451 652 CURVE SMOOTH",
"451 723 OFFCURVE",
"424 750 OFFCURVE",
"392 750 CURVE SMOOTH",
"367 750 OFFCURVE",
"352 733 OFFCURVE",
"352 713 CURVE SMOOTH",
"352 688 OFFCURVE",
"375 675 OFFCURVE",
"384 670 CURVE SMOOTH",
"410 655 LINE",
"403 641 OFFCURVE",
"382 622 OFFCURVE",
"349 622 CURVE SMOOTH",
"274 622 OFFCURVE",
"254 750 OFFCURVE",
"161 750 CURVE SMOOTH",
"116 750 OFFCURVE",
"99 715 OFFCURVE",
"92 692 CURVE",
"88 692 LINE",
"88 740 LINE",
"58 740 LINE",
"58 521 LINE",
"88 521 LINE",
"88 586 LINE SMOOTH",
"88 631 OFFCURVE",
"88 689 OFFCURVE",
"137 689 CURVE SMOOTH",
"206 689 OFFCURVE",
"244 594 OFFCURVE",
"336 594 CURVE SMOOTH",
"383 594 OFFCURVE",
"413 617 OFFCURVE",
"422 634 CURVE",
"422 471 OFFCURVE",
"176 456 OFFCURVE",
"176 47 CURVE SMOOTH",
"176 0 LINE"
);
}
);
width = 500;
}
);
unicode = 0037;
},
{
color = 6;
glyphname = eight;
layers = (
{
layerId = "94EC0173-ED25-4379-B549-8ECC2838F2C2";
paths = (
{
closed = 1;
nodes = (
"389 -10 OFFCURVE",
"455 109 OFFCURVE",
"455 227 CURVE SMOOTH",
"455 341 OFFCURVE",
"387 413 OFFCURVE",
"335 435 CURVE",
"335 443 LINE",
"372 459 OFFCURVE",
"421 509 OFFCURVE",
"421 589 CURVE SMOOTH",
"421 696 OFFCURVE",
"342 750 OFFCURVE",
"254 750 CURVE SMOOTH",
"166 750 OFFCURVE",
"87 696 OFFCURVE",
"87 587 CURVE SMOOTH",
"87 509 OFFCURVE",
"136 459 OFFCURVE",
"173 443 CURVE",
"173 435 LINE",
"121 413 OFFCURVE",
"53 341 OFFCURVE",
"53 227 CURVE SMOOTH",
"53 109 OFFCURVE",
"119 -10 OFFCURVE",
"254 -10 CURVE SMOOTH"
);
},
{
closed = 1;
nodes = (
"169 25 OFFCURVE",
"124 72 OFFCURVE",
"124 157 CURVE SMOOTH",
"124 291 LINE SMOOTH",
"124 376 OFFCURVE",
"169 423 OFFCURVE",
"254 423 CURVE SMOOTH",
"339 423 OFFCURVE",
"384 376 OFFCURVE",
"384 291 CURVE SMOOTH",
"384 157 LINE SMOOTH",
"384 72 OFFCURVE",
"339 25 OFFCURVE",
"254 25 CURVE SMOOTH"
);
},
{
closed = 1;
nodes = (
"183 455 OFFCURVE",
"146 492 OFFCURVE",
"146 560 CURVE SMOOTH",
"146 615 LINE SMOOTH",
"146 683 OFFCURVE",
"183 720 OFFCURVE",
"254 720 CURVE SMOOTH",
"325 720 OFFCURVE",
"362 683 OFFCURVE",
"362 615 CURVE SMOOTH",
"362 560 LINE SMOOTH",
"362 492 OFFCURVE",
"325 455 OFFCURVE",
"254 455 CURVE SMOOTH"
);
}
);
width = 500;
}
);
unicode = 0038;
},
{
color = 6;
glyphname = zeroinferior;
layers = (
{
layerId = "94EC0173-ED25-4379-B549-8ECC2838F2C2";
paths = (
{
closed = 1;
nodes = (
"425 -10 OFFCURVE",
"426 340 OFFCURVE",
"250 340 CURVE SMOOTH",
"74 340 OFFCURVE",
"75 -10 OFFCURVE",
"250 -10 CURVE SMOOTH"
);
},
{
closed = 1;
nodes = (
"199 17 OFFCURVE",
"170 60 OFFCURVE",
"170 123 CURVE SMOOTH",
"170 207 LINE SMOOTH",
"170 270 OFFCURVE",
"200 313 OFFCURVE",
"250 313 CURVE SMOOTH",
"300 313 OFFCURVE",
"330 270 OFFCURVE",
"330 207 CURVE SMOOTH",
"330 123 LINE SMOOTH",
"330 60 OFFCURVE",
"301 17 OFFCURVE",
"250 17 CURVE SMOOTH"
);
}
);
width = 500;
}
);
unicode = 2080;
},
{
color = 6;
glyphname = oneinferior;
layers = (
{
layerId = "94EC0173-ED25-4379-B549-8ECC2838F2C2";
paths = (
{
closed = 1;
nodes = (
"373 0 LINE",
"373 28 LINE",
"282 28 LINE",
"284 330 LINE",
"270 330 LINE",
"244 298 OFFCURVE",
"237 288 OFFCURVE",
"180 284 CURVE SMOOTH",
"154 282 LINE",
"154 261 LINE",
"239 261 LINE",
"239 28 LINE",
"137 28 LINE",
"137 0 LINE"
);
}
);
width = 500;
}
);
unicode = 2081;
},
{
color = 6;
glyphname = twoinferior;
layers = (
{
layerId = "94EC0173-ED25-4379-B549-8ECC2838F2C2";
paths = (
{
closed = 1;
nodes = (
"191 -10 OFFCURVE",
"199 1 OFFCURVE",
"199 13 CURVE SMOOTH",
"199 32 OFFCURVE",
"182 34 OFFCURVE",
"178 35 CURVE SMOOTH",
"163 38 LINE",
"166 44 OFFCURVE",
"177 51 OFFCURVE",
"194 51 CURVE SMOOTH",
"246 51 OFFCURVE",
"254 -10 OFFCURVE",
"311 -10 CURVE SMOOTH",
"365 -10 OFFCURVE",
"365 43 OFFCURVE",
"365 72 CURVE SMOOTH",
"365 103 LINE",
"346 103 LINE",
"346 75 LINE SMOOTH",
"346 65 OFFCURVE",
"346 40 OFFCURVE",
"318 40 CURVE SMOOTH",
"285 40 OFFCURVE",
"256 78 OFFCURVE",
"213 78 CURVE SMOOTH",
"187 78 OFFCURVE",
"166 63 OFFCURVE",
"157 52 CURVE",
"157 70 OFFCURVE",
"187 94 OFFCURVE",
"230 118 CURVE SMOOTH",
"257 133 LINE SMOOTH",
"287 150 OFFCURVE",
"354 187 OFFCURVE",
"354 250 CURVE SMOOTH",
"354 299 OFFCURVE",
"314 340 OFFCURVE",
"253 340 CURVE SMOOTH",
"193 340 OFFCURVE",
"143 301 OFFCURVE",
"143 247 CURVE SMOOTH",
"143 216 OFFCURVE",
"159 196 OFFCURVE",
"184 196 CURVE SMOOTH",
"206 196 OFFCURVE",
"217 211 OFFCURVE",
"217 227 CURVE SMOOTH",
"217 239 OFFCURVE",
"210 250 OFFCURVE",
"198 258 CURVE SMOOTH",
"169 278 LINE",
"178 294 OFFCURVE",
"204 315 OFFCURVE",
"238 315 CURVE SMOOTH",
"276 315 OFFCURVE",
"304 289 OFFCURVE",
"304 245 CURVE SMOOTH",
"304 194 OFFCURVE",
"267 170 OFFCURVE",
"244 155 CURVE SMOOTH",
"219 139 LINE SMOOTH",
"183 116 OFFCURVE",
"136 78 OFFCURVE",
"136 33 CURVE SMOOTH",
"136 8 OFFCURVE",
"151 -10 OFFCURVE",
"174 -10 CURVE SMOOTH"
);
}
);
width = 500;
}
);
unicode = 2082;
},
{
color = 6;
glyphname = threeinferior;
layers = (
{
guideLines = (
{
angle = 38.3675;
position = "{359, 371}";
}
);
layerId = "94EC0173-ED25-4379-B549-8ECC2838F2C2";
paths = (
{
closed = 1;
nodes = (
"317 -10 OFFCURVE",
"364 29 OFFCURVE",
"364 101 CURVE SMOOTH",
"364 170 OFFCURVE",
"321 198 OFFCURVE",
"262 198 CURVE SMOOTH",
"244 198 OFFCURVE",
"233 195 OFFCURVE",
"230 193 CURVE",
"229 194 LINE",
"352 299 LINE",
"352 330 LINE",
"168 330 LINE",
"168 230 LINE",
"182 230 LINE",
"185 257 LINE SMOOTH",
"188 284 OFFCURVE",
"201 291 OFFCURVE",
"226 291 CURVE SMOOTH",
"310 291 LINE",
"173 175 LINE",
"186 157 LINE",
"196 165 OFFCURVE",
"219 175 OFFCURVE",
"246 175 CURVE SMOOTH",
"287 175 OFFCURVE",
"313 153 OFFCURVE",
"313 114 CURVE SMOOTH",
"313 80 LINE SMOOTH",
"313 47 OFFCURVE",
"293 14 OFFCURVE",
"237 14 CURVE SMOOTH",
"200 14 OFFCURVE",
"176 32 OFFCURVE",
"172 66 CURVE",
"183 69 LINE SMOOTH",
"210 76 OFFCURVE",
"216 93 OFFCURVE",
"216 106 CURVE SMOOTH",
"216 124 OFFCURVE",
"204 135 OFFCURVE",
"186 135 CURVE SMOOTH",
"165 135 OFFCURVE",
"145 119 OFFCURVE",
"145 81 CURVE SMOOTH",
"145 23 OFFCURVE",
"188 -10 OFFCURVE",
"248 -10 CURVE SMOOTH"
);
}
);
width = 500;
}
);
unicode = 2083;
},
{
color = 6;
glyphname = fourinferior;
layers = (
{
guideLines = (
{
angle = 233.6334;
position = "{129, 110}";
},
{
angle = 270;
position = "{251, 55}";
}
);
layerId = "94EC0173-ED25-4379-B549-8ECC2838F2C2";
paths = (
{
closed = 1;
nodes = (
"368 0 LINE",
"368 28 LINE",
"294 28 LINE",
"294 82 LINE",
"366 82 LINE",
"366 110 LINE",
"294 110 LINE",
"294 330 LINE",
"264 330 LINE",
"112 110 LINE",
"112 82 LINE",
"251 82 LINE",
"251 28 LINE",
"183 28 LINE",
"183 0 LINE"
);
},
{
closed = 1;
nodes = (
"251 276 LINE",
"251 110 LINE",
"139 110 LINE"
);
}
);
width = 500;
}
);
unicode = 2084;
},
{
color = 6;
glyphname = fiveinferior;
layers = (
{
guideLines = (
{
angle = 263.3456;
position = "{188, 181}";
}
);
layerId = "94EC0173-ED25-4379-B549-8ECC2838F2C2";
paths = (
{
closed = 1;
nodes = (
"397 -10 OFFCURVE",
"399 212 OFFCURVE",
"261 212 CURVE SMOOTH",
"224 212 OFFCURVE",
"197 194 OFFCURVE",
"188 181 CURVE",
"201 296 LINE",
"345 296 LINE",
"345 340 LINE",
"337 340 LINE",
"323 335 LINE",
"185 335 LINE",
"164 155 LINE",
"187 153 LINE",
"195 169 OFFCURVE",
"219 190 OFFCURVE",
"256 190 CURVE SMOOTH",
"296 190 OFFCURVE",
"312 166 OFFCURVE",
"312 134 CURVE SMOOTH",
"312 80 LINE SMOOTH",
"312 37 OFFCURVE",
"289 14 OFFCURVE",
"244 14 CURVE SMOOTH",
"211 14 OFFCURVE",
"178 27 OFFCURVE",
"174 61 CURVE",
"185 64 LINE SMOOTH",
"212 71 OFFCURVE",
"218 88 OFFCURVE",
"218 101 CURVE SMOOTH",
"218 119 OFFCURVE",
"206 130 OFFCURVE",
"188 130 CURVE SMOOTH",
"167 130 OFFCURVE",
"147 114 OFFCURVE",
"147 76 CURVE SMOOTH",
"147 18 OFFCURVE",
"195 -10 OFFCURVE",
"248 -10 CURVE SMOOTH"
);
}
);
width = 500;
}
);
unicode = 2085;
},
{
color = 6;
glyphname = sixinferior;
layers = (
{
layerId = "94EC0173-ED25-4379-B549-8ECC2838F2C2";
paths = (
{
closed = 1;
nodes = (
"395 -10 OFFCURVE",
"390 209 OFFCURVE",
"259 209 CURVE SMOOTH",
"209 209 OFFCURVE",
"184 176 OFFCURVE",
"178 151 CURVE",
"175 151 LINE",
"175 162 LINE SMOOTH",
"175 261 OFFCURVE",
"212 316 OFFCURVE",
"269 316 CURVE SMOOTH",
"291 316 OFFCURVE",
"318 308 OFFCURVE",
"321 288 CURVE",
"310 285 LINE SMOOTH",
"283 278 OFFCURVE",
"277 263 OFFCURVE",
"277 250 CURVE SMOOTH",
"277 232 OFFCURVE",
"289 221 OFFCURVE",
"307 221 CURVE SMOOTH",
"329 221 OFFCURVE",
"348 239 OFFCURVE",
"348 271 CURVE SMOOTH",
"348 322 OFFCURVE",
"302 340 OFFCURVE",
"262 340 CURVE SMOOTH",
"182 340 OFFCURVE",
"132 265 OFFCURVE",
"132 154 CURVE SMOOTH",
"132 41 OFFCURVE",
"181 -10 OFFCURVE",
"249 -10 CURVE SMOOTH"
);
},
{
closed = 1;
nodes = (
"215 14 OFFCURVE",
"192 38 OFFCURVE",
"192 81 CURVE SMOOTH",
"192 116 LINE SMOOTH",
"192 159 OFFCURVE",
"216 184 OFFCURVE",
"252 184 CURVE SMOOTH",
"285 184 OFFCURVE",
"308 159 OFFCURVE",
"308 116 CURVE SMOOTH",
"308 81 LINE SMOOTH",
"308 38 OFFCURVE",
"285 14 OFFCURVE",
"250 14 CURVE SMOOTH"
);
}
);
width = 500;
}
);
unicode = 2086;
},
{
color = 6;
glyphname = seveninferior;
layers = (
{
layerId = "94EC0173-ED25-4379-B549-8ECC2838F2C2";
paths = (
{
closed = 1;
nodes = (
"266 0 LINE",
"266 21 LINE SMOOTH",
"266 207 OFFCURVE",
"373 207 OFFCURVE",
"373 295 CURVE SMOOTH",
"373 328 OFFCURVE",
"360 340 OFFCURVE",
"346 340 CURVE SMOOTH",
"335 340 OFFCURVE",
"328 332 OFFCURVE",
"328 323 CURVE SMOOTH",
"328 312 OFFCURVE",
"338 306 OFFCURVE",
"342 304 CURVE SMOOTH",
"354 297 LINE",
"352 293 OFFCURVE",
"345 287 OFFCURVE",
"333 287 CURVE SMOOTH",
"294 287 OFFCURVE",
"253 340 OFFCURVE",
"213 340 CURVE SMOOTH",
"191 340 OFFCURVE",
"183 324 OFFCURVE",
"180 314 CURVE",
"178 314 LINE",
"178 335 LINE",
"158 335 LINE",
"158 232 LINE",
"178 232 LINE",
"178 252 LINE SMOOTH",
"178 273 OFFCURVE",
"178 298 OFFCURVE",
"201 298 CURVE SMOOTH",
"231 298 OFFCURVE",
"281 255 OFFCURVE",
"319 255 CURVE SMOOTH",
"340 255 OFFCURVE",
"350 270 OFFCURVE",
"355 280 CURVE",
"358 279 LINE",
"348 215 OFFCURVE",
"219 198 OFFCURVE",
"219 21 CURVE SMOOTH",
"219 0 LINE"
);
}
);
width = 500;
}
);
unicode = 2087;
},
{
color = 6;
glyphname = eightinferior;
layers = (
{
layerId = "94EC0173-ED25-4379-B549-8ECC2838F2C2";
paths = (
{
closed = 1;
nodes = (
"331 -10 OFFCURVE",
"360 45 OFFCURVE",
"360 96 CURVE SMOOTH",
"360 149 OFFCURVE",
"329 179 OFFCURVE",
"306 188 CURVE",
"306 192 LINE",
"323 199 OFFCURVE",
"346 223 OFFCURVE",
"346 260 CURVE SMOOTH",
"346 309 OFFCURVE",
"309 340 OFFCURVE",
"254 340 CURVE SMOOTH",
"200 340 OFFCURVE",
"162 309 OFFCURVE",
"162 260 CURVE SMOOTH",
"162 223 OFFCURVE",
"185 199 OFFCURVE",
"202 192 CURVE",
"202 188 LINE",
"179 179 OFFCURVE",
"148 149 OFFCURVE",
"148 96 CURVE SMOOTH",
"148 45 OFFCURVE",
"177 -10 OFFCURVE",
"254 -10 CURVE SMOOTH"
);
},
{
closed = 1;
nodes = (
"220 13 OFFCURVE",
"199 35 OFFCURVE",
"199 74 CURVE SMOOTH",
"199 116 LINE SMOOTH",
"199 155 OFFCURVE",
"220 177 OFFCURVE",
"254 177 CURVE SMOOTH",
"288 177 OFFCURVE",
"309 155 OFFCURVE",
"309 116 CURVE SMOOTH",
"309 74 LINE SMOOTH",
"309 35 OFFCURVE",
"288 13 OFFCURVE",
"254 13 CURVE SMOOTH"
);
},
{
closed = 1;
nodes = (
"226 201 OFFCURVE",
"209 219 OFFCURVE",
"209 251 CURVE SMOOTH",
"209 268 LINE SMOOTH",
"209 299 OFFCURVE",
"226 317 OFFCURVE",
"254 317 CURVE SMOOTH",
"282 317 OFFCURVE",
"299 299 OFFCURVE",
"299 268 CURVE SMOOTH",
"299 251 LINE SMOOTH",
"299 219 OFFCURVE",
"282 201 OFFCURVE",
"254 201 CURVE SMOOTH"
);
}
);
width = 500;
}
);
unicode = 2088;
},
{
color = 6;
glyphname = nineinferior;
layers = (
{
layerId = "94EC0173-ED25-4379-B549-8ECC2838F2C2";
paths = (
{
closed = 1;
nodes = (
"308 -10 OFFCURVE",
"358 65 OFFCURVE",
"358 176 CURVE SMOOTH",
"358 289 OFFCURVE",
"309 340 OFFCURVE",
"241 340 CURVE SMOOTH",
"95 340 OFFCURVE",
"100 121 OFFCURVE",
"231 121 CURVE SMOOTH",
"281 121 OFFCURVE",
"306 154 OFFCURVE",
"312 179 CURVE",
"315 179 LINE",
"315 168 LINE SMOOTH",
"315 69 OFFCURVE",
"278 14 OFFCURVE",
"221 14 CURVE SMOOTH",
"199 14 OFFCURVE",
"172 22 OFFCURVE",
"169 42 CURVE",
"180 45 LINE SMOOTH",
"207 52 OFFCURVE",
"213 67 OFFCURVE",
"213 80 CURVE SMOOTH",
"213 98 OFFCURVE",
"201 109 OFFCURVE",
"183 109 CURVE SMOOTH",
"161 109 OFFCURVE",
"142 91 OFFCURVE",
"142 59 CURVE SMOOTH",
"142 8 OFFCURVE",
"188 -10 OFFCURVE",
"228 -10 CURVE SMOOTH"
);
},
{
closed = 1;
nodes = (
"205 146 OFFCURVE",
"182 171 OFFCURVE",
"182 214 CURVE SMOOTH",
"182 249 LINE SMOOTH",
"182 292 OFFCURVE",
"205 316 OFFCURVE",
"240 316 CURVE SMOOTH",
"275 316 OFFCURVE",
"298 292 OFFCURVE",
"298 249 CURVE SMOOTH",
"298 214 LINE SMOOTH",
"298 171 OFFCURVE",
"274 146 OFFCURVE",
"238 146 CURVE SMOOTH"
);
}
);
width = 500;
}
);
unicode = 2089;
},
{
color = 6;
glyphname = fraction;
layers = (
{
layerId = "94EC0173-ED25-4379-B549-8ECC2838F2C2";
paths = (
{
closed = 1;
nodes = (
"106 0 LINE",
"418 740 LINE",
"389 740 LINE",
"77 0 LINE"
);
}
);
width = 500;
}
);
unicode = 2044;
},
{
color = 6;
glyphname = comma;
layers = (
{
anchors = (
{
name = _top;
position = "{250, -100}";
},
{
name = top;
position = "{250, 39}";
}
);
layerId = "94EC0173-ED25-4379-B549-8ECC2838F2C2";
paths = (
{
closed = 1;
nodes = (
"247 -77 OFFCURVE",
"305 -22 OFFCURVE",
"305 39 CURVE SMOOTH",
"305 81 OFFCURVE",
"279 100 OFFCURVE",
"250 100 CURVE SMOOTH",
"219 100 OFFCURVE",
"195 77 OFFCURVE",
"195 43 CURVE SMOOTH",
"195 7 OFFCURVE",
"222 -10 OFFCURVE",
"255 -10 CURVE",
"255 -33 OFFCURVE",
"219 -65 OFFCURVE",
"191 -83 CURVE",
"203 -101 LINE"
);
}
);
width = 500;
}
);
unicode = 002C;
},
{
color = 3;
glyphname = exclam;
layers = (
{
components = (
{
alignment = -1;
name = dotaccentcomb;
transform = "{1, 0, 0, 1, 5, -640}";
}
);
guideLines = (
{
position = "{237, 172}";
}
);
layerId = "94EC0173-ED25-4379-B549-8ECC2838F2C2";
paths = (
{
closed = 1;
nodes = (
"234 172 LINE",
"262 172 LINE",
"283 740 LINE",
"213 740 LINE"
);
}
);
width = 500;
}
);
unicode = 0021;
},
{
color = 6;
glyphname = exclamdown;
layers = (
{
anchors = (
{
name = _bottom;
position = "{248, 640}";
},
{
name = bottom;
position = "{248, 501}";
}
);
layerId = "94EC0173-ED25-4379-B549-8ECC2838F2C2";
paths = (
{
closed = 1;
nodes = (
"283 -200 LINE",
"262 368 LINE",
"234 368 LINE",
"213 -200 LINE"
);
},
{
closed = 1;
nodes = (
"279 440 OFFCURVE",
"303 464 OFFCURVE",
"303 495 CURVE SMOOTH",
"303 526 OFFCURVE",
"279 550 OFFCURVE",
"248 550 CURVE SMOOTH",
"217 550 OFFCURVE",
"193 526 OFFCURVE",
"193 495 CURVE SMOOTH",
"193 464 OFFCURVE",
"217 440 OFFCURVE",
"248 440 CURVE SMOOTH"
);
}
);
width = 500;
}
);
unicode = 00A1;
},
{
color = 3;
glyphname = question;
layers = (
{
components = (
{
alignment = -1;
name = dotaccentcomb;
transform = "{1, 0, 0, 1, -20, -640}";
}
);
guideLines = (
{
position = "{237, 172}";
}
);
layerId = "94EC0173-ED25-4379-B549-8ECC2838F2C2";
paths = (
{
closed = 1;
nodes = (
"237 380 OFFCURVE",
"435 414 OFFCURVE",
"435 577 CURVE SMOOTH",
"435 672 OFFCURVE",
"366 750 OFFCURVE",
"258 750 CURVE SMOOTH",
"137 750 OFFCURVE",
"68 649 OFFCURVE",
"68 559 CURVE SMOOTH",
"68 495 OFFCURVE",
"103 467 OFFCURVE",
"133 467 CURVE SMOOTH",
"157 467 OFFCURVE",
"179 485 OFFCURVE",
"179 515 CURVE SMOOTH",
"179 546 OFFCURVE",
"155 566 OFFCURVE",
"146 574 CURVE SMOOTH",
"105 612 LINE",
"115 656 OFFCURVE",
"157 715 OFFCURVE",
"235 715 CURVE SMOOTH",
"314 715 OFFCURVE",
"366 663 OFFCURVE",
"366 573 CURVE SMOOTH",
"366 417 OFFCURVE",
"209 384 OFFCURVE",
"209 197 CURVE SMOOTH",
"209 172 LINE",
"237 172 LINE",
"237 197 LINE SMOOTH"
);
}
);
width = 500;
}
);
unicode = 003F;
},
{
color = 6;
glyphname = questiondown;
layers = (
{
anchors = (
{
name = _bottom;
position = "{280, 640}";
},
{
name = bottom;
position = "{280, 501}";
}
);
layerId = "94EC0173-ED25-4379-B549-8ECC2838F2C2";
paths = (
{
closed = 1;
nodes = (
"366 -210 OFFCURVE",
"435 -109 OFFCURVE",
"435 -19 CURVE SMOOTH",
"435 45 OFFCURVE",
"400 73 OFFCURVE",
"370 73 CURVE SMOOTH",
"346 73 OFFCURVE",
"324 55 OFFCURVE",
"324 25 CURVE SMOOTH",
"324 -6 OFFCURVE",
"348 -26 OFFCURVE",
"357 -34 CURVE SMOOTH",
"398 -72 LINE",
"388 -116 OFFCURVE",
"346 -175 OFFCURVE",
"268 -175 CURVE SMOOTH",
"189 -175 OFFCURVE",
"137 -123 OFFCURVE",
"137 -33 CURVE SMOOTH",
"137 123 OFFCURVE",
"294 156 OFFCURVE",
"294 343 CURVE SMOOTH",
"294 368 LINE",
"266 368 LINE",
"266 343 LINE SMOOTH",
"266 160 OFFCURVE",
"68 126 OFFCURVE",
"68 -37 CURVE SMOOTH",
"68 -132 OFFCURVE",
"137 -210 OFFCURVE",
"245 -210 CURVE SMOOTH"
);
},
{
closed = 1;
nodes = (
"311 440 OFFCURVE",
"335 464 OFFCURVE",
"335 495 CURVE SMOOTH",
"335 526 OFFCURVE",
"311 550 OFFCURVE",
"280 550 CURVE SMOOTH",
"249 550 OFFCURVE",
"225 526 OFFCURVE",
"225 495 CURVE SMOOTH",
"225 464 OFFCURVE",
"249 440 OFFCURVE",
"280 440 CURVE SMOOTH"
);
}
);
width = 500;
}
);
unicode = 00BF;
},
{
color = 6;
glyphname = asterisk;
layers = (
{
layerId = "94EC0173-ED25-4379-B549-8ECC2838F2C2";
paths = (
{
closed = 1;
nodes = (
"248 522 LINE",
"252 522 LINE",
"334 374 LINE",
"391 415 LINE",
"275 539 LINE",
"276 543 LINE",
"442 575 LINE",
"421 641 LINE",
"268 569 LINE",
"264 572 LINE",
"285 740 LINE",
"215 740 LINE",
"236 572 LINE",
"232 569 LINE",
"79 641 LINE",
"57 575 LINE",
"224 543 LINE",
"225 539 LINE",
"109 415 LINE",
"166 374 LINE"
);
}
);
width = 500;
}
);
unicode = 002A;
},
{
color = 6;
glyphname = slash;
layers = (
{
layerId = "94EC0173-ED25-4379-B549-8ECC2838F2C2";
paths = (
{
closed = 1;
nodes = (
"82 -173 LINE",
"394 774 LINE",
"359 774 LINE",
"47 -173 LINE"
);
}
);
width = 500;
}
);
unicode = 002F;
},
{
color = 6;
glyphname = backslash;
layers = (
{
layerId = "94EC0173-ED25-4379-B549-8ECC2838F2C2";
paths = (
{
closed = 1;
nodes = (
"453 -173 LINE",
"141 774 LINE",
"106 774 LINE",
"418 -173 LINE"
);
}
);
width = 500;
}
);
unicode = 005C;
},
{
color = 6;
glyphname = parenleft;
layers = (
{
layerId = "94EC0173-ED25-4379-B549-8ECC2838F2C2";
paths = (
{
closed = 1;
nodes = (
"330 -122 LINE",
"274 -56 OFFCURVE",
"199 109 OFFCURVE",
"199 319 CURVE SMOOTH",
"199 529 OFFCURVE",
"274 694 OFFCURVE",
"330 760 CURVE",
"302 760 LINE",
"241 694 OFFCURVE",
"159 529 OFFCURVE",
"159 319 CURVE SMOOTH",
"159 109 OFFCURVE",
"241 -56 OFFCURVE",
"302 -122 CURVE"
);
}
);
width = 500;
}
);
unicode = 0028;
},
{
color = 6;
glyphname = parenright;
layers = (
{
layerId = "94EC0173-ED25-4379-B549-8ECC2838F2C2";
paths = (
{
closed = 1;
nodes = (
"207 -122 LINE",
"268 -56 OFFCURVE",
"350 109 OFFCURVE",
"350 319 CURVE SMOOTH",
"350 529 OFFCURVE",
"268 694 OFFCURVE",
"207 760 CURVE",
"179 760 LINE",
"235 694 OFFCURVE",
"310 529 OFFCURVE",
"310 319 CURVE SMOOTH",
"310 109 OFFCURVE",
"235 -56 OFFCURVE",
"179 -122 CURVE"
);
}
);
width = 500;
}
);
unicode = 0029;
},
{
color = 6;
glyphname = braceleft;
layers = (
{
layerId = "94EC0173-ED25-4379-B549-8ECC2838F2C2";
paths = (
{
closed = 1;
nodes = (
"376 -127 LINE",
"376 -103 LINE",
"328 -103 LINE SMOOTH",
"266 -103 OFFCURVE",
"241 -72 OFFCURVE",
"241 -25 CURVE SMOOTH",
"241 39 OFFCURVE",
"289 150 OFFCURVE",
"289 228 CURVE SMOOTH",
"289 276 OFFCURVE",
"265 319 OFFCURVE",
"206 319 CURVE",
"206 326 LINE",
"265 326 OFFCURVE",
"289 369 OFFCURVE",
"289 417 CURVE SMOOTH",
"289 495 OFFCURVE",
"241 606 OFFCURVE",
"241 670 CURVE SMOOTH",
"241 717 OFFCURVE",
"266 748 OFFCURVE",
"328 748 CURVE SMOOTH",
"376 748 LINE",
"376 772 LINE",
"322 772 LINE SMOOTH",
"241 772 OFFCURVE",
"201 729 OFFCURVE",
"201 668 CURVE SMOOTH",
"201 594 OFFCURVE",
"249 489 OFFCURVE",
"249 417 CURVE SMOOTH",
"249 350 OFFCURVE",
"208 336 OFFCURVE",
"166 336 CURVE SMOOTH",
"128 336 LINE",
"128 309 LINE",
"166 309 LINE SMOOTH",
"208 309 OFFCURVE",
"249 295 OFFCURVE",
"249 228 CURVE SMOOTH",
"249 156 OFFCURVE",
"201 51 OFFCURVE",
"201 -23 CURVE SMOOTH",
"201 -84 OFFCURVE",
"241 -127 OFFCURVE",
"322 -127 CURVE SMOOTH"
);
}
);
width = 500;
}
);
unicode = 007B;
},
{
color = 6;
glyphname = braceright;
layers = (
{
layerId = "94EC0173-ED25-4379-B549-8ECC2838F2C2";
paths = (
{
closed = 1;
nodes = (
"190 -127 LINE SMOOTH",
"271 -127 OFFCURVE",
"311 -84 OFFCURVE",
"311 -23 CURVE SMOOTH",
"311 51 OFFCURVE",
"263 156 OFFCURVE",
"263 228 CURVE SMOOTH",
"263 295 OFFCURVE",
"304 309 OFFCURVE",
"346 309 CURVE SMOOTH",
"384 309 LINE",
"384 336 LINE",
"346 336 LINE SMOOTH",
"304 336 OFFCURVE",
"263 350 OFFCURVE",
"263 417 CURVE SMOOTH",
"263 489 OFFCURVE",
"311 594 OFFCURVE",
"311 668 CURVE SMOOTH",
"311 729 OFFCURVE",
"271 772 OFFCURVE",
"190 772 CURVE SMOOTH",
"136 772 LINE",
"136 748 LINE",
"184 748 LINE SMOOTH",
"246 748 OFFCURVE",
"271 717 OFFCURVE",
"271 670 CURVE SMOOTH",
"271 606 OFFCURVE",
"223 495 OFFCURVE",
"223 417 CURVE SMOOTH",
"223 369 OFFCURVE",
"247 326 OFFCURVE",
"306 326 CURVE",
"306 319 LINE",
"247 319 OFFCURVE",
"223 276 OFFCURVE",
"223 228 CURVE SMOOTH",
"223 150 OFFCURVE",
"271 39 OFFCURVE",
"271 -25 CURVE SMOOTH",
"271 -72 OFFCURVE",
"246 -103 OFFCURVE",
"184 -103 CURVE SMOOTH",
"136 -103 LINE",
"136 -127 LINE"
);
}
);
width = 500;
}
);
unicode = 007D;
},
{
color = 6;
glyphname = bracketleft;
layers = (
{
layerId = "94EC0173-ED25-4379-B549-8ECC2838F2C2";
paths = (
{
closed = 1;
nodes = (
"356 -122 LINE",
"356 -96 LINE",
"225 -96 LINE",
"225 734 LINE",
"356 734 LINE",
"356 760 LINE",
"187 760 LINE",
"187 -121 LINE",
"189 -121 LINE",
"189 -122 LINE"
);
}
);
width = 500;
}
);
unicode = 005B;
},
{
color = 6;
glyphname = bracketright;
layers = (
{
layerId = "94EC0173-ED25-4379-B549-8ECC2838F2C2";
paths = (
{
closed = 1;
nodes = (
"354 -122 LINE",
"354 -121 LINE",
"356 -121 LINE",
"356 760 LINE",
"187 760 LINE",
"187 734 LINE",
"318 734 LINE",
"318 -96 LINE",
"187 -96 LINE",
"187 -122 LINE"
);
}
);
width = 500;
}
);
unicode = 005D;
},
{
color = 6;
glyphname = hyphen;
layers = (
{
layerId = "94EC0173-ED25-4379-B549-8ECC2838F2C2";
paths = (
{
closed = 1;
nodes = (
"376 291 LINE",
"376 325 LINE",
"112 325 LINE",
"112 291 LINE"
);
}
);
width = 500;
}
);
unicode = 002D;
},
{
color = 6;
glyphname = quotedblbase;
layers = (
{
anchors = (
{
name = _top;
position = "{402, -100}";
},
{
name = top;
position = "{402, 39}";
}
);
layerId = "94EC0173-ED25-4379-B549-8ECC2838F2C2";
paths = (
{
closed = 1;
nodes = (
"353 -77 OFFCURVE",
"411 -22 OFFCURVE",
"411 39 CURVE SMOOTH",
"411 81 OFFCURVE",
"385 100 OFFCURVE",
"356 100 CURVE SMOOTH",
"325 100 OFFCURVE",
"301 77 OFFCURVE",
"301 43 CURVE SMOOTH",
"301 7 OFFCURVE",
"328 -10 OFFCURVE",
"361 -10 CURVE",
"361 -33 OFFCURVE",
"325 -65 OFFCURVE",
"297 -83 CURVE",
"309 -101 LINE"
);
},
{
closed = 1;
nodes = (
"164 -77 OFFCURVE",
"222 -22 OFFCURVE",
"222 39 CURVE SMOOTH",
"222 81 OFFCURVE",
"196 100 OFFCURVE",
"167 100 CURVE SMOOTH",
"136 100 OFFCURVE",
"112 77 OFFCURVE",
"112 43 CURVE SMOOTH",
"112 7 OFFCURVE",
"139 -10 OFFCURVE",
"172 -10 CURVE",
"172 -33 OFFCURVE",
"136 -65 OFFCURVE",
"108 -83 CURVE",
"120 -101 LINE"
);
}
);
width = 500;
}
);
unicode = 201E;
},
{
color = 6;
glyphname = guilsinglleft;
layers = (
{
layerId = "94EC0173-ED25-4379-B549-8ECC2838F2C2";
paths = (
{
closed = 1;
nodes = (
"353 82 LINE",
"197 275 LINE",
"353 468 LINE",
"343 480 LINE",
"123 281 LINE",
"123 269 LINE",
"343 70 LINE"
);
}
);
width = 500;
}
);
unicode = 2039;
},
{
color = 6;
glyphname = guilsinglright;
layers = (
{
layerId = "94EC0173-ED25-4379-B549-8ECC2838F2C2";
paths = (
{
closed = 1;
nodes = (
"353 269 LINE",
"353 281 LINE",
"133 480 LINE",
"123 468 LINE",
"279 275 LINE",
"123 82 LINE",
"133 70 LINE"
);
}
);
width = 500;
}
);
unicode = 203A;
},
{
color = 6;
glyphname = quotesingle;
layers = (
{
layerId = "94EC0173-ED25-4379-B549-8ECC2838F2C2";
paths = (
{
closed = 1;
nodes = (
"262 450 LINE",
"283 740 LINE",
"213 740 LINE",
"234 450 LINE"
);
}
);
width = 500;
}
);
unicode = 0027;
},
{
color = 6;
glyphname = cent;
layers = (
{
layerId = "94EC0173-ED25-4379-B549-8ECC2838F2C2";
paths = (
{
closed = 1;
nodes = (
"370 -10 OFFCURVE",
"440 61 OFFCURVE",
"440 169 CURVE SMOOTH",
"440 194 LINE",
"408 194 LINE",
"408 169 LINE SMOOTH",
"408 48 OFFCURVE",
"330 26 OFFCURVE",
"279 26 CURVE SMOOTH",
"190 26 OFFCURVE",
"142 96 OFFCURVE",
"142 221 CURVE SMOOTH",
"142 321 LINE SMOOTH",
"142 444 OFFCURVE",
"196 519 OFFCURVE",
"290 519 CURVE SMOOTH",
"340 519 OFFCURVE",
"377 496 OFFCURVE",
"391 479 CURVE",
"367 438 OFFCURVE",
"343 420 OFFCURVE",
"343 393 CURVE SMOOTH",
"343 368 OFFCURVE",
"364 353 OFFCURVE",
"386 353 CURVE SMOOTH",
"412 353 OFFCURVE",
"441 373 OFFCURVE",
"441 420 CURVE SMOOTH",
"441 494 OFFCURVE",
"371 551 OFFCURVE",
"283 551 CURVE SMOOTH",
"155 551 OFFCURVE",
"68 429 OFFCURVE",
"68 264 CURVE SMOOTH",
"68 115 OFFCURVE",
"139 -10 OFFCURVE",
"271 -10 CURVE SMOOTH"
);
},
{
closed = 1;
nodes = (
"284 -92 LINE",
"284 633 LINE",
"254 633 LINE",
"254 -92 LINE"
);
}
);
width = 500;
}
);
unicode = 00A2;
},
{
color = 6;
glyphname = currency;
layers = (
{
layerId = "94EC0173-ED25-4379-B549-8ECC2838F2C2";
paths = (
{
closed = 1;
nodes = (
"138 322 LINE",
"168 299 OFFCURVE",
"206 285 OFFCURVE",
"252 285 CURVE SMOOTH",
"298 285 OFFCURVE",
"336 299 OFFCURVE",
"365 322 CURVE",
"450 237 LINE",
"472 258 LINE",
"387 342 LINE",
"416 375 OFFCURVE",
"431 418 OFFCURVE",
"431 464 CURVE SMOOTH",
"431 515 OFFCURVE",
"414 560 OFFCURVE",
"382 593 CURVE",
"472 683 LINE",
"450 704 LINE",
"359 612 LINE",
"331 633 OFFCURVE",
"295 644 OFFCURVE",
"252 644 CURVE SMOOTH",
"209 644 OFFCURVE",
"173 633 OFFCURVE",
"144 612 CURVE",
"53 704 LINE",
"32 683 LINE",
"121 593 LINE",
"90 560 OFFCURVE",
"72 515 OFFCURVE",
"72 464 CURVE SMOOTH",
"72 418 OFFCURVE",
"88 375 OFFCURVE",
"116 343 CURVE",
"32 258 LINE",
"53 237 LINE"
);
},
{
closed = 1;
nodes = (
"160 318 OFFCURVE",
"110 366 OFFCURVE",
"110 433 CURVE SMOOTH",
"110 496 LINE SMOOTH",
"110 563 OFFCURVE",
"160 611 OFFCURVE",
"252 611 CURVE SMOOTH",
"344 611 OFFCURVE",
"393 563 OFFCURVE",
"393 496 CURVE SMOOTH",
"393 433 LINE SMOOTH",
"393 366 OFFCURVE",
"344 318 OFFCURVE",
"252 318 CURVE SMOOTH"
);
}
);
width = 500;
}
);
unicode = 00A4;
},
{
color = 6;
glyphname = dollar;
layers = (
{
layerId = "94EC0173-ED25-4379-B549-8ECC2838F2C2";
paths = (
{
closed = 1;
nodes = (
"373 -10 OFFCURVE",
"441 55 OFFCURVE",
"441 156 CURVE SMOOTH",
"441 365 OFFCURVE",
"154 459 OFFCURVE",
"154 624 CURVE SMOOTH",
"154 683 OFFCURVE",
"191 719 OFFCURVE",
"261 719 CURVE SMOOTH",
"367 719 OFFCURVE",
"384 638 OFFCURVE",
"394 594 CURVE SMOOTH",
"401 563 LINE",
"419 563 LINE",
"419 730 LINE",
"381 739 OFFCURVE",
"312 751 OFFCURVE",
"262 751 CURVE SMOOTH",
"148 751 OFFCURVE",
"87 693 OFFCURVE",
"87 603 CURVE SMOOTH",
"87 408 OFFCURVE",
"374 323 OFFCURVE",
"374 136 CURVE SMOOTH",
"374 65 OFFCURVE",
"332 24 OFFCURVE",
"255 24 CURVE SMOOTH",
"133 24 OFFCURVE",
"108 129 OFFCURVE",
"102 168 CURVE SMOOTH",
"94 216 LINE",
"76 216 LINE",
"76 22 LINE",
"107 8 OFFCURVE",
"172 -10 OFFCURVE",
"240 -10 CURVE SMOOTH"
);
},
{
closed = 1;
nodes = (
"274 -103 LINE",
"274 844 LINE",
"244 844 LINE",
"244 -103 LINE"
);
}
);
width = 500;
}
);
unicode = 0024;
},
{
color = 6;
glyphname = euro;
layers = (
{
guideLines = (
{
position = "{519, 370}";
}
);
layerId = "94EC0173-ED25-4379-B549-8ECC2838F2C2";
paths = (
{
closed = 1;
nodes = (
"342 -10 OFFCURVE",
"390 7 OFFCURVE",
"412 20 CURVE",
"412 191 LINE",
"396 191 LINE",
"393 119 OFFCURVE",
"360 24 OFFCURVE",
"280 24 CURVE SMOOTH",
"212 24 OFFCURVE",
"163 88 OFFCURVE",
"163 205 CURVE SMOOTH",
"163 535 LINE SMOOTH",
"163 652 OFFCURVE",
"212 716 OFFCURVE",
"280 716 CURVE SMOOTH",
"360 716 OFFCURVE",
"393 621 OFFCURVE",
"396 549 CURVE",
"412 549 LINE",
"412 720 LINE",
"390 733 OFFCURVE",
"342 750 OFFCURVE",
"295 750 CURVE SMOOTH",
"127 750 OFFCURVE",
"79 553 OFFCURVE",
"79 370 CURVE SMOOTH",
"79 192 OFFCURVE",
"124 -10 OFFCURVE",
"294 -10 CURVE SMOOTH"
);
},
{
closed = 1;
nodes = (
"347 303 LINE",
"347 333 LINE",
"31 333 LINE",
"31 303 LINE"
);
},
{
closed = 1;
nodes = (
"347 408 LINE",
"347 438 LINE",
"31 438 LINE",
"31 408 LINE"
);
}
);
width = 500;
}
);
unicode = 20AC;
},
{
color = 6;
glyphname = sterling;
layers = (
{
layerId = "94EC0173-ED25-4379-B549-8ECC2838F2C2";
paths = (
{
closed = 1;
nodes = (
"420 -110 OFFCURVE",
"437 20 OFFCURVE",
"437 82 CURVE SMOOTH",
"437 120 LINE",
"408 120 LINE",
"408 82 LINE SMOOTH",
"408 31 OFFCURVE",
"389 -46 OFFCURVE",
"300 -46 CURVE SMOOTH",
"199 -46 OFFCURVE",
"157 75 OFFCURVE",
"87 75 CURVE SMOOTH",
"28 75 OFFCURVE",
"26 -10 OFFCURVE",
"108 -10 CURVE SMOOTH",
"173 -10 OFFCURVE",
"284 42 OFFCURVE",
"284 194 CURVE SMOOTH",
"284 323 OFFCURVE",
"197 446 OFFCURVE",
"197 586 CURVE SMOOTH",
"197 691 OFFCURVE",
"246 733 OFFCURVE",
"302 724 CURVE",
"330 674 LINE SMOOTH",
"338 660 OFFCURVE",
"355 628 OFFCURVE",
"393 628 CURVE SMOOTH",
"420 628 OFFCURVE",
"433 646 OFFCURVE",
"433 670 CURVE SMOOTH",
"433 720 OFFCURVE",
"376 750 OFFCURVE",
"300 750 CURVE SMOOTH",
"202 750 OFFCURVE",
"130 701 OFFCURVE",
"130 574 CURVE SMOOTH",
"130 436 OFFCURVE",
"216 319 OFFCURVE",
"216 179 CURVE SMOOTH",
"216 62 OFFCURVE",
"158 13 OFFCURVE",
"115 9 CURVE",
"163 3 LINE",
"144 26 LINE",
"165 -32 OFFCURVE",
"223 -110 OFFCURVE",
"303 -110 CURVE SMOOTH"
);
},
{
closed = 1;
nodes = (
"422 362 LINE",
"422 394 LINE",
"49 394 LINE",
"49 362 LINE"
);
}
);
width = 500;
}
);
unicode = 00A3;
},
{
color = 6;
glyphname = yen;
layers = (
{
guideLines = (
{
angle = 71.4397;
position = "{386, 706}";
},
{
angle = -69.8268;
position = "{129, 706}";
}
);
layerId = "94EC0173-ED25-4379-B549-8ECC2838F2C2";
paths = (
{
closed = 1;
nodes = (
"427 0 LINE",
"427 34 LINE",
"283 34 LINE",
"283 311 LINE",
"411 311 LINE",
"411 343 LINE",
"283 343 LINE",
"283 345 LINE",
"300 389 LINE",
"411 389 LINE",
"411 421 LINE",
"312 421 LINE",
"421 706 LINE",
"487 706 LINE",
"487 740 LINE",
"324 740 LINE",
"324 706 LINE",
"386 706 LINE",
"263 391 LINE",
"129 706 LINE",
"225 706 LINE",
"225 740 LINE",
"-16 740 LINE",
"-16 706 LINE",
"62 706 LINE",
"181 421 LINE",
"77 421 LINE",
"77 389 LINE",
"195 389 LINE",
"213 345 LINE",
"213 343 LINE",
"77 343 LINE",
"77 311 LINE",
"213 311 LINE",
"213 34 LINE",
"69 34 LINE",
"69 0 LINE"
);
}
);
width = 500;
}
);
unicode = 00A5;
},
{
color = 6;
glyphname = divisionslash;
layers = (
{
layerId = "94EC0173-ED25-4379-B549-8ECC2838F2C2";
paths = (
{
closed = 1;
nodes = (
"156 -143 LINE",
"408 804 LINE",
"373 804 LINE",
"121 -143 LINE"
);
}
);
width = 500;
}
);
unicode = 2215;
},
{
color = 6;
glyphname = plus;
layers = (
{
layerId = "94EC0173-ED25-4379-B549-8ECC2838F2C2";
paths = (
{
closed = 1;
nodes = (
"260 150 LINE",
"260 291 LINE",
"401 291 LINE",
"401 325 LINE",
"260 325 LINE",
"260 467 LINE",
"226 467 LINE",
"226 325 LINE",
"84 325 LINE",
"84 291 LINE",
"226 291 LINE",
"226 150 LINE"
);
}
);
width = 500;
}
);
unicode = 002B;
},
{
color = 6;
glyphname = divide;
layers = (
{
layerId = "94EC0173-ED25-4379-B549-8ECC2838F2C2";
paths = (
{
closed = 1;
nodes = (
"448 345 LINE",
"448 377 LINE",
"52 377 LINE",
"52 345 LINE"
);
},
{
closed = 1;
nodes = (
"281 175 OFFCURVE",
"305 199 OFFCURVE",
"305 230 CURVE SMOOTH",
"305 261 OFFCURVE",
"281 285 OFFCURVE",
"250 285 CURVE SMOOTH",
"219 285 OFFCURVE",
"195 261 OFFCURVE",
"195 230 CURVE SMOOTH",
"195 199 OFFCURVE",
"219 175 OFFCURVE",
"250 175 CURVE SMOOTH"
);
},
{
closed = 1;
nodes = (
"281 447 OFFCURVE",
"305 471 OFFCURVE",
"305 502 CURVE SMOOTH",
"305 533 OFFCURVE",
"281 557 OFFCURVE",
"250 557 CURVE SMOOTH",
"219 557 OFFCURVE",
"195 533 OFFCURVE",
"195 502 CURVE SMOOTH",
"195 471 OFFCURVE",
"219 447 OFFCURVE",
"250 447 CURVE SMOOTH"
);
}
);
width = 500;
}
);
unicode = 00F7;
},
{
color = 6;
glyphname = equal;
layers = (
{
layerId = "94EC0173-ED25-4379-B549-8ECC2838F2C2";
paths = (
{
closed = 1;
nodes = (
"396.248 342 LINE",
"396.248 376 LINE",
"101.882 376 LINE",
"101.882 342 LINE"
);
},
{
closed = 1;
nodes = (
"396.246 214 LINE",
"396.246 248 LINE",
"101.882 248 LINE",
"101.882 214 LINE"
);
}
);
width = 500;
}
);
unicode = 003D;
},
{
color = 6;
glyphname = notequal;
layers = (
{
layerId = "94EC0173-ED25-4379-B549-8ECC2838F2C2";
paths = (
{
closed = 1;
nodes = (
"184 133 LINE",
"351 457 LINE",
"314 457 LINE",
"147 133 LINE"
);
},
{
closed = 1;
nodes = (
"396 214 LINE",
"396 248 LINE",
"102 248 LINE",
"102 214 LINE"
);
},
{
closed = 1;
nodes = (
"396 342 LINE",
"396 376 LINE",
"102 376 LINE",
"102 342 LINE"
);
}
);
width = 500;
}
);
unicode = 2260;
},
{
color = 6;
glyphname = less;
layers = (
{
layerId = "94EC0173-ED25-4379-B549-8ECC2838F2C2";
paths = (
{
closed = 1;
nodes = (
"425 99 LINE",
"154 308 LINE",
"425 517 LINE",
"417 531 LINE",
"60 316 LINE",
"60 300 LINE",
"417 85 LINE"
);
}
);
width = 500;
}
);
unicode = 003C;
},
{
color = 6;
glyphname = greaterequal;
layers = (
{
layerId = "94EC0173-ED25-4379-B549-8ECC2838F2C2";
paths = (
{
closed = 1;
nodes = (
"447 350 LINE",
"447 366 LINE",
"90 531 LINE",
"82 517 LINE",
"333 358 LINE",
"82 199 LINE",
"90 185 LINE"
);
},
{
closed = 1;
nodes = (
"447 87 LINE",
"447 117 LINE",
"60 117 LINE",
"60 87 LINE"
);
}
);
width = 500;
}
);
unicode = 2265;
},
{
color = 6;
glyphname = lessequal;
layers = (
{
layerId = "94EC0173-ED25-4379-B549-8ECC2838F2C2";
paths = (
{
closed = 1;
nodes = (
"425 199 LINE",
"174 358 LINE",
"425 517 LINE",
"417 531 LINE",
"60 366 LINE",
"60 350 LINE",
"417 185 LINE"
);
},
{
closed = 1;
nodes = (
"447 87 LINE",
"447 117 LINE",
"60 117 LINE",
"60 87 LINE"
);
}
);
width = 500;
}
);
unicode = 2264;
},
{
color = 6;
glyphname = plusminus;
layers = (
{
layerId = "94EC0173-ED25-4379-B549-8ECC2838F2C2";
paths = (
{
closed = 1;
nodes = (
"271 235 LINE",
"271 333 LINE",
"447 333 LINE",
"447 363 LINE",
"271 363 LINE",
"271 462 LINE",
"237 462 LINE",
"237 363 LINE",
"60 363 LINE",
"60 333 LINE",
"237 333 LINE",
"237 235 LINE"
);
},
{
closed = 1;
nodes = (
"447 87 LINE",
"447 117 LINE",
"60 117 LINE",
"60 87 LINE"
);
}
);
width = 500;
}
);
unicode = 00B1;
},
{
color = 6;
glyphname = approxequal;
layers = (
{
layerId = "94EC0173-ED25-4379-B549-8ECC2838F2C2";
paths = (
{
closed = 1;
nodes = (
"423 341 OFFCURVE",
"419 415 OFFCURVE",
"419 434 CURVE",
"406 434 LINE",
"406 406 OFFCURVE",
"389 388 OFFCURVE",
"350 388 CURVE SMOOTH",
"285 388 OFFCURVE",
"225 439 OFFCURVE",
"157 439 CURVE SMOOTH",
"76 439 OFFCURVE",
"80 365 OFFCURVE",
"80 346 CURVE",
"93 346 LINE",
"93 374 OFFCURVE",
"110 392 OFFCURVE",
"149 392 CURVE SMOOTH",
"214 392 OFFCURVE",
"274 341 OFFCURVE",
"342 341 CURVE SMOOTH"
);
},
{
closed = 1;
nodes = (
"423 189 OFFCURVE",
"419 263 OFFCURVE",
"419 282 CURVE",
"406 282 LINE",
"406 254 OFFCURVE",
"389 236 OFFCURVE",
"350 236 CURVE SMOOTH",
"285 236 OFFCURVE",
"225 287 OFFCURVE",
"157 287 CURVE SMOOTH",
"76 287 OFFCURVE",
"80 213 OFFCURVE",
"80 194 CURVE",
"93 194 LINE",
"93 222 OFFCURVE",
"110 240 OFFCURVE",
"149 240 CURVE SMOOTH",
"214 240 OFFCURVE",
"274 189 OFFCURVE",
"342 189 CURVE SMOOTH"
);
}
);
width = 500;
}
);
unicode = 2248;
},
{
color = 6;
glyphname = asciitilde;
layers = (
{
layerId = "94EC0173-ED25-4379-B549-8ECC2838F2C2";
paths = (
{
closed = 1;
nodes = (
"364 588 OFFCURVE",
"370 660 OFFCURVE",
"370 681 CURVE",
"357 681 LINE",
"357 652 OFFCURVE",
"344 635 OFFCURVE",
"324 635 CURVE SMOOTH",
"289 635 OFFCURVE",
"235 686 OFFCURVE",
"190 686 CURVE SMOOTH",
"136 686 OFFCURVE",
"130 614 OFFCURVE",
"130 593 CURVE",
"143 593 LINE",
"143 622 OFFCURVE",
"156 639 OFFCURVE",
"176 639 CURVE SMOOTH",
"211 639 OFFCURVE",
"265 588 OFFCURVE",
"310 588 CURVE SMOOTH"
);
}
);
width = 500;
}
);
unicode = 007E;
},
{
color = 6;
glyphname = logicalnot;
layers = (
{
layerId = "94EC0173-ED25-4379-B549-8ECC2838F2C2";
paths = (
{
closed = 1;
nodes = (
"415 341 LINE",
"415 375 LINE",
"85 375 LINE",
"85 341 LINE"
);
},
{
closed = 1;
nodes = (
"415 197 LINE",
"415 375 LINE",
"383 375 LINE",
"383 197 LINE"
);
}
);
width = 500;
}
);
unicode = 00AC;
},
{
color = 6;
glyphname = asciicircum;
layers = (
{
layerId = "94EC0173-ED25-4379-B549-8ECC2838F2C2";
paths = (
{
closed = 1;
nodes = (
"168 510 LINE",
"251 656 LINE",
"334 510 LINE",
"346 510 LINE",
"271 750 LINE",
"231 750 LINE",
"156 510 LINE"
);
}
);
width = 500;
}
);
unicode = 005E;
},
{
color = 6;
glyphname = micro;
layers = (
{
layerId = "94EC0173-ED25-4379-B549-8ECC2838F2C2";
paths = (
{
closed = 1;
nodes = (
"56 -190 OFFCURVE",
"82 -116 OFFCURVE",
"97 -70 CURVE SMOOTH",
"102 -55 LINE",
"98 40 LINE",
"111 40 LINE SMOOTH",
"110 19 OFFCURVE",
"123 -10 OFFCURVE",
"162 -10 CURVE SMOOTH",
"256 -10 OFFCURVE",
"315 136 OFFCURVE",
"352 247 CURVE",
"367 247 LINE",
"311 77 LINE SMOOTH",
"291 17 OFFCURVE",
"323 -10 OFFCURVE",
"359 -10 CURVE SMOOTH",
"406 -10 OFFCURVE",
"437 39 OFFCURVE",
"480 97 CURVE SMOOTH",
"503 128 LINE",
"486 141 LINE",
"460 106 LINE SMOOTH",
"430 66 OFFCURVE",
"413 42 OFFCURVE",
"392 42 CURVE SMOOTH",
"371 42 OFFCURVE",
"376 65 OFFCURVE",
"380 84 CURVE SMOOTH",
"477 540 LINE",
"408 540 LINE",
"330 175 OFFCURVE",
"264 43 OFFCURVE",
"195 43 CURVE SMOOTH",
"158 43 OFFCURVE",
"147 81 OFFCURVE",
"165 136 CURVE SMOOTH",
"302 550 LINE",
"278 550 LINE",
"229 525 LINE",
"104 512 LINE",
"99 488 LINE",
"218 488 LINE",
"31 -70 LINE SMOOTH",
"13 -124 OFFCURVE",
"3 -165 OFFCURVE",
"-33 -165 CURVE SMOOTH",
"-41 -165 OFFCURVE",
"-47 -163 OFFCURVE",
"-49 -162 CURVE",
"-56 -128 LINE SMOOTH",
"-62 -101 OFFCURVE",
"-75 -60 OFFCURVE",
"-114 -60 CURVE SMOOTH",
"-142 -60 OFFCURVE",
"-161 -81 OFFCURVE",
"-161 -108 CURVE SMOOTH",
"-161 -152 OFFCURVE",
"-110 -190 OFFCURVE",
"-41 -190 CURVE SMOOTH"
);
}
);
width = 500;
}
);
unicode = 00B5;
},
{
color = 3;
glyphname = percent;
layers = (
{
components = (
{
name = doubleo;
}
);
layerId = "94EC0173-ED25-4379-B549-8ECC2838F2C2";
paths = (
{
closed = 1;
nodes = (
"452 651 LINE",
"423 669 LINE",
"84 130 LINE",
"113 112 LINE"
);
}
);
width = 500;
}
);
unicode = 0025;
},
{
color = 6;
glyphname = perthousand;
layers = (
{
layerId = "94EC0173-ED25-4379-B549-8ECC2838F2C2";
paths = (
{
closed = 1;
nodes = (
"411 519 LINE",
"390 545 LINE",
"34 269 LINE",
"55 242 LINE"
);
},
{
closed = 1;
nodes = (
"171 13 OFFCURVE",
"143 33 OFFCURVE",
"143 95 CURVE SMOOTH",
"143 145 LINE SMOOTH",
"143 207 OFFCURVE",
"171 227 OFFCURVE",
"200 227 CURVE SMOOTH",
"229 227 OFFCURVE",
"257 207 OFFCURVE",
"257 145 CURVE SMOOTH",
"257 95 LINE SMOOTH",
"257 33 OFFCURVE",
"229 13 OFFCURVE",
"200 13 CURVE SMOOTH"
);
},
{
closed = 1;
nodes = (
"238 -10 OFFCURVE",
"266 7 OFFCURVE",
"284 32 CURVE",
"302 7 OFFCURVE",
"330 -10 OFFCURVE",
"368 -10 CURVE SMOOTH",
"516 -10 OFFCURVE",
"516 250 OFFCURVE",
"368 250 CURVE SMOOTH",
"330 250 OFFCURVE",
"302 233 OFFCURVE",
"284 208 CURVE",
"266 233 OFFCURVE",
"238 250 OFFCURVE",
"200 250 CURVE SMOOTH",
"52 250 OFFCURVE",
"52 -10 OFFCURVE",
"200 -10 CURVE SMOOTH"
);
},
{
closed = 1;
nodes = (
"339 13 OFFCURVE",
"311 33 OFFCURVE",
"311 95 CURVE SMOOTH",
"311 145 LINE SMOOTH",
"311 207 OFFCURVE",
"339 227 OFFCURVE",
"368 227 CURVE SMOOTH",
"397 227 OFFCURVE",
"425 207 OFFCURVE",
"425 145 CURVE SMOOTH",
"425 95 LINE SMOOTH",
"425 33 OFFCURVE",
"397 13 OFFCURVE",
"368 13 CURVE SMOOTH"
);
},
{
closed = 1;
nodes = (
"280 490 OFFCURVE",
"280 750 OFFCURVE",
"132 750 CURVE SMOOTH",
"-16 750 OFFCURVE",
"-16 490 OFFCURVE",
"132 490 CURVE SMOOTH"
);
},
{
closed = 1;
nodes = (
"103 513 OFFCURVE",
"75 533 OFFCURVE",
"75 595 CURVE SMOOTH",
"75 645 LINE SMOOTH",
"75 707 OFFCURVE",
"103 727 OFFCURVE",
"132 727 CURVE SMOOTH",
"161 727 OFFCURVE",
"189 707 OFFCURVE",
"189 645 CURVE SMOOTH",
"189 595 LINE SMOOTH",
"189 533 OFFCURVE",
"161 513 OFFCURVE",
"132 513 CURVE SMOOTH"
);
}
);
width = 500;
}
);
unicode = 2030;
},
{
color = 6;
glyphname = lozenge;
layers = (
{
layerId = "94EC0173-ED25-4379-B549-8ECC2838F2C2";
paths = (
{
closed = 1;
nodes = (
"269 -32 LINE",
"448 371 LINE",
"269 774 LINE",
"236 774 LINE",
"57 371 LINE",
"236 -32 LINE"
);
},
{
closed = 1;
nodes = (
"90 371 LINE",
"253 737 LINE",
"415 371 LINE",
"253 5 LINE"
);
}
);
width = 500;
}
);
unicode = 25CA;
},
{
color = 6;
glyphname = at;
layers = (
{
layerId = "94EC0173-ED25-4379-B549-8ECC2838F2C2";
paths = (
{
closed = 1;
nodes = (
"346 -10 OFFCURVE",
"414 42 OFFCURVE",
"439 81 CURVE",
"418 98 LINE",
"396 63 OFFCURVE",
"336 17 OFFCURVE",
"255 18 CURVE SMOOTH",
"135 20 OFFCURVE",
"49 106 OFFCURVE",
"49 268 CURVE SMOOTH",
"49 472 LINE SMOOTH",
"49 634 OFFCURVE",
"129 722 OFFCURVE",
"250 722 CURVE SMOOTH",
"371 722 OFFCURVE",
"451 634 OFFCURVE",
"451 472 CURVE SMOOTH",
"451 241 LINE SMOOTH",
"451 214 OFFCURVE",
"440 199 OFFCURVE",
"422 199 CURVE SMOOTH",
"403 199 OFFCURVE",
"392 214 OFFCURVE",
"392 241 CURVE SMOOTH",
"392 555 LINE",
"334 555 LINE",
"334 490 LINE",
"331 490 LINE",
"320 522 OFFCURVE",
"286 565 OFFCURVE",
"231 565 CURVE SMOOTH",
"141 565 OFFCURVE",
"95 462 OFFCURVE",
"95 359 CURVE SMOOTH",
"95 257 OFFCURVE",
"140 155 OFFCURVE",
"230 155 CURVE SMOOTH",
"285 155 OFFCURVE",
"320 198 OFFCURVE",
"331 230 CURVE",
"335 230 LINE",
"340 181 OFFCURVE",
"369 155 OFFCURVE",
"410 155 CURVE SMOOTH",
"461 155 OFFCURVE",
"481 194 OFFCURVE",
"481 240 CURVE SMOOTH",
"481 468 LINE SMOOTH",
"481 651 OFFCURVE",
"390 750 OFFCURVE",
"250 750 CURVE SMOOTH",
"110 750 OFFCURVE",
"19 651 OFFCURVE",
"19 468 CURVE SMOOTH",
"19 272 LINE SMOOTH",
"19 89 OFFCURVE",
"116 -10 OFFCURVE",
"255 -10 CURVE SMOOTH"
);
},
{
closed = 1;
nodes = (
"202 191 OFFCURVE",
"166 215 OFFCURVE",
"166 297 CURVE SMOOTH",
"166 423 LINE SMOOTH",
"166 505 OFFCURVE",
"202 529 OFFCURVE",
"242 529 CURVE SMOOTH",
"301 529 OFFCURVE",
"329 465 OFFCURVE",
"334 416 CURVE",
"334 304 LINE",
"329 255 OFFCURVE",
"301 191 OFFCURVE",
"242 191 CURVE SMOOTH"
);
}
);
width = 500;
}
);
unicode = 0040;
},
{
color = 6;
glyphname = ampersand;
layers = (
{
guideLines = (
{
angle = 31.3571;
position = "{150, 440}";
},
{
angle = -55.9896;
position = "{367, 192}";
}
);
layerId = "94EC0173-ED25-4379-B549-8ECC2838F2C2";
paths = (
{
closed = 1;
nodes = (
"524 0 LINE",
"524 28 LINE",
"490 33 OFFCURVE",
"470 44 OFFCURVE",
"446 79 CURVE SMOOTH",
"175 481 LINE SMOOTH",
"143 528 OFFCURVE",
"109 573 OFFCURVE",
"109 630 CURVE SMOOTH",
"109 696 OFFCURVE",
"150 722 OFFCURVE",
"190 722 CURVE SMOOTH",
"235 722 OFFCURVE",
"269 688 OFFCURVE",
"269 629 CURVE SMOOTH",
"269 550 OFFCURVE",
"209 513 OFFCURVE",
"198 506 CURVE SMOOTH",
"161 483 LINE",
"178 459 LINE",
"212 481 LINE SMOOTH",
"252 507 OFFCURVE",
"322 552 OFFCURVE",
"322 631 CURVE SMOOTH",
"322 699 OFFCURVE",
"273 750 OFFCURVE",
"191 750 CURVE SMOOTH",
"108 750 OFFCURVE",
"53 695 OFFCURVE",
"53 613 CURVE SMOOTH",
"53 546 OFFCURVE",
"85 499 OFFCURVE",
"118 450 CURVE SMOOTH",
"421 0 LINE"
);
},
{
closed = 1;
nodes = (
"271 -10 OFFCURVE",
"333 31 OFFCURVE",
"370 99 CURVE",
"349 130 LINE",
"322 67 OFFCURVE",
"272 22 OFFCURVE",
"200 22 CURVE SMOOTH",
"121 22 OFFCURVE",
"69 77 OFFCURVE",
"69 157 CURVE SMOOTH",
"69 298 LINE SMOOTH",
"69 375 OFFCURVE",
"105 411 OFFCURVE",
"140 435 CURVE",
"123 459 LINE",
"67 421 OFFCURVE",
"3 357 OFFCURVE",
"3 224 CURVE SMOOTH",
"3 85 OFFCURVE",
"75 -10 OFFCURVE",
"193 -10 CURVE SMOOTH"
);
},
{
closed = 1;
nodes = (
"399 177 OFFCURVE",
"404 212 OFFCURVE",
"404 250 CURVE SMOOTH",
"404 414 LINE",
"372 414 LINE",
"372 251 LINE SMOOTH",
"372 227 OFFCURVE",
"369 203 OFFCURVE",
"365 181 CURVE",
"389 145 LINE"
);
},
{
closed = 1;
nodes = (
"474 414 LINE",
"473 442 LINE",
"309 442 LINE",
"310 414 LINE"
);
}
);
width = 500;
}
);
unicode = 0026;
},
{
color = 6;
glyphname = paragraph;
layers = (
{
layerId = "94EC0173-ED25-4379-B549-8ECC2838F2C2";
paths = (
{
closed = 1;
nodes = (
"329 -100 LINE",
"329 706 LINE",
"366 706 LINE",
"366 -100 LINE",
"396 -100 LINE",
"396 706 LINE",
"440 706 LINE",
"440 740 LINE",
"299 740 LINE SMOOTH",
"135 740 OFFCURVE",
"53 628 OFFCURVE",
"53 515 CURVE SMOOTH",
"53 403 OFFCURVE",
"135 290 OFFCURVE",
"299 290 CURVE",
"299 -100 LINE"
);
}
);
width = 500;
}
);
unicode = 00B6;
},
{
color = 6;
glyphname = section;
layers = (
{
layerId = "94EC0173-ED25-4379-B549-8ECC2838F2C2";
paths = (
{
closed = 1;
nodes = (
"353 -171 OFFCURVE",
"431 -105 OFFCURVE",
"431 -1 CURVE SMOOTH",
"431 54 OFFCURVE",
"400 101 OFFCURVE",
"358 145 CURVE",
"358 154 LINE",
"416 173 OFFCURVE",
"456 218 OFFCURVE",
"456 289 CURVE SMOOTH",
"456 481 OFFCURVE",
"139 572 OFFCURVE",
"139 721 CURVE SMOOTH",
"139 771 OFFCURVE",
"172 812 OFFCURVE",
"227 812 CURVE SMOOTH",
"308 812 OFFCURVE",
"356 736 OFFCURVE",
"356 607 CURVE SMOOTH",
"356 577 LINE",
"408 577 LINE",
"408 845 LINE",
"376 845 LINE",
"376 734 LINE",
"368 734 LINE",
"356 772 OFFCURVE",
"318 845 OFFCURVE",
"224 845 CURVE SMOOTH",
"134 845 OFFCURVE",
"72 779 OFFCURVE",
"72 697 CURVE SMOOTH",
"72 641 OFFCURVE",
"104 594 OFFCURVE",
"149 551 CURVE",
"149 542 LINE",
"89 526 OFFCURVE",
"47 481 OFFCURVE",
"47 408 CURVE SMOOTH",
"47 219 OFFCURVE",
"364 138 OFFCURVE",
"364 -25 CURVE SMOOTH",
"364 -96 OFFCURVE",
"320 -137 OFFCURVE",
"256 -137 CURVE SMOOTH",
"124 -137 OFFCURVE",
"114 37 OFFCURVE",
"114 95 CURVE SMOOTH",
"114 134 LINE",
"62 134 LINE",
"62 -161 LINE",
"94 -161 LINE",
"94 -28 LINE",
"102 -28 LINE",
"108 -68 OFFCURVE",
"143 -171 OFFCURVE",
"259 -171 CURVE SMOOTH"
);
},
{
closed = 1;
nodes = (
"240 255 OFFCURVE",
"114 329 OFFCURVE",
"114 431 CURVE SMOOTH",
"114 478 OFFCURVE",
"138 514 OFFCURVE",
"180 524 CURVE",
"271 444 OFFCURVE",
"389 373 OFFCURVE",
"389 266 CURVE SMOOTH",
"389 219 OFFCURVE",
"368 185 OFFCURVE",
"333 170 CURVE"
);
}
);
width = 500;
}
);
unicode = 00A7;
},
{
color = 3;
glyphname = copyright;
layers = (
{
components = (
{
name = smallc;
transform = "{1, 0, 0, 1, 10, 85}";
}
);
layerId = "94EC0173-ED25-4379-B549-8ECC2838F2C2";
paths = (
{
closed = 1;
nodes = (
"415 -10 OFFCURVE",
"496 180 OFFCURVE",
"496 370 CURVE SMOOTH",
"496 560 OFFCURVE",
"415 750 OFFCURVE",
"250 750 CURVE SMOOTH",
"85 750 OFFCURVE",
"4 560 OFFCURVE",
"4 370 CURVE SMOOTH",
"4 180 OFFCURVE",
"85 -10 OFFCURVE",
"250 -10 CURVE SMOOTH"
);
},
{
closed = 1;
nodes = (
"106 18 OFFCURVE",
"34 195 OFFCURVE",
"34 371 CURVE SMOOTH",
"34 547 OFFCURVE",
"106 722 OFFCURVE",
"250 722 CURVE SMOOTH",
"394 722 OFFCURVE",
"466 547 OFFCURVE",
"466 371 CURVE SMOOTH",
"466 195 OFFCURVE",
"394 18 OFFCURVE",
"250 18 CURVE SMOOTH"
);
}
);
width = 500;
}
);
unicode = 00A9;
},
{
color = 3;
glyphname = registered;
layers = (
{
components = (
{
name = smallr;
transform = "{1, 0, 0, 1, 26, -81}";
}
);
layerId = "94EC0173-ED25-4379-B549-8ECC2838F2C2";
paths = (
{
closed = 1;
nodes = (
"388 293 OFFCURVE",
"457 405 OFFCURVE",
"457 517 CURVE SMOOTH",
"457 628 OFFCURVE",
"388 740 OFFCURVE",
"250 740 CURVE SMOOTH",
"112 740 OFFCURVE",
"43 629 OFFCURVE",
"43 518 CURVE SMOOTH",
"43 406 OFFCURVE",
"113 293 OFFCURVE",
"250 293 CURVE SMOOTH"
);
},
{
closed = 1;
nodes = (
"130 317 OFFCURVE",
"69 418 OFFCURVE",
"69 518 CURVE SMOOTH",
"69 617 OFFCURVE",
"129 716 OFFCURVE",
"250 716 CURVE SMOOTH",
"371 716 OFFCURVE",
"431 617 OFFCURVE",
"431 517 CURVE SMOOTH",
"431 417 OFFCURVE",
"370 317 OFFCURVE",
"250 317 CURVE SMOOTH"
);
}
);
width = 500;
}
);
unicode = 00AE;
},
{
color = 6;
glyphname = trademark;
layers = (
{
guideLines = (
{
angle = -76.6429;
position = "{306, 746}";
},
{
angle = 76.3955;
position = "{425, 746}";
}
);
layerId = "94EC0173-ED25-4379-B549-8ECC2838F2C2";
paths = (
{
closed = 1;
nodes = (
"315 438 LINE",
"315 453 LINE",
"285 455 LINE",
"285 657 LINE",
"337 438 LINE",
"360 438 LINE",
"413 657 LINE",
"413 455 LINE",
"391 453 LINE",
"391 438 LINE",
"472 438 LINE",
"472 453 LINE",
"445 455 LINE",
"445 732 LINE",
"472 734 LINE",
"472 746 LINE",
"415 746 LINE",
"355 498 LINE",
"296 746 LINE",
"244 746 LINE",
"244 734 LINE",
"266 732 LINE",
"266 455 LINE",
"244 453 LINE",
"244 438 LINE"
);
},
{
closed = 1;
nodes = (
"203 438 LINE",
"203 453 LINE",
"148 459 LINE",
"148 728 LINE",
"168 728 LINE SMOOTH",
"188 728 OFFCURVE",
"200 718 OFFCURVE",
"203 698 CURVE SMOOTH",
"209 656 LINE",
"221 656 LINE",
"221 750 LINE",
"214 750 LINE",
"201 746 LINE",
"59 746 LINE",
"47 750 LINE",
"39 750 LINE",
"39 656 LINE",
"52 656 LINE",
"58 698 LINE SMOOTH",
"61 718 OFFCURVE",
"72 728 OFFCURVE",
"92 728 CURVE SMOOTH",
"113 728 LINE",
"113 459 LINE",
"58 453 LINE",
"58 438 LINE"
);
}
);
width = 500;
}
);
unicode = 2122;
},
{
color = 6;
glyphname = degree;
layers = (
{
layerId = "94EC0173-ED25-4379-B549-8ECC2838F2C2";
paths = (
{
closed = 1;
nodes = (
"319 540 OFFCURVE",
"359 587 OFFCURVE",
"359 645 CURVE SMOOTH",
"359 703 OFFCURVE",
"319 750 OFFCURVE",
"254 750 CURVE SMOOTH",
"189 750 OFFCURVE",
"149 703 OFFCURVE",
"149 645 CURVE SMOOTH",
"149 587 OFFCURVE",
"189 540 OFFCURVE",
"254 540 CURVE SMOOTH"
);
},
{
closed = 1;
nodes = (
"207 570 OFFCURVE",
"182 603 OFFCURVE",
"182 645 CURVE SMOOTH",
"182 687 OFFCURVE",
"207 720 OFFCURVE",
"254 720 CURVE SMOOTH",
"301 720 OFFCURVE",
"326 687 OFFCURVE",
"326 645 CURVE SMOOTH",
"326 603 OFFCURVE",
"301 570 OFFCURVE",
"254 570 CURVE SMOOTH"
);
}
);
width = 500;
}
);
unicode = 00B0;
},
{
color = 6;
glyphname = bar;
layers = (
{
layerId = "94EC0173-ED25-4379-B549-8ECC2838F2C2";
paths = (
{
closed = 1;
nodes = (
"258 -173 LINE",
"258 774 LINE",
"224 774 LINE",
"224 -173 LINE"
);
}
);
width = 500;
}
);
unicode = 007C;
},
{
color = 6;
glyphname = brokenbar;
layers = (
{
layerId = "94EC0173-ED25-4379-B549-8ECC2838F2C2";
paths = (
{
closed = 1;
nodes = (
"258 391 LINE",
"258 774 LINE",
"224 774 LINE",
"224 391 LINE"
);
},
{
closed = 1;
nodes = (
"258 -173 LINE",
"258 210 LINE",
"224 210 LINE",
"224 -173 LINE"
);
}
);
width = 500;
}
);
unicode = 00A6;
},
{
color = 6;
glyphname = dagger;
layers = (
{
guideLines = (
{
angle = 90;
position = "{259, 770}";
}
);
layerId = "94EC0173-ED25-4379-B549-8ECC2838F2C2";
paths = (
{
closed = 1;
nodes = (
"257 -112 LINE",
"278 -30 OFFCURVE",
"285 33 OFFCURVE",
"281 121 CURVE SMOOTH",
"260 582 LINE",
"265 585 LINE",
"269 578 OFFCURVE",
"284 569 OFFCURVE",
"310 569 CURVE SMOOTH",
"370 569 LINE SMOOTH",
"403 569 OFFCURVE",
"413 549 OFFCURVE",
"413 526 CURVE SMOOTH",
"413 450 LINE",
"441 450 LINE",
"441 642 LINE",
"412 642 LINE",
"412 568 LINE",
"408 568 LINE",
"404 597 OFFCURVE",
"384 633 OFFCURVE",
"332 633 CURVE SMOOTH",
"296 633 OFFCURVE",
"272 614 OFFCURVE",
"265 600 CURVE",
"259 604 LINE",
"263 620 LINE SMOOTH",
"280 688 OFFCURVE",
"286 713 OFFCURVE",
"286 729 CURVE SMOOTH",
"286 758 OFFCURVE",
"269 773 OFFCURVE",
"250 773 CURVE SMOOTH",
"231 773 OFFCURVE",
"214 758 OFFCURVE",
"214 729 CURVE SMOOTH",
"214 713 OFFCURVE",
"220 688 OFFCURVE",
"237 620 CURVE SMOOTH",
"241 604 LINE",
"235 600 LINE",
"228 614 OFFCURVE",
"205 633 OFFCURVE",
"168 633 CURVE SMOOTH",
"116 633 OFFCURVE",
"96 597 OFFCURVE",
"92 568 CURVE",
"88 568 LINE",
"88 642 LINE",
"59 642 LINE",
"59 450 LINE",
"87 450 LINE",
"87 526 LINE SMOOTH",
"87 549 OFFCURVE",
"97 569 OFFCURVE",
"130 569 CURVE SMOOTH",
"190 569 LINE SMOOTH",
"216 569 OFFCURVE",
"231 578 OFFCURVE",
"235 585 CURVE",
"240 582 LINE",
"219 121 LINE SMOOTH",
"215 33 OFFCURVE",
"222 -29 OFFCURVE",
"243 -112 CURVE"
);
}
);
width = 500;
}
);
unicode = 2020;
},
{
color = 6;
glyphname = daggerdbl;
layers = (
{
layerId = "94EC0173-ED25-4379-B549-8ECC2838F2C2";
paths = (
{
closed = 1;
nodes = (
"257 348 LINE",
"278 435 OFFCURVE",
"277 484 OFFCURVE",
"269 531 CURVE SMOOTH",
"260 582 LINE",
"264 585 LINE",
"268 578 OFFCURVE",
"281 569 OFFCURVE",
"300 569 CURVE SMOOTH",
"370 569 LINE SMOOTH",
"403 569 OFFCURVE",
"413 549 OFFCURVE",
"413 526 CURVE SMOOTH",
"413 450 LINE",
"441 450 LINE",
"441 642 LINE",
"412 642 LINE",
"412 568 LINE",
"408 568 LINE",
"404 597 OFFCURVE",
"384 633 OFFCURVE",
"332 633 CURVE SMOOTH",
"296 633 OFFCURVE",
"272 614 OFFCURVE",
"265 600 CURVE",
"259 604 LINE",
"263 620 LINE SMOOTH",
"280 688 OFFCURVE",
"286 713 OFFCURVE",
"286 729 CURVE SMOOTH",
"286 758 OFFCURVE",
"269 773 OFFCURVE",
"250 773 CURVE SMOOTH",
"231 773 OFFCURVE",
"214 758 OFFCURVE",
"214 729 CURVE SMOOTH",
"214 713 OFFCURVE",
"220 688 OFFCURVE",
"237 620 CURVE SMOOTH",
"241 604 LINE",
"235 600 LINE",
"228 614 OFFCURVE",
"205 633 OFFCURVE",
"168 633 CURVE SMOOTH",
"116 633 OFFCURVE",
"96 597 OFFCURVE",
"92 568 CURVE",
"88 568 LINE",
"88 642 LINE",
"59 642 LINE",
"59 450 LINE",
"87 450 LINE",
"87 526 LINE SMOOTH",
"87 549 OFFCURVE",
"97 569 OFFCURVE",
"130 569 CURVE SMOOTH",
"200 569 LINE SMOOTH",
"219 569 OFFCURVE",
"232 578 OFFCURVE",
"236 585 CURVE",
"240 582 LINE",
"231 531 LINE SMOOTH",
"223 484 OFFCURVE",
"222 436 OFFCURVE",
"243 348 CURVE"
);
},
{
closed = 1;
nodes = (
"269 -112 OFFCURVE",
"286 -97 OFFCURVE",
"286 -68 CURVE SMOOTH",
"286 -52 OFFCURVE",
"280 -27 OFFCURVE",
"263 41 CURVE SMOOTH",
"259 57 LINE",
"265 61 LINE",
"272 47 OFFCURVE",
"296 28 OFFCURVE",
"332 28 CURVE SMOOTH",
"384 28 OFFCURVE",
"404 64 OFFCURVE",
"408 93 CURVE",
"412 93 LINE",
"412 19 LINE",
"441 19 LINE",
"441 211 LINE",
"413 211 LINE",
"413 135 LINE SMOOTH",
"413 112 OFFCURVE",
"403 92 OFFCURVE",
"370 92 CURVE SMOOTH",
"300 92 LINE SMOOTH",
"281 92 OFFCURVE",
"268 83 OFFCURVE",
"264 76 CURVE",
"260 79 LINE",
"269 130 LINE SMOOTH",
"277 177 OFFCURVE",
"278 226 OFFCURVE",
"257 313 CURVE",
"243 313 LINE",
"222 225 OFFCURVE",
"223 177 OFFCURVE",
"231 130 CURVE SMOOTH",
"240 79 LINE",
"236 76 LINE",
"232 83 OFFCURVE",
"219 92 OFFCURVE",
"200 92 CURVE SMOOTH",
"130 92 LINE SMOOTH",
"97 92 OFFCURVE",
"87 112 OFFCURVE",
"87 135 CURVE SMOOTH",
"87 211 LINE",
"59 211 LINE",
"59 19 LINE",
"88 19 LINE",
"88 93 LINE",
"92 93 LINE",
"96 64 OFFCURVE",
"116 28 OFFCURVE",
"168 28 CURVE SMOOTH",
"205 28 OFFCURVE",
"228 47 OFFCURVE",
"235 61 CURVE",
"241 57 LINE",
"237 41 LINE SMOOTH",
"220 -27 OFFCURVE",
"214 -52 OFFCURVE",
"214 -68 CURVE SMOOTH",
"214 -97 OFFCURVE",
"231 -112 OFFCURVE",
"250 -112 CURVE SMOOTH"
);
}
);
width = 500;
}
);
unicode = 2021;
},
{
color = 6;
glyphname = dieresiscomb;
layers = (
{
anchors = (
{
name = _top;
position = "{324, 540}";
},
{
name = top;
position = "{324, 735}";
}
);
layerId = "94EC0173-ED25-4379-B549-8ECC2838F2C2";
paths = (
{
closed = 1;
nodes = (
"425 605 OFFCURVE",
"447 627 OFFCURVE",
"447 655 CURVE SMOOTH",
"447 683 OFFCURVE",
"425 705 OFFCURVE",
"397 705 CURVE SMOOTH",
"368 705 OFFCURVE",
"347 683 OFFCURVE",
"347 655 CURVE SMOOTH",
"347 627 OFFCURVE",
"368 605 OFFCURVE",
"397 605 CURVE SMOOTH"
);
},
{
closed = 1;
nodes = (
"279 605 OFFCURVE",
"300 627 OFFCURVE",
"300 655 CURVE SMOOTH",
"300 683 OFFCURVE",
"279 705 OFFCURVE",
"250 705 CURVE SMOOTH",
"222 705 OFFCURVE",
"200 683 OFFCURVE",
"200 655 CURVE SMOOTH",
"200 627 OFFCURVE",
"222 605 OFFCURVE",
"250 605 CURVE SMOOTH"
);
}
);
width = 500;
}
);
unicode = 0308;
},
{
color = 6;
glyphname = dotaccentcomb;
layers = (
{
anchors = (
{
name = _top;
position = "{243, 540}";
},
{
name = top;
position = "{243, 679}";
}
);
layerId = "94EC0173-ED25-4379-B549-8ECC2838F2C2";
paths = (
{
closed = 1;
nodes = (
"274 630 OFFCURVE",
"298 654 OFFCURVE",
"298 685 CURVE SMOOTH",
"298 716 OFFCURVE",
"274 740 OFFCURVE",
"243 740 CURVE SMOOTH",
"212 740 OFFCURVE",
"188 716 OFFCURVE",
"188 685 CURVE SMOOTH",
"188 654 OFFCURVE",
"212 630 OFFCURVE",
"243 630 CURVE SMOOTH"
);
}
);
width = 500;
}
);
unicode = 0307;
},
{
color = 6;
glyphname = gravecomb;
layers = (
{
anchors = (
{
name = _top;
position = "{262, 540}";
},
{
name = top;
position = "{246, 740}";
}
);
layerId = "94EC0173-ED25-4379-B549-8ECC2838F2C2";
paths = (
{
closed = 1;
nodes = (
"276 580 LINE",
"266 760 LINE",
"196 760 LINE",
"264 580 LINE"
);
}
);
width = 500;
}
);
unicode = 0300;
},
{
color = 6;
glyphname = acutecomb;
layers = (
{
anchors = (
{
name = _top;
position = "{210, 540}";
},
{
name = top;
position = "{226, 740}";
}
);
layerId = "94EC0173-ED25-4379-B549-8ECC2838F2C2";
paths = (
{
closed = 1;
nodes = (
"208 580 LINE",
"276 760 LINE",
"206 760 LINE",
"196 580 LINE"
);
}
);
width = 500;
}
);
unicode = 0301;
},
{
color = 6;
glyphname = hungarumlautcomb;
layers = (
{
anchors = (
{
name = _top;
position = "{249, 540}";
},
{
name = top;
position = "{274, 760}";
}
);
layerId = "94EC0173-ED25-4379-B549-8ECC2838F2C2";
paths = (
{
closed = 1;
nodes = (
"304 580 LINE",
"362 760 LINE",
"302 760 LINE",
"292 580 LINE"
);
},
{
closed = 1;
nodes = (
"208 580 LINE",
"266 760 LINE",
"206 760 LINE",
"196 580 LINE"
);
}
);
width = 500;
}
);
unicode = 030B;
},
{
color = 6;
glyphname = circumflexcomb;
layers = (
{
anchors = (
{
name = _top;
position = "{261, 540}";
},
{
name = top;
position = "{346, 661}";
}
);
layerId = "94EC0173-ED25-4379-B549-8ECC2838F2C2";
paths = (
{
closed = 1;
nodes = (
"188 580 LINE",
"261 686 LINE",
"334 580 LINE",
"346 580 LINE",
"281 750 LINE",
"241 750 LINE",
"176 580 LINE"
);
}
);
width = 500;
}
);
unicode = 0302;
},
{
color = 6;
glyphname = caroncomb;
layers = (
{
anchors = (
{
name = _top;
position = "{261, 540}";
},
{
name = top;
position = "{261, 750}";
}
);
layerId = "94EC0173-ED25-4379-B549-8ECC2838F2C2";
paths = (
{
closed = 1;
nodes = (
"281 580 LINE",
"346 750 LINE",
"334 750 LINE",
"261 644 LINE",
"188 750 LINE",
"176 750 LINE",
"241 580 LINE"
);
}
);
width = 500;
}
);
unicode = 030C;
},
{
color = 6;
glyphname = brevecomb;
layers = (
{
anchors = (
{
name = _top;
position = "{214, 540}";
},
{
name = top;
position = "{214, 680}";
}
);
layerId = "94EC0173-ED25-4379-B549-8ECC2838F2C2";
paths = (
{
closed = 1;
nodes = (
"283 596 OFFCURVE",
"298 684 OFFCURVE",
"290 750 CURVE",
"272 750 LINE",
"278 706 OFFCURVE",
"266 648 OFFCURVE",
"214 648 CURVE SMOOTH",
"162 648 OFFCURVE",
"151 706 OFFCURVE",
"157 750 CURVE",
"139 750 LINE",
"131 684 OFFCURVE",
"145 596 OFFCURVE",
"214 596 CURVE SMOOTH"
);
}
);
width = 500;
}
);
unicode = 0306;
},
{
color = 6;
glyphname = ringcomb;
layers = (
{
anchors = (
{
name = _top;
position = "{310, 540}";
},
{
name = top;
position = "{310, 740}";
}
);
layerId = "94EC0173-ED25-4379-B549-8ECC2838F2C2";
paths = (
{
closed = 1;
nodes = (
"361 584 OFFCURVE",
"393 621 OFFCURVE",
"393 667 CURVE SMOOTH",
"393 713 OFFCURVE",
"361 750 OFFCURVE",
"310 750 CURVE SMOOTH",
"259 750 OFFCURVE",
"227 713 OFFCURVE",
"227 667 CURVE SMOOTH",
"227 621 OFFCURVE",
"259 584 OFFCURVE",
"310 584 CURVE SMOOTH"
);
},
{
closed = 1;
nodes = (
"275 611 OFFCURVE",
"256 636 OFFCURVE",
"256 667 CURVE SMOOTH",
"256 698 OFFCURVE",
"275 723 OFFCURVE",
"310 723 CURVE SMOOTH",
"345 723 OFFCURVE",
"364 698 OFFCURVE",
"364 667 CURVE SMOOTH",
"364 636 OFFCURVE",
"345 611 OFFCURVE",
"310 611 CURVE SMOOTH"
);
}
);
width = 500;
}
);
unicode = 030A;
},
{
color = 6;
glyphname = tildecomb;
layers = (
{
anchors = (
{
name = _top;
position = "{258, 540}";
},
{
name = top;
position = "{258, 733}";
}
);
layerId = "94EC0173-ED25-4379-B549-8ECC2838F2C2";
paths = (
{
closed = 1;
nodes = (
"348 607 OFFCURVE",
"348 680 OFFCURVE",
"348 700 CURVE",
"335 700 LINE",
"335 672 OFFCURVE",
"328 654 OFFCURVE",
"310 654 CURVE SMOOTH",
"280 654 OFFCURVE",
"261 705 OFFCURVE",
"219 705 CURVE SMOOTH",
"168 705 OFFCURVE",
"168 632 OFFCURVE",
"168 612 CURVE",
"181 612 LINE",
"181 640 OFFCURVE",
"188 658 OFFCURVE",
"206 658 CURVE SMOOTH",
"236 658 OFFCURVE",
"255 607 OFFCURVE",
"297 607 CURVE SMOOTH"
);
}
);
width = 500;
}
);
unicode = 0303;
},
{
color = 6;
glyphname = macroncomb;
layers = (
{
anchors = (
{
name = _top;
position = "{244, 540}";
},
{
name = top;
position = "{244, 668}";
}
);
layerId = "94EC0173-ED25-4379-B549-8ECC2838F2C2";
paths = (
{
closed = 1;
nodes = (
"376 637.9 LINE",
"376 668.5 LINE",
"112 668.5 LINE",
"112 637.9 LINE"
);
}
);
width = 500;
}
);
unicode = 0304;
},
{
color = 6;
glyphname = hookabovecomb;
layers = (
{
anchors = (
{
name = _top;
position = "{129, 540}";
},
{
name = top;
position = "{125, 750}";
}
);
layerId = "94EC0173-ED25-4379-B549-8ECC2838F2C2";
paths = (
{
closed = 1;
nodes = (
"134 590 LINE",
"134 596 LINE SMOOTH",
"134 643 OFFCURVE",
"192 653 OFFCURVE",
"192 701 CURVE SMOOTH",
"192 732 OFFCURVE",
"167 754 OFFCURVE",
"127 754 CURVE SMOOTH",
"80 754 OFFCURVE",
"59 723 OFFCURVE",
"59 696 CURVE SMOOTH",
"59 676 OFFCURVE",
"71 663 OFFCURVE",
"88 663 CURVE SMOOTH",
"105 663 OFFCURVE",
"112 675 OFFCURVE",
"112 685 CURVE SMOOTH",
"112 698 OFFCURVE",
"102 704 OFFCURVE",
"92 709 CURVE SMOOTH",
"86 712 LINE",
"89 720 OFFCURVE",
"99 731 OFFCURVE",
"117 731 CURVE SMOOTH",
"134 731 OFFCURVE",
"150 721 OFFCURVE",
"150 696 CURVE SMOOTH",
"150 659 OFFCURVE",
"114 654 OFFCURVE",
"114 596 CURVE SMOOTH",
"114 590 LINE"
);
}
);
width = 500;
}
);
unicode = 0309;
},
{
color = 6;
glyphname = commaturnedabovecomb;
layers = (
{
anchors = (
{
name = _top;
position = "{223, 540}";
},
{
name = top;
position = "{223, 761}";
}
);
layerId = "94EC0173-ED25-4379-B549-8ECC2838F2C2";
paths = (
{
closed = 1;
nodes = (
"248.9 580 OFFCURVE",
"270.5 600.7 OFFCURVE",
"270.5 631.3 CURVE SMOOTH",
"270.5 663.7 OFFCURVE",
"246.2 679 OFFCURVE",
"216.5 679 CURVE",
"217 700 OFFCURVE",
"249 729 OFFCURVE",
"274.1 744.7 CURVE",
"263.3 760.9 LINE",
"224 739 OFFCURVE",
"172 690 OFFCURVE",
"171.5 634.9 CURVE SMOOTH",
"171.5 597.1 OFFCURVE",
"194.9 580 OFFCURVE",
"221 580 CURVE SMOOTH"
);
}
);
width = 500;
}
);
unicode = 0312;
},
{
color = 6;
glyphname = horncomb;
layers = (
{
anchors = (
{
name = _topright;
position = "{355, 508}";
},
{
name = topright;
position = "{489, 646}";
}
);
layerId = "94EC0173-ED25-4379-B549-8ECC2838F2C2";
paths = (
{
closed = 1;
nodes = (
"373 483 LINE SMOOTH",
"445 483 OFFCURVE",
"461 539 OFFCURVE",
"461 574 CURVE SMOOTH",
"461 616 OFFCURVE",
"436 627 OFFCURVE",
"415 627 CURVE SMOOTH",
"390 627 OFFCURVE",
"372 611 OFFCURVE",
"372 585 CURVE SMOOTH",
"372 558 OFFCURVE",
"396 539 OFFCURVE",
"426 545 CURVE",
"426 530 OFFCURVE",
"410 508 OFFCURVE",
"373 508 CURVE SMOOTH",
"355 508 LINE",
"355 483 LINE"
);
}
);
width = 500;
}
);
unicode = 031B;
},
{
color = 6;
glyphname = dotbelowcomb;
layers = (
{
anchors = (
{
name = _bottom;
position = "{226, 0}";
},
{
name = bottom;
position = "{226, -171}";
}
);
layerId = "94EC0173-ED25-4379-B549-8ECC2838F2C2";
paths = (
{
closed = 1;
nodes = (
"253.6 -171 OFFCURVE",
"275.2 -149.4 OFFCURVE",
"275.2 -121.5 CURVE SMOOTH",
"275.2 -93.6 OFFCURVE",
"253.6 -72 OFFCURVE",
"225.7 -72 CURVE SMOOTH",
"197.8 -72 OFFCURVE",
"176.2 -93.6 OFFCURVE",
"176.2 -121.5 CURVE SMOOTH",
"176.2 -149.4 OFFCURVE",
"197.8 -171 OFFCURVE",
"225.7 -171 CURVE SMOOTH"
);
}
);
width = 500;
}
);
unicode = 0323;
},
{
color = 6;
glyphname = commaaccentcomb;
layers = (
{
anchors = (
{
name = _bottom;
position = "{223, 0}";
},
{
name = bottom;
position = "{223, -207}";
}
);
layerId = "94EC0173-ED25-4379-B549-8ECC2838F2C2";
paths = (
{
closed = 1;
nodes = (
"222 -185 OFFCURVE",
"275 -136 OFFCURVE",
"274.5 -80.9 CURVE SMOOTH",
"274.5 -43.1 OFFCURVE",
"251.1 -26 OFFCURVE",
"225 -26 CURVE SMOOTH",
"197.1 -26 OFFCURVE",
"175.5 -46.7 OFFCURVE",
"175.5 -77.3 CURVE SMOOTH",
"175.5 -109.7 OFFCURVE",
"199.8 -125 OFFCURVE",
"229.5 -125 CURVE",
"230 -146 OFFCURVE",
"197 -175 OFFCURVE",
"171.9 -190.7 CURVE",
"182.7 -206.9 LINE"
);
}
);
width = 500;
}
);
unicode = 0326;
},
{
color = 6;
glyphname = cedillacomb;
layers = (
{
anchors = (
{
name = _bottom;
position = "{193, 0}";
},
{
name = bottom;
position = "{193, -213}";
}
);
layerId = "94EC0173-ED25-4379-B549-8ECC2838F2C2";
paths = (
{
closed = 1;
nodes = (
"274 -213 OFFCURVE",
"294 -168 OFFCURVE",
"294 -133 CURVE SMOOTH",
"294 -89 OFFCURVE",
"262 -43 OFFCURVE",
"173 -50 CURVE",
"197 -8 LINE",
"164 -8 LINE",
"123 -86 LINE",
"132 -91 LINE",
"144 -86 OFFCURVE",
"158 -84 OFFCURVE",
"171 -84 CURVE SMOOTH",
"220 -84 OFFCURVE",
"252 -106 OFFCURVE",
"252 -142 CURVE SMOOTH",
"252 -168 OFFCURVE",
"235 -193 OFFCURVE",
"196 -193 CURVE SMOOTH",
"184 -193 OFFCURVE",
"174 -190 OFFCURVE",
"170 -188 CURVE",
"166 -165 LINE SMOOTH",
"163 -148 OFFCURVE",
"155 -118 OFFCURVE",
"124 -118 CURVE SMOOTH",
"100 -118 OFFCURVE",
"91 -137 OFFCURVE",
"91 -153 CURVE SMOOTH",
"91 -189 OFFCURVE",
"135 -213 OFFCURVE",
"194 -213 CURVE SMOOTH"
);
}
);
width = 500;
}
);
unicode = 0327;
},
{
color = 6;
glyphname = ogonekcomb;
layers = (
{
anchors = (
{
name = _ogonek;
position = "{224, 0}";
}
);
layerId = "94EC0173-ED25-4379-B549-8ECC2838F2C2";
paths = (
{
closed = 1;
nodes = (
"273 -176 OFFCURVE",
"302 -134 OFFCURVE",
"310 -102 CURVE",
"298 -96 LINE",
"292 -111 OFFCURVE",
"273 -131 OFFCURVE",
"242 -131 CURVE SMOOTH",
"212 -131 OFFCURVE",
"190 -113 OFFCURVE",
"190 -77 CURVE SMOOTH",
"190 -36 OFFCURVE",
"222 -9 OFFCURVE",
"247 0 CURVE",
"217 0 LINE",
"187 -12 OFFCURVE",
"148 -47 OFFCURVE",
"148 -99 CURVE SMOOTH",
"148 -156 OFFCURVE",
"188 -176 OFFCURVE",
"223 -176 CURVE SMOOTH"
);
}
);
width = 500;
}
);
unicode = 0328;
},
{
color = 6;
glyphname = brevecomb_acutecomb;
layers = (
{
anchors = (
{
name = _top;
position = "{214, 540}";
},
{
name = top;
position = "{230, 880}";
}
);
layerId = "94EC0173-ED25-4379-B549-8ECC2838F2C2";
paths = (
{
closed = 1;
nodes = (
"283 596 OFFCURVE",
"298 684 OFFCURVE",
"290 750 CURVE",
"272 750 LINE",
"278 706 OFFCURVE",
"266 648 OFFCURVE",
"214 648 CURVE SMOOTH",
"162 648 OFFCURVE",
"151 706 OFFCURVE",
"157 750 CURVE",
"139 750 LINE",
"131 684 OFFCURVE",
"145 596 OFFCURVE",
"214 596 CURVE SMOOTH"
);
},
{
closed = 1;
nodes = (
"212 720 LINE",
"280 900 LINE",
"210 900 LINE",
"200 720 LINE"
);
}
);
width = 500;
}
);
},
{
color = 6;
glyphname = brevecomb_gravecomb;
layers = (
{
anchors = (
{
name = _top;
position = "{214, 540}";
},
{
name = top;
position = "{198, 880}";
}
);
layerId = "94EC0173-ED25-4379-B549-8ECC2838F2C2";
paths = (
{
closed = 1;
nodes = (
"283 596 OFFCURVE",
"298 684 OFFCURVE",
"290 750 CURVE",
"272 750 LINE",
"278 706 OFFCURVE",
"266 648 OFFCURVE",
"214 648 CURVE SMOOTH",
"162 648 OFFCURVE",
"151 706 OFFCURVE",
"157 750 CURVE",
"139 750 LINE",
"131 684 OFFCURVE",
"145 596 OFFCURVE",
"214 596 CURVE SMOOTH"
);
},
{
closed = 1;
nodes = (
"228 720 LINE",
"218 900 LINE",
"148 900 LINE",
"216 720 LINE"
);
}
);
width = 500;
}
);
},
{
color = 6;
glyphname = brevecomb_hookabovecomb;
layers = (
{
anchors = (
{
name = _top;
position = "{214, 540}";
},
{
name = top;
position = "{210, 890}";
}
);
layerId = "94EC0173-ED25-4379-B549-8ECC2838F2C2";
paths = (
{
closed = 1;
nodes = (
"283 596 OFFCURVE",
"298 684 OFFCURVE",
"290 750 CURVE",
"272 750 LINE",
"278 706 OFFCURVE",
"266 648 OFFCURVE",
"214 648 CURVE SMOOTH",
"162 648 OFFCURVE",
"151 706 OFFCURVE",
"157 750 CURVE",
"139 750 LINE",
"131 684 OFFCURVE",
"145 596 OFFCURVE",
"214 596 CURVE SMOOTH"
);
},
{
closed = 1;
nodes = (
"219 730 LINE",
"219 736 LINE SMOOTH",
"219 783 OFFCURVE",
"277 793 OFFCURVE",
"277 841 CURVE SMOOTH",
"277 872 OFFCURVE",
"252 894 OFFCURVE",
"212 894 CURVE SMOOTH",
"165 894 OFFCURVE",
"144 863 OFFCURVE",
"144 836 CURVE SMOOTH",
"144 816 OFFCURVE",
"156 803 OFFCURVE",
"173 803 CURVE SMOOTH",
"190 803 OFFCURVE",
"197 815 OFFCURVE",
"197 825 CURVE SMOOTH",
"197 838 OFFCURVE",
"187 844 OFFCURVE",
"177 849 CURVE SMOOTH",
"171 852 LINE",
"174 860 OFFCURVE",
"184 871 OFFCURVE",
"202 871 CURVE SMOOTH",
"219 871 OFFCURVE",
"235 861 OFFCURVE",
"235 836 CURVE SMOOTH",
"235 799 OFFCURVE",
"199 794 OFFCURVE",
"199 736 CURVE SMOOTH",
"199 730 LINE"
);
}
);
width = 500;
}
);
},
{
color = 6;
glyphname = brevecomb_tildecomb;
layers = (
{
anchors = (
{
name = _top;
position = "{218, 540}";
},
{
name = top;
position = "{218, 885}";
}
);
layerId = "94EC0173-ED25-4379-B549-8ECC2838F2C2";
paths = (
{
closed = 1;
nodes = (
"283 596 OFFCURVE",
"298 684 OFFCURVE",
"290 750 CURVE",
"272 750 LINE",
"278 706 OFFCURVE",
"266 648 OFFCURVE",
"214 648 CURVE SMOOTH",
"162 648 OFFCURVE",
"151 706 OFFCURVE",
"157 750 CURVE",
"139 750 LINE",
"131 684 OFFCURVE",
"145 596 OFFCURVE",
"214 596 CURVE SMOOTH"
);
},
{
closed = 1;
nodes = (
"308 767 OFFCURVE",
"308 840 OFFCURVE",
"308 860 CURVE",
"295 860 LINE",
"295 832 OFFCURVE",
"288 814 OFFCURVE",
"270 814 CURVE SMOOTH",
"240 814 OFFCURVE",
"221 865 OFFCURVE",
"179 865 CURVE SMOOTH",
"128 865 OFFCURVE",
"128 792 OFFCURVE",
"128 772 CURVE",
"141 772 LINE",
"141 800 OFFCURVE",
"148 818 OFFCURVE",
"166 818 CURVE SMOOTH",
"196 818 OFFCURVE",
"215 767 OFFCURVE",
"257 767 CURVE SMOOTH"
);
}
);
width = 500;
}
);
},
{
color = 6;
glyphname = circumflexcomb_acutecomb;
layers = (
{
anchors = (
{
name = _top;
position = "{261, 540}";
},
{
name = top;
position = "{362, 861}";
}
);
layerId = "94EC0173-ED25-4379-B549-8ECC2838F2C2";
paths = (
{
closed = 1;
nodes = (
"188 580 LINE",
"261 686 LINE",
"334 580 LINE",
"346 580 LINE",
"281 750 LINE",
"241 750 LINE",
"176 580 LINE"
);
},
{
closed = 1;
nodes = (
"344 701 LINE",
"412 881 LINE",
"342 881 LINE",
"332 701 LINE"
);
}
);
width = 500;
}
);
},
{
color = 6;
glyphname = circumflexcomb_gravecomb;
layers = (
{
anchors = (
{
name = _top;
position = "{261, 540}";
},
{
name = top;
position = "{330, 861}";
}
);
layerId = "94EC0173-ED25-4379-B549-8ECC2838F2C2";
paths = (
{
closed = 1;
nodes = (
"188 580 LINE",
"261 686 LINE",
"334 580 LINE",
"346 580 LINE",
"281 750 LINE",
"241 750 LINE",
"176 580 LINE"
);
},
{
closed = 1;
nodes = (
"360 701 LINE",
"350 881 LINE",
"280 881 LINE",
"348 701 LINE"
);
}
);
width = 500;
}
);
},
{
color = 6;
glyphname = circumflexcomb_hookabovecomb;
layers = (
{
anchors = (
{
name = _top;
position = "{261, 540}";
},
{
name = top;
position = "{342, 871}";
}
);
layerId = "94EC0173-ED25-4379-B549-8ECC2838F2C2";
paths = (
{
closed = 1;
nodes = (
"188 580 LINE",
"261 686 LINE",
"334 580 LINE",
"346 580 LINE",
"281 750 LINE",
"241 750 LINE",
"176 580 LINE"
);
},
{
closed = 1;
nodes = (
"351 711 LINE",
"351 717 LINE SMOOTH",
"351 764 OFFCURVE",
"409 774 OFFCURVE",
"409 822 CURVE SMOOTH",
"409 853 OFFCURVE",
"384 875 OFFCURVE",
"344 875 CURVE SMOOTH",
"297 875 OFFCURVE",
"276 844 OFFCURVE",
"276 817 CURVE SMOOTH",
"276 797 OFFCURVE",
"288 784 OFFCURVE",
"305 784 CURVE SMOOTH",
"322 784 OFFCURVE",
"329 796 OFFCURVE",
"329 806 CURVE SMOOTH",
"329 819 OFFCURVE",
"319 825 OFFCURVE",
"309 830 CURVE SMOOTH",
"303 833 LINE",
"306 841 OFFCURVE",
"316 852 OFFCURVE",
"334 852 CURVE SMOOTH",
"351 852 OFFCURVE",
"367 842 OFFCURVE",
"367 817 CURVE SMOOTH",
"367 780 OFFCURVE",
"331 775 OFFCURVE",
"331 717 CURVE SMOOTH",
"331 711 LINE"
);
}
);
width = 500;
}
);
},
{
color = 6;
glyphname = circumflexcomb_tildecomb;
layers = (
{
anchors = (
{
name = _top;
position = "{306, 540}";
},
{
name = top;
position = "{306, 869}";
}
);
layerId = "94EC0173-ED25-4379-B549-8ECC2838F2C2";
paths = (
{
closed = 1;
nodes = (
"233 580 LINE",
"306 686 LINE",
"379 580 LINE",
"391 580 LINE",
"326 750 LINE",
"286 750 LINE",
"221 580 LINE"
);
},
{
closed = 1;
nodes = (
"396 771 OFFCURVE",
"396 844 OFFCURVE",
"396 864 CURVE",
"383 864 LINE",
"383 836 OFFCURVE",
"376 818 OFFCURVE",
"358 818 CURVE SMOOTH",
"328 818 OFFCURVE",
"309 869 OFFCURVE",
"267 869 CURVE SMOOTH",
"216 869 OFFCURVE",
"216 796 OFFCURVE",
"216 776 CURVE",
"229 776 LINE",
"229 804 OFFCURVE",
"236 822 OFFCURVE",
"254 822 CURVE SMOOTH",
"284 822 OFFCURVE",
"303 771 OFFCURVE",
"345 771 CURVE SMOOTH"
);
}
);
width = 500;
}
);
},
{
color = 6;
export = 0;
glyphname = "serif-lower1";
layers = (
{
layerId = "94EC0173-ED25-4379-B549-8ECC2838F2C2";
paths = (
{
closed = 1;
nodes = (
"591 0 LINE",
"591 34 LINE",
"402 34 LINE",
"402 146 LINE",
"334 146 LINE",
"334 34 LINE",
"145 34 LINE",
"145 0 LINE"
);
}
);
width = 600;
}
);
},
{
color = 6;
export = 0;
glyphname = "stem-lower";
layers = (
{
layerId = "94EC0173-ED25-4379-B549-8ECC2838F2C2";
paths = (
{
closed = 1;
nodes = (
"327 0 LINE",
"327 740 LINE",
"259 740 LINE",
"259 0 LINE"
);
}
);
width = 600;
}
);
},
{
color = 6;
export = 0;
glyphname = "serif-top1";
layers = (
{
layerId = "94EC0173-ED25-4379-B549-8ECC2838F2C2";
paths = (
{
closed = 1;
nodes = (
"402 544 LINE",
"402 700 LINE",
"378 700 LINE",
"334 675 LINE",
"192 662 LINE",
"192 638 LINE",
"334 638 LINE",
"334 544 LINE"
);
}
);
width = 600;
}
);
},
{
color = 6;
export = 0;
glyphname = ncurve;
layers = (
{
layerId = "94EC0173-ED25-4379-B549-8ECC2838F2C2";
paths = (
{
closed = 1;
nodes = (
"155 0 LINE",
"155 421 LINE",
"164 457 OFFCURVE",
"197 504 OFFCURVE",
"254 504 CURVE SMOOTH",
"300 504 OFFCURVE",
"324 476 OFFCURVE",
"324 424 CURVE SMOOTH",
"324 0 LINE",
"476 0 LINE",
"476 34 LINE",
"392 34 LINE",
"392 430 LINE SMOOTH",
"392 508 OFFCURVE",
"351 550 OFFCURVE",
"286 550 CURVE SMOOTH",
"218 550 OFFCURVE",
"173 504 OFFCURVE",
"158 469 CURVE",
"155 469 LINE",
"155 506 LINE",
"87 506 LINE",
"87 0 LINE"
);
}
);
width = 580;
}
);
},
{
color = 6;
export = 0;
glyphname = "serif-lower2";
layers = (
{
layerId = "94EC0173-ED25-4379-B549-8ECC2838F2C2";
paths = (
{
closed = 1;
nodes = (
"461 0 LINE",
"461 34 LINE",
"402 34 LINE",
"402 146 LINE",
"334 146 LINE",
"334 34 LINE",
"250 34 LINE",
"250 0 LINE"
);
}
);
width = 600;
}
);
},
{
color = 6;
export = 0;
glyphname = "serif-top2";
layers = (
{
layerId = "94EC0173-ED25-4379-B549-8ECC2838F2C2";
paths = (
{
closed = 1;
nodes = (
"402 544 LINE",
"402 700 LINE",
"378 700 LINE",
"334 675 LINE",
"232 662 LINE",
"232 638 LINE",
"334 638 LINE",
"334 544 LINE"
);
}
);
width = 600;
}
);
},
{
color = 6;
export = 0;
glyphname = "serif-top-3";
layers = (
{
layerId = "94EC0173-ED25-4379-B549-8ECC2838F2C2";
paths = (
{
closed = 1;
nodes = (
"412 544 LINE",
"412 700 LINE",
"393 700 LINE",
"353 673 LINE",
"293 658 LINE",
"293 638 LINE",
"347 638 LINE",
"347 544 LINE"
);
}
);
width = 600;
}
);
},
{
color = 6;
export = 0;
glyphname = "serif-lower3";
layers = (
{
layerId = "94EC0173-ED25-4379-B549-8ECC2838F2C2";
paths = (
{
closed = 1;
nodes = (
"431 0 LINE",
"431 25 LINE",
"402 30 OFFCURVE",
"402 38 OFFCURVE",
"402 69 CURVE SMOOTH",
"402 146 LINE",
"341 146 LINE",
"341 69 LINE SMOOTH",
"341 38 OFFCURVE",
"338 32 OFFCURVE",
"297 25 CURVE",
"297 0 LINE"
);
}
);
width = 600;
}
);
},
{
color = 6;
export = 0;
glyphname = "serif-upper-1";
layers = (
{
layerId = "94EC0173-ED25-4379-B549-8ECC2838F2C2";
paths = (
{
closed = 1;
nodes = (
"568 0 LINE",
"568 34 LINE",
"404 34 LINE",
"404 146 LINE",
"334 146 LINE",
"334 34 LINE",
"170 34 LINE",
"170 0 LINE"
);
}
);
width = 600;
}
);
},
{
color = 6;
export = 0;
glyphname = "stem-upper";
layers = (
{
layerId = "94EC0173-ED25-4379-B549-8ECC2838F2C2";
paths = (
{
closed = 1;
nodes = (
"328 0 LINE",
"328 710 LINE",
"258 710 LINE",
"258 0 LINE"
);
}
);
width = 600;
}
);
},
{
color = 6;
export = 0;
glyphname = "I-Stem";
layers = (
{
layerId = "94EC0173-ED25-4379-B549-8ECC2838F2C2";
paths = (
{
closed = 1;
nodes = (
"350 0 LINE",
"350 34 LINE",
"284 34 LINE",
"284 706 LINE",
"350 706 LINE",
"350 740 LINE",
"152 740 LINE",
"152 706 LINE",
"218 706 LINE",
"218 34 LINE",
"152 34 LINE",
"152 0 LINE"
);
}
);
width = 600;
}
);
},
{
color = 6;
export = 0;
glyphname = crossbar;
layers = (
{
layerId = "94EC0173-ED25-4379-B549-8ECC2838F2C2";
paths = (
{
closed = 1;
nodes = (
"371 273 LINE",
"371 305 LINE",
"97 305 LINE",
"97 273 LINE"
);
}
);
width = 600;
}
);
},
{
color = 6;
export = 0;
glyphname = "stem-upper-2";
layers = (
{
layerId = "94EC0173-ED25-4379-B549-8ECC2838F2C2";
paths = (
{
closed = 1;
nodes = (
"145 0 LINE",
"145 740 LINE",
"-9 740 LINE",
"-9 706 LINE",
"75 706 LINE",
"75 34 LINE",
"-9 34 LINE",
"-9 0 LINE"
);
}
);
width = 600;
}
);
},
{
color = 6;
export = 0;
glyphname = "serif-top-4";
layers = (
{
layerId = "94EC0173-ED25-4379-B549-8ECC2838F2C2";
paths = (
{
closed = 1;
nodes = (
"402 544 LINE",
"402 700 LINE",
"383 700 LINE",
"280 658 LINE",
"280 636 LINE",
"334 636 LINE",
"334 544 LINE"
);
}
);
width = 600;
}
);
},
{
color = 3;
export = 0;
glyphname = ncurve.001;
layers = (
{
components = (
{
alignment = -1;
name = "serif-lower2";
transform = "{-1, 0, 0, 1, 726, 0}";
}
);
layerId = "94EC0173-ED25-4379-B549-8ECC2838F2C2";
paths = (
{
closed = 1;
nodes = (
"155 0 LINE",
"155 391 LINE SMOOTH",
"164 440 OFFCURVE",
"197 504 OFFCURVE",
"255 504 CURVE SMOOTH",
"301 504 OFFCURVE",
"324 476 OFFCURVE",
"324 431 CURVE SMOOTH",
"324 145 LINE",
"392 145 LINE",
"392 421 LINE SMOOTH",
"392 510 OFFCURVE",
"345 550 OFFCURVE",
"281 550 CURVE SMOOTH",
"215 550 OFFCURVE",
"172 496 OFFCURVE",
"158 455 CURVE",
"155 455 LINE",
"155 506 LINE",
"87 506 LINE",
"87 0 LINE"
);
}
);
width = 580;
}
);
},
{
color = 6;
export = 0;
glyphname = "serif-top-5";
layers = (
{
layerId = "94EC0173-ED25-4379-B549-8ECC2838F2C2";
paths = (
{
closed = 1;
nodes = (
"402 544 LINE",
"402 700 LINE",
"378 700 LINE",
"334 675 LINE",
"263 662 LINE",
"263 638 LINE",
"334 638 LINE",
"334 544 LINE"
);
}
);
width = 600;
}
);
},
{
color = 6;
export = 0;
glyphname = doubleo;
layers = (
{
layerId = "94EC0173-ED25-4379-B549-8ECC2838F2C2";
paths = (
{
closed = 1;
nodes = (
"294 490 OFFCURVE",
"294 750 OFFCURVE",
"146 750 CURVE SMOOTH",
"-2 750 OFFCURVE",
"-2 490 OFFCURVE",
"146 490 CURVE SMOOTH"
);
},
{
closed = 1;
nodes = (
"512 -10 OFFCURVE",
"512 250 OFFCURVE",
"364 250 CURVE SMOOTH",
"216 250 OFFCURVE",
"216 -10 OFFCURVE",
"364 -10 CURVE SMOOTH"
);
},
{
closed = 1;
nodes = (
"335 13 OFFCURVE",
"307 33 OFFCURVE",
"307 95 CURVE SMOOTH",
"307 145 LINE SMOOTH",
"307 207 OFFCURVE",
"335 227 OFFCURVE",
"364 227 CURVE SMOOTH",
"393 227 OFFCURVE",
"421 207 OFFCURVE",
"421 145 CURVE SMOOTH",
"421 95 LINE SMOOTH",
"421 33 OFFCURVE",
"393 13 OFFCURVE",
"364 13 CURVE SMOOTH"
);
},
{
closed = 1;
nodes = (
"117 513 OFFCURVE",
"89 533 OFFCURVE",
"89 595 CURVE SMOOTH",
"89 645 LINE SMOOTH",
"89 707 OFFCURVE",
"117 727 OFFCURVE",
"146 727 CURVE SMOOTH",
"175 727 OFFCURVE",
"203 707 OFFCURVE",
"203 645 CURVE SMOOTH",
"203 595 LINE SMOOTH",
"203 533 OFFCURVE",
"175 513 OFFCURVE",
"146 513 CURVE SMOOTH"
);
}
);
width = 600;
}
);
},
{
color = 6;
export = 0;
glyphname = doubleslash;
layers = (
{
layerId = "94EC0173-ED25-4379-B549-8ECC2838F2C2";
paths = (
{
closed = 1;
nodes = (
"516 425 LINE",
"516 455 LINE",
"72 455 LINE",
"72 425 LINE"
);
},
{
closed = 1;
nodes = (
"496 250 LINE",
"496 280 LINE",
"52 280 LINE",
"52 250 LINE"
);
}
);
width = 600;
}
);
},
{
color = 6;
export = 0;
glyphname = doublestem;
layers = (
{
layerId = "94EC0173-ED25-4379-B549-8ECC2838F2C2";
paths = (
{
closed = 1;
nodes = (
"305 0 LINE",
"478 740 LINE",
"444 740 LINE",
"271 0 LINE"
);
},
{
closed = 1;
nodes = (
"146 0 LINE",
"319 740 LINE",
"285 740 LINE",
"112 0 LINE"
);
}
);
width = 600;
}
);
},
{
color = 6;
export = 0;
glyphname = smallc;
layers = (
{
layerId = "94EC0173-ED25-4379-B549-8ECC2838F2C2";
paths = (
{
closed = 1;
nodes = (
"294 70 OFFCURVE",
"324 116 OFFCURVE",
"331 151 CURVE",
"339 151 LINE",
"339 80 LINE",
"362 80 LINE",
"362 262 LINE",
"324 262 LINE",
"324 239 LINE SMOOTH",
"324 153 OFFCURVE",
"296 102 OFFCURVE",
"243 102 CURVE SMOOTH",
"170 102 OFFCURVE",
"170 198 OFFCURVE",
"170 225 CURVE SMOOTH",
"170 345 LINE SMOOTH",
"170 372 OFFCURVE",
"170 468 OFFCURVE",
"243 468 CURVE SMOOTH",
"296 468 OFFCURVE",
"324 417 OFFCURVE",
"324 331 CURVE SMOOTH",
"324 308 LINE",
"362 308 LINE",
"362 490 LINE",
"339 490 LINE",
"339 419 LINE",
"331 419 LINE",
"324 454 OFFCURVE",
"294 500 OFFCURVE",
"238 500 CURVE SMOOTH",
"61 500 OFFCURVE",
"60 70 OFFCURVE",
"238 70 CURVE SMOOTH"
);
}
);
width = 600;
}
);
},
{
color = 6;
export = 0;
glyphname = smallr;
layers = (
{
layerId = "94EC0173-ED25-4379-B549-8ECC2838F2C2";
paths = (
{
closed = 1;
nodes = (
"319 465 OFFCURVE",
"325 488 OFFCURVE",
"325 505 CURVE SMOOTH",
"325 555 LINE",
"307 555 LINE",
"307 509 LINE SMOOTH",
"307 498 OFFCURVE",
"304 491 OFFCURVE",
"295 491 CURVE SMOOTH",
"283 491 OFFCURVE",
"283 504 OFFCURVE",
"283 512 CURVE SMOOTH",
"283 558 LINE SMOOTH",
"283 585 OFFCURVE",
"272 600 OFFCURVE",
"245 600 CURVE SMOOTH",
"243 600 LINE",
"243 603 LINE",
"246 603 LINE SMOOTH",
"282 603 OFFCURVE",
"306 633 OFFCURVE",
"306 669 CURVE SMOOTH",
"306 701 OFFCURVE",
"284 740 OFFCURVE",
"226 740 CURVE SMOOTH",
"128 740 LINE",
"128 725 LINE",
"161 721 LINE",
"161 488 LINE",
"128 484 LINE",
"128 469 LINE",
"228 469 LINE",
"228 484 LINE",
"194 488 LINE",
"194 592 LINE",
"211 592 LINE SMOOTH",
"242 592 OFFCURVE",
"251 583 OFFCURVE",
"251 554 CURVE SMOOTH",
"251 505 LINE SMOOTH",
"251 482 OFFCURVE",
"263 465 OFFCURVE",
"288 465 CURVE SMOOTH"
);
},
{
closed = 1;
nodes = (
"194 723 LINE",
"217 723 LINE SMOOTH",
"253 723 OFFCURVE",
"272 708 OFFCURVE",
"272 673 CURVE SMOOTH",
"272 660 LINE SMOOTH",
"272 624 OFFCURVE",
"253 613 OFFCURVE",
"217 613 CURVE SMOOTH",
"194 613 LINE"
);
}
);
width = 600;
}
);
},
{
color = 6;
export = 0;
glyphname = Supper;
layers = (
{
layerId = "94EC0173-ED25-4379-B549-8ECC2838F2C2";
paths = (
{
closed = 1;
nodes = (
"393 47 OFFCURVE",
"471 94 OFFCURVE",
"471 194 CURVE SMOOTH",
"471 386 OFFCURVE",
"154 477 OFFCURVE",
"154 626 CURVE SMOOTH",
"154 676 OFFCURVE",
"187 717 OFFCURVE",
"242 717 CURVE SMOOTH",
"323 717 OFFCURVE",
"371 631 OFFCURVE",
"371 532 CURVE SMOOTH",
"371 482 LINE",
"419 482 LINE",
"419 750 LINE",
"391 750 LINE",
"391 639 LINE",
"383 639 LINE",
"371 677 OFFCURVE",
"333 750 OFFCURVE",
"239 750 CURVE SMOOTH",
"149 750 OFFCURVE",
"87 684 OFFCURVE",
"87 602 CURVE SMOOTH",
"87 427 OFFCURVE",
"404 346 OFFCURVE",
"404 171 CURVE SMOOTH",
"404 103 OFFCURVE",
"360 64 OFFCURVE",
"296 64 CURVE",
"296 47 LINE"
);
}
);
width = 600;
}
);
},
{
color = 6;
export = 0;
glyphname = Slower;
layers = (
{
layerId = "94EC0173-ED25-4379-B549-8ECC2838F2C2";
paths = (
{
closed = 1;
nodes = (
"363 -10 OFFCURVE",
"441 56 OFFCURVE",
"441 160 CURVE SMOOTH",
"441 339 OFFCURVE",
"124 431 OFFCURVE",
"124 592 CURVE SMOOTH",
"124 647 OFFCURVE",
"157 687 OFFCURVE",
"212 687 CURVE",
"212 710 LINE",
"126 710 OFFCURVE",
"57 662 OFFCURVE",
"57 569 CURVE SMOOTH",
"57 380 OFFCURVE",
"374 299 OFFCURVE",
"374 136 CURVE SMOOTH",
"374 65 OFFCURVE",
"330 24 OFFCURVE",
"266 24 CURVE SMOOTH",
"134 24 OFFCURVE",
"124 198 OFFCURVE",
"124 256 CURVE SMOOTH",
"124 295 LINE",
"76 295 LINE",
"76 0 LINE",
"104 0 LINE",
"104 133 LINE",
"112 133 LINE",
"118 93 OFFCURVE",
"153 -10 OFFCURVE",
"269 -10 CURVE SMOOTH"
);
}
);
width = 600;
}
);
},
{
color = 6;
export = 0;
glyphname = doubledot;
layers = (
{
layerId = "94EC0173-ED25-4379-B549-8ECC2838F2C2";
paths = (
{
closed = 1;
nodes = (
"281 400 OFFCURVE",
"305 424 OFFCURVE",
"305 455 CURVE SMOOTH",
"305 486 OFFCURVE",
"281 510 OFFCURVE",
"250 510 CURVE SMOOTH",
"219 510 OFFCURVE",
"195 486 OFFCURVE",
"195 455 CURVE SMOOTH",
"195 424 OFFCURVE",
"219 400 OFFCURVE",
"250 400 CURVE SMOOTH"
);
},
{
closed = 1;
nodes = (
"281 128 OFFCURVE",
"305 152 OFFCURVE",
"305 183 CURVE SMOOTH",
"305 214 OFFCURVE",
"281 238 OFFCURVE",
"250 238 CURVE SMOOTH",
"219 238 OFFCURVE",
"195 214 OFFCURVE",
"195 183 CURVE SMOOTH",
"195 152 OFFCURVE",
"219 128 OFFCURVE",
"250 128 CURVE SMOOTH"
);
}
